<svg width="68" height="66" viewBox="0 0 68 66" fill="none" xmlns="http://www.w3.org/2000/svg">
<path fill-rule="evenodd" clip-rule="evenodd" d="M49.2309 7.31069e-05C54.3938 0.0200907 58.968 3.34298 62.1242 7.38285C64.9208 10.9623 64.4125 15.6404 64.9589 20.1311C65.639 25.7215 68.9471 31.7745 65.6506 36.3659C62.1618 41.2251 55.227 41.4355 49.2309 42.0373C42.2563 42.7371 34.4013 44.5712 29.1019 40.0335C23.6389 35.3558 22.1258 27.1163 23.6474 20.1311C24.9674 14.0711 31.3304 11.1426 36.236 7.28247C40.286 4.09563 44.0549 -0.019995 49.2309 7.31069e-05Z" fill="#4ECBD3"/>
<path d="M43.5871 26.5609C45.519 26.5609 47.0851 24.9948 47.0851 23.0629C47.0851 21.131 45.519 19.5649 43.5871 19.5649C41.6552 19.5649 40.0891 21.131 40.0891 23.0629C40.0891 24.9948 41.6552 26.5609 43.5871 26.5609Z" fill="#333333"/>
<path d="M24.0012 26.5609C25.9331 26.5609 27.4992 24.9948 27.4992 23.0629C27.4992 21.131 25.9331 19.5649 24.0012 19.5649C22.0693 19.5649 20.5032 21.131 20.5032 23.0629C20.5032 24.9948 22.0693 26.5609 24.0012 26.5609Z" fill="#333333"/>
<path d="M4.40816 26.5609C6.34005 26.5609 7.90616 24.9948 7.90616 23.0629C7.90616 21.131 6.34005 19.5649 4.40816 19.5649C2.47626 19.5649 0.910156 21.131 0.910156 23.0629C0.910156 24.9948 2.47626 26.5609 4.40816 26.5609Z" fill="#333333"/>
<path d="M43.5871 46.151C45.519 46.151 47.0851 44.5849 47.0851 42.653C47.0851 40.7211 45.519 39.155 43.5871 39.155C41.6552 39.155 40.0891 40.7211 40.0891 42.653C40.0891 44.5849 41.6552 46.151 43.5871 46.151Z" fill="#333333"/>
<path d="M24.0012 46.151C25.9331 46.151 27.4992 44.5849 27.4992 42.653C27.4992 40.7211 25.9331 39.155 24.0012 39.155C22.0693 39.155 20.5032 40.7211 20.5032 42.653C20.5032 44.5849 22.0693 46.151 24.0012 46.151Z" fill="#333333"/>
<path d="M4.40816 46.151C6.34005 46.151 7.90616 44.5849 7.90616 42.653C7.90616 40.7211 6.34005 39.155 4.40816 39.155C2.47626 39.155 0.910156 40.7211 0.910156 42.653C0.910156 44.5849 2.47626 46.151 4.40816 46.151Z" fill="#333333"/>
<path d="M43.5871 65.7418C45.519 65.7418 47.0851 64.1757 47.0851 62.2439C47.0851 60.312 45.519 58.7458 43.5871 58.7458C41.6552 58.7458 40.0891 60.312 40.0891 62.2439C40.0891 64.1757 41.6552 65.7418 43.5871 65.7418Z" fill="#333333"/>
<path d="M24.0012 65.7418C25.9331 65.7418 27.4992 64.1757 27.4992 62.2439C27.4992 60.312 25.9331 58.7458 24.0012 58.7458C22.0693 58.7458 20.5032 60.312 20.5032 62.2439C20.5032 64.1757 22.0693 65.7418 24.0012 65.7418Z" fill="#333333"/>
<path d="M4.40816 65.7418C6.34005 65.7418 7.90616 64.1757 7.90616 62.2439C7.90616 60.312 6.34005 58.7458 4.40816 58.7458C2.47626 58.7458 0.910156 60.312 0.910156 62.2439C0.910156 64.1757 2.47626 65.7418 4.40816 65.7418Z" fill="#333333"/>
</svg>
