<svg width="50" height="51" viewBox="0 0 50 51" fill="none" xmlns="http://www.w3.org/2000/svg">
<path d="M36.3907 11.1014L37.0978 10.3943L36.3907 9.68718L34.745 8.04149C34.7445 8.04098 34.744 8.04046 34.7435 8.03995C34.7071 8.00256 34.6965 7.97208 34.6926 7.94898C34.6877 7.92033 34.6905 7.88389 34.706 7.84646C34.7214 7.80908 34.7444 7.78289 34.7659 7.76776C34.7828 7.75583 34.8102 7.74194 34.8633 7.74194H42.5781C42.6704 7.74194 42.75 7.82157 42.75 7.91382V15.6287C42.75 15.682 42.736 15.7107 42.7231 15.7291C42.707 15.7519 42.6801 15.7752 42.6431 15.7906C42.6062 15.806 42.5714 15.8084 42.5449 15.8038C42.524 15.8002 42.4938 15.7903 42.4552 15.7516L40.8048 14.1012L40.0977 13.3941L39.3905 14.1012L31.5097 21.9821L30.9448 22.5469L31.3709 23.2226C32.6403 25.2355 33.375 27.6197 33.375 30.1794C33.375 37.3908 27.5239 43.2419 20.3125 43.2419C13.1011 43.2419 7.25 37.3908 7.25 30.1794C7.25 22.9681 13.1011 17.1169 20.3125 17.1169C22.8722 17.1169 25.2564 17.8516 27.2693 19.121L27.945 19.5471L28.5098 18.9823L36.3907 11.1014ZM11.5 30.1794C11.5 35.0384 15.4536 38.9919 20.3125 38.9919C25.1714 38.9919 29.125 35.0384 29.125 30.1794C29.125 25.3205 25.1714 21.3669 20.3125 21.3669C15.4536 21.3669 11.5 25.3205 11.5 30.1794Z" stroke="black" stroke-width="2"/>
</svg>
