<svg width="30" height="45" viewBox="0 0 30 45" fill="none" xmlns="http://www.w3.org/2000/svg">
<path d="M12.875 28.6404V27.8413L12.0956 27.665C6.28216 26.35 1.9375 21.142 1.9375 14.9294C1.9375 7.71806 7.78861 1.86694 15 1.86694C22.2114 1.86694 28.0625 7.71806 28.0625 14.9294C28.0625 21.142 23.7178 26.35 17.9044 27.665L17.125 27.8413V28.6404V33.6794V34.6794H18.125H21.6406C21.7329 34.6794 21.8125 34.7591 21.8125 34.8513V38.7576C21.8125 38.8498 21.7329 38.9294 21.6406 38.9294H18.125H17.125V39.9294V43.4451C17.125 43.5373 17.0454 43.6169 16.9531 43.6169H13.0469C12.9546 43.6169 12.875 43.5373 12.875 43.4451V39.9294V38.9294H11.875H8.35938C8.26713 38.9294 8.1875 38.8498 8.1875 38.7576V34.8513C8.1875 34.7591 8.26713 34.6794 8.35938 34.6794H11.875H12.875V33.6794V28.6404ZM15 6.11694C10.1411 6.11694 6.1875 10.0705 6.1875 14.9294C6.1875 19.7884 10.1411 23.7419 15 23.7419C19.8589 23.7419 23.8125 19.7884 23.8125 14.9294C23.8125 10.0705 19.8589 6.11694 15 6.11694Z" stroke="black" stroke-width="2"/>
</svg>
