<svg width="454" height="432" viewBox="0 0 454 432" fill="none" xmlns="http://www.w3.org/2000/svg">
<path d="M50.5068 388.855V342.058L200.458 330.501V388.132C200.458 388.132 114.446 387.926 50.5068 388.851V388.855Z" fill="#3A9AA0"/>
<path d="M129.077 389.62L127.629 389.526L129.222 366.442L143.755 357.752L144.503 359.001L130.62 367.298L129.077 389.62Z" fill="black"/>
<path d="M88.5194 97.4318L36.7827 116.444C20.8377 123.95 9.6657 138.893 6.97252 156.308L0 239.492L48.7314 229.746L44.0129 349.502C44.0129 349.502 134.434 355.085 206.036 333.263L200.454 203.359L255.257 180.525L228.83 125.975C221.789 111.442 208.598 96.7857 192.842 93.2432L144.644 86.5574L88.5158 97.4318H88.5194Z" fill="#4ECBD3"/>
<path d="M98.4756 69.0807L98.7369 93.3193L88.5195 97.4317L131.4 140.094L144.648 86.561L136.325 86.786L130.166 64.0863L98.4756 69.0807Z" fill="#F6AAA2"/>
<path d="M130.166 64.0863L98.6313 67.6071L98.5986 80.5394L134.434 79.8208L130.166 64.0863Z" fill="#F48D8D"/>
<path d="M73.642 26.9044C76.8941 15.8703 84.0808 14.5383 84.0808 14.5383C86.0335 5.95784 98.8897 1.23206 106.396 0.252064C118.025 -1.26875 130.402 4.20109 137.24 13.718C146.173 26.1495 145.69 46.8819 127.941 50.2611L91.213 56.8307C79.5075 52.8781 70.3898 37.9421 73.642 26.908V26.9044Z" fill="#562A2F"/>
<path d="M90.7334 60.3768C93.2269 64.765 96.7695 68.529 101.372 70.8483C108.805 74.5905 118.337 74.3872 125.371 69.6215C140.369 59.4586 141.733 35.4231 131.414 21.5398C129.338 18.745 126.427 16.6035 123.164 15.3622C116.061 12.6617 107.735 14.7851 100.893 17.2387C86.8715 22.273 84.2291 37.8114 87.111 50.849C87.8406 54.1447 89.0456 57.4041 90.7334 60.3768Z" fill="#F6AAA2"/>
<path d="M93.2695 51.7492C91.4365 54.5803 88.1227 55.8398 85.0266 55.1719C84.0974 54.9759 83.1973 54.6166 82.3661 54.0794C78.7219 51.7202 77.6802 46.8456 80.0504 43.1869C82.4096 39.5428 87.2842 38.5011 90.9284 40.8603C91.2151 41.0455 91.491 41.245 91.7342 41.4628C94.725 43.989 95.4436 48.3882 93.2659 51.7456L93.2695 51.7492Z" fill="#F6AAA2"/>
<path d="M136.121 30.7009C136.121 30.7009 131.098 20.9698 122.477 20.3165C122.477 20.3165 120.492 30.1383 108.696 30.7263C102.689 31.0239 101.846 26.5668 101.846 26.5668C101.846 26.5668 96.8194 39.6008 85.9632 39.6334C79.3101 39.6552 81.4044 32.1201 81.4044 32.1201C81.4044 32.1201 78.9871 20.6867 99.5888 13.2533C124.822 4.14653 137.624 15.3367 136.121 30.7045V30.7009Z" fill="#562A2F"/>
<path d="M67.2904 215.101L61.7153 157.331C61.3596 156.253 56.7173 142.69 45.8574 137.02L46.5289 135.732C58.3325 141.891 62.9348 156.351 63.1236 156.965L63.1526 157.11L68.735 214.959L67.2904 215.097V215.101Z" fill="black"/>
<path d="M201.179 140.094H199.728V203.359H201.179V140.094Z" fill="black"/>
<path d="M168.86 125.99C168.276 125.99 167.746 125.583 167.619 124.984L165.503 115.119C162.171 101.395 151.551 90.7605 137.787 87.4031C137.105 87.2362 136.687 86.5502 136.854 85.8678C137.021 85.1854 137.707 84.768 138.389 84.935C153.079 88.521 164.418 99.8709 167.982 114.556L170.105 124.454C170.25 125.14 169.815 125.815 169.129 125.964C169.038 125.982 168.951 125.993 168.86 125.993V125.99Z" fill="black"/>
<path d="M89.5976 148.682C89.0169 148.682 88.4942 148.283 88.3599 147.695L84.2258 129.561C80.9591 115.235 85.7611 100.267 96.7589 90.503C97.2852 90.0384 98.0873 90.0856 98.5519 90.6082C99.0165 91.1345 98.9693 91.9367 98.4467 92.4013C88.1422 101.552 83.645 115.573 86.7048 128.995L90.839 147.129C90.995 147.811 90.5667 148.494 89.8844 148.65C89.79 148.671 89.6956 148.682 89.6013 148.682H89.5976Z" fill="black"/>
<path d="M162.108 151.238C161.52 151.238 160.99 150.827 160.866 150.225L158.921 140.908C157.328 133.282 162.224 125.736 169.839 124.084C177.37 122.455 184.749 127.024 186.648 134.49L188.996 143.742C189.17 144.421 188.756 145.114 188.078 145.285C187.399 145.459 186.706 145.045 186.535 144.367L184.187 135.115C182.63 128.981 176.565 125.224 170.38 126.567C164.126 127.921 160.101 134.12 161.411 140.385L163.356 149.702C163.502 150.388 163.059 151.063 162.373 151.205C162.286 151.223 162.198 151.234 162.111 151.234L162.108 151.238Z" fill="black"/>
<path d="M175.293 181.995C172.626 181.995 170.208 180.26 169.421 177.567L161.41 150.174L162.804 149.767L170.815 177.16C171.537 179.628 174.049 181.04 176.531 180.383L177.867 180.028L178.241 181.432L176.905 181.788C176.364 181.933 175.823 181.999 175.293 181.999V181.995Z" fill="white"/>
<path d="M191.57 178.162L191.13 176.779C193.53 176.017 194.902 173.52 194.248 171.088L187.062 144.254L188.463 143.877L195.649 170.71C196.502 173.894 194.709 177.168 191.566 178.162H191.57Z" fill="white"/>
<path d="M182.202 180.213C182.064 181.32 181.055 182.108 179.948 181.973C178.841 181.835 178.053 180.826 178.188 179.719C178.326 178.612 179.335 177.825 180.442 177.959C181.549 178.097 182.336 179.106 182.202 180.213Z" fill="white"/>
<path d="M191.392 178.187C191.254 179.294 190.245 180.082 189.138 179.948C188.031 179.81 187.243 178.801 187.377 177.694C187.515 176.587 188.524 175.799 189.631 175.933C190.738 176.071 191.526 177.08 191.392 178.187Z" fill="white"/>
<path d="M101.896 160.015C104.155 154.975 101.901 149.059 96.8609 146.8C91.8212 144.542 85.9047 146.796 83.6462 151.836C81.3876 156.875 83.6421 162.792 88.6818 165.05C93.7215 167.309 99.6379 165.054 101.896 160.015Z" fill="white"/>
<path d="M92.7688 161.803C92.6272 161.803 92.4857 161.8 92.3441 161.789C90.787 161.676 89.3678 160.968 88.3443 159.789C87.3207 158.609 86.8198 157.103 86.9287 155.546C87.0412 153.989 87.749 152.566 88.9286 151.546C90.1083 150.522 91.6146 150.025 93.1717 150.134C94.7288 150.247 96.148 150.954 97.1715 152.134C98.1951 153.314 98.696 154.82 98.5871 156.377C98.4746 157.934 97.7668 159.357 96.5871 160.377C95.5164 161.306 94.1734 161.807 92.7688 161.807V161.803ZM92.7543 151.564C91.698 151.564 90.689 151.938 89.8832 152.639C88.9976 153.408 88.464 154.475 88.3806 155.647C88.2971 156.816 88.6746 157.949 89.444 158.838C90.2135 159.724 91.2806 160.261 92.4494 160.341C93.6217 160.428 94.7542 160.047 95.6398 159.277C96.5254 158.508 97.059 157.441 97.1425 156.268C97.226 155.099 96.8485 153.967 96.079 153.078C95.3095 152.192 94.2424 151.655 93.0737 151.575C92.9684 151.568 92.8595 151.564 92.7543 151.564Z" fill="black"/>
<path d="M8.64258 236.77L13.4446 265.752C14.7549 273.654 20.7038 287.094 27.2916 291.653C39.0008 299.755 57.8967 298.626 68.0124 288.608L110.327 215.028L88.5162 196.241L57.1018 227.99L8.64258 236.766V236.77Z" fill="#F6AAA2"/>
<path d="M56.5669 227.51L31.9521 253.649L33.0091 254.644L57.6238 228.506L56.5669 227.51Z" fill="black"/>
<path d="M151.021 182.496C150.255 183.603 148.742 183.882 147.635 183.117L99.796 150.091C98.689 149.325 98.4095 147.811 99.1754 146.704C99.9412 145.597 101.455 145.318 102.562 146.083L150.4 179.109C151.507 179.875 151.787 181.389 151.021 182.496Z" fill="black"/>
<path d="M107.955 163.019C106.453 165.683 88.5186 196.249 88.5186 196.249L110.329 215.036C110.329 215.036 129.381 201.08 131.047 195.374C131.047 195.374 138.143 190.808 138.092 184.336C138.092 184.336 141.468 179.77 140.324 173.679C140.324 173.679 146.034 175.494 147.554 171.734C149.075 167.974 146.034 165.622 146.034 165.622L127.631 155.967L107.959 163.027L107.955 163.019Z" fill="#F6AAA2"/>
<path d="M139.965 174.304C139.892 174.264 132.677 170.17 129.043 169.567C125.472 168.975 120.325 170.794 120.274 170.816L119.784 169.447C120.009 169.367 125.334 167.48 129.283 168.133C133.17 168.776 140.382 172.866 140.687 173.041L139.969 174.304H139.965Z" fill="black"/>
<path d="M123.178 180.583L122.405 179.353C122.659 179.193 128.757 175.455 138.299 178.307L137.882 179.698C129.004 177.044 123.233 180.547 123.175 180.583H123.178Z" fill="black"/>
<path d="M125.596 189.933L124.602 188.877C129.037 184.699 137.639 183.654 138.006 183.61L138.176 185.051C138.093 185.062 129.683 186.089 125.6 189.933H125.596Z" fill="black"/>
<path d="M90.193 253.012L170.237 222.157C170.782 221.946 171.232 221.55 171.504 221.035L208.965 151.03C210.022 149.052 208.065 146.824 205.967 147.611L128.177 176.877C127.636 177.08 127.19 177.469 126.91 177.973L87.1949 249.564C86.0951 251.549 88.0733 253.825 90.193 253.008V253.012Z" fill="white"/>
<path d="M191.833 194.31C191.833 194.31 191.238 190.463 190.628 185.668C189.764 178.913 186.798 172.939 193.586 170.344C201.836 167.19 205.404 188.184 205.404 201.297C205.404 216.172 201.48 228.237 182.214 227.993C182.214 227.993 165.507 231.935 166.563 222.251C166.563 222.251 158.397 215.355 160.607 209.381C162.818 203.41 166.636 205.733 169.609 208.466C172.581 211.199 176.508 214.919 176.508 214.919C176.508 214.919 176.051 211.979 173.895 209.159C171.739 206.339 162.803 196.688 167.812 189.828C167.812 189.828 169.467 187.842 171.558 188.184C171.558 188.184 172.425 180.888 178.171 181.026C180.04 181.069 181.79 181.926 183.125 183.233C185.644 185.697 191.43 190.797 191.826 194.307L191.833 194.31Z" fill="#F6AAA2"/>
<path d="M194.374 207.119C194.083 203.403 191.052 194.02 191.023 193.926L192.406 193.479C192.533 193.871 195.521 203.119 195.822 207.01L194.374 207.123V207.119Z" fill="black"/>
<path d="M186.468 214.509C184.323 198.902 171.256 188.862 171.122 188.764L171.997 187.606C172.556 188.027 185.681 198.114 187.905 214.313L186.468 214.513V214.509Z" fill="black"/>
<path d="M179.409 220.614C178.593 218.244 176.005 215.442 175.979 215.413L177.043 214.426C177.159 214.549 179.863 217.482 180.781 220.143L179.409 220.614Z" fill="black"/>
<path d="M182.215 227.993L211.854 255.382C226.162 268.605 248.88 266.021 259.853 249.92C265.86 241.103 267.061 229.866 263.054 219.979L247.65 181.988L202.116 202.393L182.218 227.997L182.215 227.993Z" fill="#F6AAA2"/>
<path d="M153.192 167.473L152.771 165.622C152.179 163.023 153.609 160.388 156.106 159.462L173.3 153.092C176.443 151.927 179.866 153.927 180.396 157.237L153.192 167.473Z" fill="black"/>
<path d="M205.672 200.666L205.134 202.014L247.884 219.07L248.422 217.722L205.672 200.666Z" fill="black"/>
<path d="M453.158 388H25.1582V390H453.158V388Z" fill="black"/>
<path d="M394.354 371.611H201.05C184.374 371.611 170.855 385.129 170.855 401.806C170.855 418.482 184.374 432 201.05 432H394.354C411.03 432 424.548 418.482 424.548 401.806C424.548 385.129 411.03 371.611 394.354 371.611Z" fill="#BEC4D7"/>
<path d="M303.721 427.707H291.682C280.052 427.707 270.612 418.266 270.612 406.637H324.791C324.791 418.266 315.35 427.707 303.721 427.707Z" fill="white"/>
<path d="M298.425 406.636H296.974V419.866H298.425V406.636Z" fill="black"/>
<path d="M316.917 412.867L316.103 414.068L321.562 417.769L322.376 416.567L316.917 412.867Z" fill="black"/>
<path d="M312.339 418.356L311.209 419.269L315.27 424.298L316.4 423.386L312.339 418.356Z" fill="black"/>
<path d="M305.565 421.214L304.148 421.531L305.533 427.708L306.949 427.391L305.565 421.214Z" fill="black"/>
<path d="M278.457 412.903L272.998 416.603L273.813 417.805L279.272 414.104L278.457 412.903Z" fill="black"/>
<path d="M283.072 418.466L279.01 423.495L280.139 424.407L284.201 419.378L283.072 418.466Z" fill="black"/>
<path d="M289.856 421.308L288.471 427.485L289.887 427.803L291.273 421.626L289.856 421.308Z" fill="black"/>
<path d="M298.425 422.752H296.974V427.707H298.425V422.752Z" fill="black"/>
<path d="M288.074 406.636H307.322C307.322 410.912 303.856 414.379 299.58 414.379H295.812C291.537 414.379 288.07 410.912 288.07 406.636H288.074Z" fill="#C78B66"/>
<path d="M248.019 181.48C248.019 181.48 239.079 189.603 244.726 156.348C244.726 156.348 252.933 123.649 266.105 118.941C279.281 114.237 302.231 115.01 306.234 117.729C313.443 122.632 344.824 167.694 329.119 173.857C329.119 173.857 337.561 199.101 333.253 205.794C333.253 205.794 352.94 229.863 353.88 244.994C355.02 263.339 354.004 288.252 354.004 288.252C354.004 288.252 376.936 302.825 374.112 327.289C371.288 351.756 368.936 367.752 368.936 367.752L381.168 380.877L385.872 392.553H336.469L332.705 384.216H265.423L264.011 392.553H217.432L224.019 380.877L231.547 372.928C231.547 372.928 219.784 332.28 222.607 316.611C225.431 300.941 235.783 295.294 235.783 295.294C235.783 295.294 232.959 257.575 232.491 249.147C232.019 240.719 248.959 211.33 248.959 211.33C248.959 211.33 240.491 210.226 248.019 181.48Z" fill="#E7C4A2"/>
<path d="M266.105 118.941C266.105 118.941 253.43 116.034 242.138 120.974C230.846 125.914 228.258 147.557 230.61 150.145C232.962 152.733 245.274 148.417 247.96 143.713C250.646 139.006 266.105 118.941 266.105 118.941Z" fill="#562A2F"/>
<path d="M286.99 245.72C285.853 245.72 284.616 245.357 283.382 244.646C280.326 242.878 278.257 239.891 276.435 237.252C273.571 233.107 270.322 228.414 269.092 223.079L270.507 222.752C271.676 227.815 274.838 232.389 277.629 236.425C279.367 238.937 281.335 241.782 284.108 243.387C285.723 244.319 287.352 244.519 288.467 243.917C289.08 243.586 289.519 242.809 289.538 242.029C289.545 241.71 289.479 241.125 288.968 240.82L289.661 239.546L296.045 242.701C296.623 242.987 297.276 243.314 297.875 243.267C298.129 243.249 298.408 243.111 298.568 242.918C298.659 242.809 298.702 242.701 298.691 242.599L298.543 241.045L299.828 241.931C302.339 243.666 305.718 244.2 308.644 243.321L309.061 244.711C305.987 245.633 302.608 245.23 299.835 243.644C299.788 243.717 299.737 243.786 299.679 243.851C299.265 244.341 298.63 244.661 297.98 244.708C296.986 244.777 296.111 244.345 295.403 243.996L290.986 241.815C290.989 241.895 290.989 241.975 290.986 242.058C290.957 243.358 290.22 244.617 289.153 245.19C288.507 245.539 287.77 245.713 286.986 245.713L286.99 245.72Z" fill="black"/>
<path d="M268.736 186.848C271.397 178.456 271.121 168.972 275.912 161.586C277.781 158.704 280.366 156.261 281.749 153.118C283.266 149.673 283.182 145.768 283.073 142.007C282.954 137.884 282.834 133.761 282.714 129.634C282.645 127.202 283.451 123.859 285.879 124.033C288.191 124.204 288.645 127.365 288.532 129.681C288.267 135.202 288.648 140.752 289.661 146.181C290.053 148.283 290.558 150.41 291.686 152.221C293.127 154.53 295.443 156.116 297.494 157.902C303.182 162.856 304.209 169.302 305.541 176.725C306.978 184.735 308.807 194.652 314.706 200.259C317.134 202.568 320.382 203.773 323.566 204.807C327.326 206.027 331.133 207.09 334.984 207.99C333.91 206.593 333.253 205.791 333.253 205.791C337.561 199.098 329.119 173.854 329.119 173.854C344.821 167.691 313.442 122.625 306.234 117.725C302.231 115.003 279.28 114.23 266.105 118.937C252.929 123.641 244.726 156.344 244.726 156.344C239.079 189.599 248.018 181.476 248.018 181.476C242.991 200.669 245.097 207.54 247.053 209.987C257.161 205.911 265.433 197.265 268.736 186.848Z" fill="#562A2F"/>
<path d="M368.936 367.752C368.936 367.752 371.288 351.756 374.111 327.289C376.935 302.822 354.003 288.252 354.003 288.252C354.003 288.252 354.421 278.053 354.421 265.901C350.777 270.13 346.022 273.494 341.212 276.427C334.389 280.587 327.126 284.242 321.395 289.817C316.429 294.644 312.825 300.742 310.248 307.17C308.615 311.246 307.352 315.522 304.956 319.202C302.564 322.883 298.724 325.975 294.336 326.084C289.984 326.193 286.042 323.362 283.342 319.95C280.638 316.538 278.845 312.506 276.445 308.872C271.93 302.038 265.219 296.677 257.553 293.791C252.109 291.74 246.196 290.895 241.086 288.118C238.639 286.786 236.378 284.801 234.835 282.47C235.372 289.77 235.786 295.301 235.786 295.301C235.786 295.301 225.435 300.949 222.611 316.618C219.787 332.287 231.55 372.935 231.55 372.935L225.424 377.251C222.095 379.596 219.732 383.069 218.778 387.025L217.438 392.564H256.021L258.776 384.227H332.712L336.476 392.564H385.879V385.766C385.879 381.291 383.596 377.124 379.824 374.717L368.939 367.763L368.936 367.752Z" fill="#562A2F"/>
<path d="M239.17 265.411C242.981 261.807 246.792 258.203 250.603 254.598C254.603 250.816 258.908 246.337 258.77 240.835C258.56 232.214 247.946 227.427 244.212 219.968C239.239 229.329 232.187 243.666 232.495 249.147C232.702 252.838 233.359 262.141 234.03 271.436C235.272 269.153 237.254 267.226 239.17 265.411Z" fill="#562A2F"/>
<path d="M323.871 242.011C324.611 243.713 325.718 245.354 327.377 246.185C328.651 246.824 330.125 246.925 331.551 246.896C338.001 246.755 344.36 244.036 348.915 239.47C349.855 238.53 350.908 237.445 352.124 237.122C347.707 224.462 336.459 209.834 333.816 206.499C330.219 211.301 327.268 216.585 325.087 222.171C322.611 228.509 321.16 235.775 323.875 242.011H323.871Z" fill="#562A2F"/>
<path d="M246.843 144.435V142.984C246.669 142.984 246.567 143.052 246.567 143.052C247.576 142.341 253.38 132.763 258.327 124.113L258.473 123.859L264.984 121.932L265.398 123.325L259.442 125.089C258.836 126.146 256.425 130.331 253.939 134.468C247.95 144.439 247.409 144.439 246.84 144.439L246.843 144.435Z" fill="black"/>
<path d="M301.657 120.266C301.657 120.266 305.657 106.858 308.949 106.858C312.241 106.858 342.356 117.21 341.412 121.678C340.472 126.146 327.819 143.514 323.584 140.566C319.348 137.619 315.718 128.6 315.718 128.6L307.769 122.629L301.653 120.266H301.657Z" fill="#562A2F"/>
<path d="M299.029 157.909C299.029 157.909 283.476 146.646 272.395 159.981C261.313 173.316 265.379 190.067 274.656 192.728C285.715 195.9 301.878 194.695 305.544 188.256C309.21 181.813 309.424 164.42 299.033 157.909H299.029Z" fill="#E7C4A2"/>
<path d="M285.559 168.848C284.136 168.62 278.906 166.141 280.441 161.473C281.044 159.64 290.608 159.422 291.094 161.233C292.256 165.582 286.986 169.081 285.563 168.852L285.559 168.848Z" fill="black"/>
<path d="M280.162 178.717C280.162 178.717 277.661 199.12 284.717 198.982C291.773 198.84 293.642 197.051 293.649 179.36C293.649 179.36 288.88 179.592 285.976 174.866C285.976 174.866 282.764 178.587 280.162 178.717Z" fill="#EC696F"/>
<path d="M286.703 174.866H285.251V189.9H286.703V174.866Z" fill="black"/>
<path d="M293.088 180.118C290.231 180.118 287.756 178.075 286.006 176.046C283.974 178.507 280.667 179.901 277.484 179.574C274.141 179.229 271.052 176.986 269.651 173.934L267.742 173.85L267.804 172.398L270.639 172.522L270.813 172.961C271.916 175.745 274.657 177.821 277.633 178.129C280.609 178.438 283.72 176.968 285.368 174.467L285.919 173.629L286.54 174.416C287.894 176.129 290.602 178.95 293.567 178.638C301.912 177.741 301.951 172.663 301.948 172.445L301.941 171.865L302.503 171.727L305.367 171.041L305.704 172.453L303.345 173.019C303.095 174.674 301.683 179.222 293.723 180.078C293.509 180.1 293.295 180.111 293.084 180.111L293.088 180.118Z" fill="black"/>
<path d="M328.088 134.672C327.809 134.672 327.584 134.599 327.388 134.49C325.29 133.347 314.651 121.95 311.998 119.09L308.285 122.23L307.349 121.122L312.122 117.086L312.593 117.598C317.969 123.413 326.528 132.371 328.085 133.216C328.114 133.22 329.268 133.409 334.114 128.008C336.662 125.17 338.937 122.215 338.959 122.186L340.11 123.072C340.084 123.104 337.667 126.237 335.01 129.18C331.017 133.601 329.159 134.668 328.092 134.668L328.088 134.672Z" fill="black"/>
<path d="M233.093 244.994C230.915 247.43 240.722 376.296 240.722 376.296L237.989 377.926C232.918 380.953 229.812 386.423 229.812 392.328V392.553H258.366C258.366 392.553 266.366 371.984 265.19 370.572C264.014 369.16 266.101 265.727 266.101 265.727C266.101 265.727 245.648 230.94 233.089 244.994H233.093Z" fill="#E7C4A2"/>
<path d="M353.879 244.994C356.057 247.43 351.291 376.296 351.291 376.296L354.025 377.926C359.095 380.953 362.202 386.423 362.202 392.328V392.553H333.648C333.648 392.553 325.648 371.984 326.824 370.572C328 369.16 325.913 265.727 325.913 265.727C325.913 265.727 341.321 230.94 353.879 244.994Z" fill="#E7C4A2"/>
<path d="M234.94 392.88C233.859 388.401 236.073 383.33 240.091 381.08L240.798 382.347C237.325 384.289 235.412 388.67 236.349 392.539L234.937 392.88H234.94Z" fill="black"/>
<path d="M224.306 392.88C223.225 388.401 225.439 383.33 229.457 381.08L230.165 382.347C226.691 384.289 224.778 388.67 225.715 392.539L224.303 392.88H224.306Z" fill="black"/>
<path d="M242.646 392.88C241.565 388.401 243.779 383.33 247.797 381.08L248.505 382.347C245.031 384.289 243.118 388.67 244.055 392.539L242.643 392.88H242.646Z" fill="black"/>
<path d="M356.759 392.88L355.347 392.539C356.284 388.673 354.371 384.292 350.897 382.347L351.605 381.08C355.627 383.33 357.841 388.401 356.756 392.88H356.759Z" fill="black"/>
<path d="M349.049 392.88L347.637 392.539C348.574 388.673 346.661 384.292 343.188 382.347L343.895 381.08C347.917 383.33 350.131 388.401 349.046 392.88H349.049Z" fill="black"/>
<path d="M380.39 391.566L378.978 391.225C379.915 387.359 378.002 382.978 374.528 381.033L375.236 379.766C379.258 382.016 381.472 387.087 380.387 391.566H380.39Z" fill="black"/>
<path d="M372.684 391.566L371.272 391.225C372.209 387.359 370.296 382.978 366.822 381.033L367.53 379.766C371.552 382.016 373.766 387.087 372.68 391.566H372.684Z" fill="black"/>
<path d="M280.144 384.078C275.277 382.024 271.143 378.369 268.508 373.788L269.767 373.066C272.246 377.374 276.13 380.808 280.711 382.742L280.144 384.082V384.078Z" fill="black"/>
<path d="M320.452 381.53L319.592 380.362C322.379 378.307 324.622 375.4 325.9 372.18L327.25 372.718C325.871 376.187 323.457 379.316 320.452 381.53Z" fill="black"/>
<path d="M265.384 265.733L264.989 298.027L266.441 298.045L266.836 265.751L265.384 265.733Z" fill="black"/>
<path d="M326.651 265.692L325.2 265.753L326.024 285.401L327.474 285.34L326.651 265.692Z" fill="black"/>
<path d="M298.782 151.691H294.833C294.833 151.691 293.49 145.811 296.241 145.317C300.19 144.61 298.778 151.691 298.778 151.691H298.782Z" fill="black"/>
<path d="M276.666 151.691H272.717C272.717 151.691 271.374 145.811 274.126 145.317C278.075 144.61 276.663 151.691 276.663 151.691H276.666Z" fill="black"/>
<path d="M278.808 139.993C278.808 138.886 276.946 137.989 274.652 137.989C272.358 137.989 270.496 138.886 270.496 139.993C270.496 141.1 272.358 141.996 274.652 141.996C276.946 141.996 278.808 141.1 278.808 139.993Z" fill="#E7C4A2"/>
<path d="M302.822 139.993C302.822 138.886 300.96 137.989 298.666 137.989C296.372 137.989 294.51 138.886 294.51 139.993C294.51 141.1 296.372 141.996 298.666 141.996C300.96 141.996 302.822 141.1 302.822 139.993Z" fill="#E7C4A2"/>
<ellipse cx="275.5" cy="149" rx="4.5" ry="6" fill="white"/>
<ellipse cx="298.81" cy="150" rx="4.5" ry="6" fill="white"/>
<ellipse cx="274.79" cy="149" rx="2.1" ry="3" fill="black"/>
<ellipse cx="298.1" cy="150" rx="2.1" ry="3" fill="black"/>
</svg>
