<svg width="274" height="274" viewBox="0 0 274 274" fill="none" xmlns="http://www.w3.org/2000/svg">
<g opacity="0.4">
<g clip-path="url(#clip0_361_4589)">
<path d="M136.502 22.378C142.682 22.378 147.691 17.3685 147.691 11.189C147.691 5.00949 142.682 0 136.502 0C130.323 0 125.313 5.00949 125.313 11.189C125.313 17.3685 130.323 22.378 136.502 22.378Z" fill="#EDDFBB"/>
<path d="M199.154 22.378C205.333 22.378 210.343 17.3685 210.343 11.189C210.343 5.00949 205.333 0 199.154 0C192.974 0 187.965 5.00949 187.965 11.189C187.965 17.3685 192.974 22.378 199.154 22.378Z" fill="#EDDFBB"/>
<path d="M261.81 22.378C267.99 22.378 272.999 17.3685 272.999 11.189C272.999 5.00949 267.99 0 261.81 0C255.631 0 250.621 5.00949 250.621 11.189C250.621 17.3685 255.631 22.378 261.81 22.378Z" fill="#EDDFBB"/>
<path d="M73.8453 22.378C80.0248 22.378 85.0342 17.3685 85.0342 11.189C85.0342 5.00949 80.0248 0 73.8453 0C67.6657 0 62.6562 5.00949 62.6562 11.189C62.6562 17.3685 67.6657 22.378 73.8453 22.378Z" fill="#EDDFBB"/>
<path d="M11.189 22.378C17.3685 22.378 22.378 17.3685 22.378 11.189C22.378 5.00949 17.3685 0 11.189 0C5.00949 0 0 5.00949 0 11.189C0 17.3685 5.00949 22.378 11.189 22.378Z" fill="#EDDFBB"/>
<path d="M136.502 85.033C142.682 85.033 147.691 80.0235 147.691 73.844C147.691 67.6645 142.682 62.655 136.502 62.655C130.323 62.655 125.313 67.6645 125.313 73.844C125.313 80.0235 130.323 85.033 136.502 85.033Z" fill="#EDDFBB"/>
<path d="M199.154 85.033C205.333 85.033 210.343 80.0235 210.343 73.844C210.343 67.6645 205.333 62.655 199.154 62.655C192.974 62.655 187.965 67.6645 187.965 73.844C187.965 80.0235 192.974 85.033 199.154 85.033Z" fill="#EDDFBB"/>
<path d="M261.81 85.033C267.99 85.033 272.999 80.0235 272.999 73.844C272.999 67.6645 267.99 62.655 261.81 62.655C255.631 62.655 250.621 67.6645 250.621 73.844C250.621 80.0235 255.631 85.033 261.81 85.033Z" fill="#EDDFBB"/>
<path d="M73.8453 85.033C80.0248 85.033 85.0342 80.0235 85.0342 73.844C85.0342 67.6645 80.0248 62.655 73.8453 62.655C67.6657 62.655 62.6562 67.6645 62.6562 73.844C62.6562 80.0235 67.6657 85.033 73.8453 85.033Z" fill="#EDDFBB"/>
<path d="M11.189 85.033C17.3685 85.033 22.378 80.0235 22.378 73.844C22.378 67.6645 17.3685 62.655 11.189 62.655C5.00949 62.655 0 67.6645 0 73.844C0 80.0235 5.00949 85.033 11.189 85.033Z" fill="#EDDFBB"/>
<path d="M136.502 147.689C142.682 147.689 147.691 142.68 147.691 136.5C147.691 130.321 142.682 125.311 136.502 125.311C130.323 125.311 125.313 130.321 125.313 136.5C125.313 142.68 130.323 147.689 136.502 147.689Z" fill="#EDDFBB"/>
<path d="M136.502 210.375C142.682 210.375 147.691 205.366 147.691 199.186C147.691 193.007 142.682 187.997 136.502 187.997C130.323 187.997 125.313 193.007 125.313 199.186C125.313 205.366 130.323 210.375 136.502 210.375Z" fill="#EDDFBB"/>
<path d="M136.502 273.03C142.682 273.03 147.691 268.021 147.691 261.841C147.691 255.662 142.682 250.652 136.502 250.652C130.323 250.652 125.313 255.662 125.313 261.841C125.313 268.021 130.323 273.03 136.502 273.03Z" fill="#EDDFBB"/>
<path d="M199.154 147.689C205.333 147.689 210.343 142.68 210.343 136.5C210.343 130.321 205.333 125.311 199.154 125.311C192.974 125.311 187.965 130.321 187.965 136.5C187.965 142.68 192.974 147.689 199.154 147.689Z" fill="#EDDFBB"/>
<path d="M199.154 210.375C205.333 210.375 210.343 205.366 210.343 199.186C210.343 193.007 205.333 187.997 199.154 187.997C192.974 187.997 187.965 193.007 187.965 199.186C187.965 205.366 192.974 210.375 199.154 210.375Z" fill="#EDDFBB"/>
<path d="M199.154 273.03C205.333 273.03 210.343 268.021 210.343 261.841C210.343 255.662 205.333 250.652 199.154 250.652C192.974 250.652 187.965 255.662 187.965 261.841C187.965 268.021 192.974 273.03 199.154 273.03Z" fill="#EDDFBB"/>
<path d="M261.81 147.689C267.99 147.689 272.999 142.68 272.999 136.5C272.999 130.321 267.99 125.311 261.81 125.311C255.631 125.311 250.621 130.321 250.621 136.5C250.621 142.68 255.631 147.689 261.81 147.689Z" fill="#EDDFBB"/>
<path d="M261.81 210.375C267.99 210.375 272.999 205.366 272.999 199.186C272.999 193.007 267.99 187.997 261.81 187.997C255.631 187.997 250.621 193.007 250.621 199.186C250.621 205.366 255.631 210.375 261.81 210.375Z" fill="#EDDFBB"/>
<path d="M261.81 273.03C267.99 273.03 272.999 268.021 272.999 261.841C272.999 255.662 267.99 250.652 261.81 250.652C255.631 250.652 250.621 255.662 250.621 261.841C250.621 268.021 255.631 273.03 261.81 273.03Z" fill="#EDDFBB"/>
<path d="M73.8453 147.689C80.0248 147.689 85.0342 142.68 85.0342 136.5C85.0342 130.321 80.0248 125.311 73.8453 125.311C67.6657 125.311 62.6562 130.321 62.6562 136.5C62.6562 142.68 67.6657 147.689 73.8453 147.689Z" fill="#EDDFBB"/>
<path d="M73.8453 210.375C80.0248 210.375 85.0342 205.366 85.0342 199.186C85.0342 193.007 80.0248 187.997 73.8453 187.997C67.6657 187.997 62.6562 193.007 62.6562 199.186C62.6562 205.366 67.6657 210.375 73.8453 210.375Z" fill="#EDDFBB"/>
<path d="M73.8453 273.03C80.0248 273.03 85.0342 268.021 85.0342 261.841C85.0342 255.662 80.0248 250.652 73.8453 250.652C67.6657 250.652 62.6562 255.662 62.6562 261.841C62.6562 268.021 67.6657 273.03 73.8453 273.03Z" fill="#EDDFBB"/>
<path d="M11.189 147.689C17.3685 147.689 22.378 142.68 22.378 136.5C22.378 130.321 17.3685 125.311 11.189 125.311C5.00949 125.311 0 130.321 0 136.5C0 142.68 5.00949 147.689 11.189 147.689Z" fill="#EDDFBB"/>
<path d="M11.189 210.375C17.3685 210.375 22.378 205.366 22.378 199.186C22.378 193.007 17.3685 187.997 11.189 187.997C5.00949 187.997 0 193.007 0 199.186C0 205.366 5.00949 210.375 11.189 210.375Z" fill="#EDDFBB"/>
<path d="M11.189 273.03C17.3685 273.03 22.378 268.021 22.378 261.841C22.378 255.662 17.3685 250.652 11.189 250.652C5.00949 250.652 0 255.662 0 261.841C0 268.021 5.00949 273.03 11.189 273.03Z" fill="#EDDFBB"/>
</g>
</g>
<defs>
<clipPath id="clip0_361_4589">
<rect width="273" height="274" fill="white"/>
</clipPath>
</defs>
</svg>
