<svg width="68" height="66" viewBox="0 0 68 66" fill="none" xmlns="http://www.w3.org/2000/svg">
<path fill-rule="evenodd" clip-rule="evenodd" d="M49.2314 7.31069e-05C54.3943 0.0200907 58.9685 3.34298 62.1247 7.38285C64.9213 10.9623 64.413 15.6404 64.9593 20.1311C65.6395 25.7215 68.9476 31.7745 65.651 36.3659C62.1623 41.2251 55.2275 41.4355 49.2314 42.0373C42.2568 42.7371 34.4018 44.5712 29.1023 40.0335C23.6394 35.3558 22.1263 27.1163 23.6479 20.1311C24.9679 14.0711 31.3309 11.1426 36.2365 7.28247C40.2865 4.09563 44.0554 -0.019995 49.2314 7.31069e-05Z" fill="#FFEC9D"/>
<path d="M43.5876 26.561C45.5195 26.561 47.0856 24.9949 47.0856 23.063C47.0856 21.1311 45.5195 19.565 43.5876 19.565C41.6557 19.565 40.0896 21.1311 40.0896 23.063C40.0896 24.9949 41.6557 26.561 43.5876 26.561Z" fill="#333333"/>
<path d="M24.0017 26.561C25.9336 26.561 27.4997 24.9949 27.4997 23.063C27.4997 21.1311 25.9336 19.565 24.0017 19.565C22.0698 19.565 20.5037 21.1311 20.5037 23.063C20.5037 24.9949 22.0698 26.561 24.0017 26.561Z" fill="#333333"/>
<path d="M4.40864 26.561C6.34054 26.561 7.90664 24.9949 7.90664 23.063C7.90664 21.1311 6.34054 19.565 4.40864 19.565C2.47675 19.565 0.910645 21.1311 0.910645 23.063C0.910645 24.9949 2.47675 26.561 4.40864 26.561Z" fill="#333333"/>
<path d="M43.5876 46.151C45.5195 46.151 47.0856 44.5849 47.0856 42.653C47.0856 40.7211 45.5195 39.155 43.5876 39.155C41.6557 39.155 40.0896 40.7211 40.0896 42.653C40.0896 44.5849 41.6557 46.151 43.5876 46.151Z" fill="#333333"/>
<path d="M24.0017 46.151C25.9336 46.151 27.4997 44.5849 27.4997 42.653C27.4997 40.7211 25.9336 39.155 24.0017 39.155C22.0698 39.155 20.5037 40.7211 20.5037 42.653C20.5037 44.5849 22.0698 46.151 24.0017 46.151Z" fill="#333333"/>
<path d="M4.40864 46.151C6.34054 46.151 7.90664 44.5849 7.90664 42.653C7.90664 40.7211 6.34054 39.155 4.40864 39.155C2.47675 39.155 0.910645 40.7211 0.910645 42.653C0.910645 44.5849 2.47675 46.151 4.40864 46.151Z" fill="#333333"/>
<path d="M43.5876 65.742C45.5195 65.742 47.0856 64.1759 47.0856 62.244C47.0856 60.3121 45.5195 58.746 43.5876 58.746C41.6557 58.746 40.0896 60.3121 40.0896 62.244C40.0896 64.1759 41.6557 65.742 43.5876 65.742Z" fill="#333333"/>
<path d="M24.0017 65.742C25.9336 65.742 27.4997 64.1759 27.4997 62.244C27.4997 60.3121 25.9336 58.746 24.0017 58.746C22.0698 58.746 20.5037 60.3121 20.5037 62.244C20.5037 64.1759 22.0698 65.742 24.0017 65.742Z" fill="#333333"/>
<path d="M4.40864 65.742C6.34054 65.742 7.90664 64.1759 7.90664 62.244C7.90664 60.3121 6.34054 58.746 4.40864 58.746C2.47675 58.746 0.910645 60.3121 0.910645 62.244C0.910645 64.1759 2.47675 65.742 4.40864 65.742Z" fill="#333333"/>
</svg>
