<svg width="101" height="100" viewBox="0 0 101 100" fill="none" xmlns="http://www.w3.org/2000/svg">
<g clip-path="url(#clip0_213_880)">
<path d="M95.8125 25H94.25V15.625C94.25 6.875 74.875 0 50.5 0C26.125 0 6.75 6.875 6.75 15.625V25H5.1875C2.59961 25 0.5 27.0977 0.5 29.6875V45.3125C0.5 47.9004 2.59961 50 5.1875 50H6.75V81.25C6.75 84.7012 9.54883 87.5 13 87.5V93.75C13 97.2012 15.7988 100 19.25 100H25.5C28.9512 100 31.75 97.2012 31.75 93.75V87.5H69.25V93.75C69.25 97.2012 72.0488 100 75.5 100H81.75C85.2012 100 88 97.2012 88 93.75V87.5H89.25C92.375 87.5 94.25 85 94.25 82.5V50H95.8125C98.4004 50 100.5 47.9004 100.5 45.3125V29.6875C100.5 27.0977 98.4004 25 95.8125 25ZM22.375 78.125C18.9238 78.125 16.125 75.3262 16.125 71.875C16.125 68.4238 18.9238 65.625 22.375 65.625C25.8262 65.625 28.625 68.4238 28.625 71.875C28.625 75.3262 25.8262 78.125 22.375 78.125ZM25.5 56.25C22.0488 56.25 19.25 53.4512 19.25 50V25C19.25 21.5488 22.0488 18.75 25.5 18.75H75.5C78.9512 18.75 81.75 21.5488 81.75 25V50C81.75 53.4512 78.9512 56.25 75.5 56.25H25.5ZM78.625 78.125C75.1738 78.125 72.375 75.3262 72.375 71.875C72.375 68.4238 75.1738 65.625 78.625 65.625C82.0762 65.625 84.875 68.4238 84.875 71.875C84.875 75.3262 82.0762 78.125 78.625 78.125Z" fill="#333333"/>
</g>
<defs>
<clipPath id="clip0_213_880">
<rect width="100" height="100" fill="white" transform="translate(0.5)"/>
</clipPath>
</defs>
</svg>
