<svg width="88" height="101" viewBox="0 0 88 101" fill="none" xmlns="http://www.w3.org/2000/svg">
<path d="M87.7227 19.127V69.127C87.7227 79.2471 75.6867 87.877 62.3277 87.877L74.6285 97.5881C75.79 98.5053 75.1371 100.377 73.6602 100.377H14.2852C12.8051 100.377 12.1578 98.5031 13.317 97.5881L25.6176 87.877C12.2969 87.877 0.222656 79.2742 0.222656 69.127V19.127C0.222656 8.77168 12.7227 0.376953 25.2227 0.376953H62.7227C75.418 0.376953 87.7227 8.77168 87.7227 19.127ZM39.2852 45.6895V23.8145C39.2852 21.2256 37.1865 19.127 34.5977 19.127H14.2852C11.6963 19.127 9.59766 21.2256 9.59766 23.8145V45.6895C9.59766 48.2783 11.6963 50.377 14.2852 50.377H34.5977C37.1865 50.377 39.2852 48.2783 39.2852 45.6895ZM78.3477 45.6895V23.8145C78.3477 21.2256 76.249 19.127 73.6602 19.127H53.3477C50.7588 19.127 48.6602 21.2256 48.6602 23.8145V45.6895C48.6602 48.2783 50.7588 50.377 53.3477 50.377H73.6602C76.249 50.377 78.3477 48.2783 78.3477 45.6895ZM68.9727 56.627C63.7949 56.627 59.5977 60.8242 59.5977 66.002C59.5977 71.1797 63.7949 75.377 68.9727 75.377C74.1504 75.377 78.3477 71.1797 78.3477 66.002C78.3477 60.8242 74.1504 56.627 68.9727 56.627ZM18.9727 56.627C13.7949 56.627 9.59766 60.8242 9.59766 66.002C9.59766 71.1797 13.7949 75.377 18.9727 75.377C24.1504 75.377 28.3477 71.1797 28.3477 66.002C28.3477 60.8242 24.1504 56.627 18.9727 56.627Z" fill="#333333"/>
</svg>
