<svg width="595" height="148" viewBox="0 0 595 148" fill="none" xmlns="http://www.w3.org/2000/svg">
<path d="M59.1637 10.0506H74.11L131.057 144H112.516L98.8944 111.08H31.9197L18.1086 144H0.135132L59.1637 10.0506ZM66.353 30.4835H65.9746L38.1631 96.323H92.8402L66.353 30.4835Z" fill="#F7F7F7"/>
<path d="M136.303 0.969238H151.061V68.3223H151.439C155.475 63.5294 160.142 59.8086 165.439 57.1598C170.863 54.5111 176.791 53.1868 183.224 53.1868C190.161 53.1868 196.467 54.385 202.143 56.7815C207.945 59.0518 212.864 62.2681 216.9 66.4303C220.936 70.5926 224.089 75.5117 226.36 81.1875C228.63 86.8633 229.765 93.0436 229.765 99.7285C229.765 106.413 228.63 112.594 226.36 118.27C224.089 123.945 220.936 128.864 216.9 133.027C212.99 137.189 208.323 140.468 202.9 142.865C197.476 145.135 191.674 146.27 185.494 146.27C177.548 146.27 170.548 144.567 164.493 141.162C158.565 137.63 154.214 133.342 151.439 128.297H151.061V144H136.303V0.969238ZM151.061 99.7285C151.061 104.395 151.754 108.747 153.142 112.783C154.655 116.693 156.799 120.161 159.574 123.189C162.349 126.09 165.629 128.423 169.412 130.189C173.322 131.828 177.674 132.648 182.467 132.648C187.26 132.648 191.548 131.828 195.332 130.189C199.242 128.423 202.584 126.09 205.359 123.189C208.134 120.161 210.215 116.693 211.603 112.783C213.116 108.747 213.873 104.395 213.873 99.7285C213.873 95.0617 213.116 90.7733 211.603 86.8633C210.215 82.8272 208.134 79.3586 205.359 76.4576C202.584 73.4305 199.242 71.0971 195.332 69.4575C191.548 67.6916 187.26 66.8087 182.467 66.8087C177.674 66.8087 173.322 67.6916 169.412 69.4575C165.629 71.0971 162.349 73.4305 159.574 76.4576C156.799 79.3586 154.655 82.8272 153.142 86.8633C151.754 90.7733 151.061 95.0617 151.061 99.7285Z" fill="#F7F7F7"/>
<path d="M238.46 99.7285C238.46 92.7914 239.658 86.4849 242.054 80.8091C244.451 75.1333 247.73 70.2773 251.892 66.2411C256.055 62.0789 261.037 58.8626 266.839 56.5923C272.641 54.3219 278.947 53.1868 285.758 53.1868C292.569 53.1868 298.876 54.3219 304.678 56.5923C310.48 58.8626 315.462 62.0789 319.624 66.2411C323.786 70.2773 327.066 75.1333 329.462 80.8091C331.858 86.4849 333.057 92.7914 333.057 99.7285C333.057 106.666 331.858 112.972 329.462 118.648C327.066 124.324 323.786 129.243 319.624 133.405C315.462 137.441 310.48 140.594 304.678 142.865C298.876 145.135 292.569 146.27 285.758 146.27C278.947 146.27 272.641 145.135 266.839 142.865C261.037 140.594 256.055 137.441 251.892 133.405C247.73 129.243 244.451 124.324 242.054 118.648C239.658 112.972 238.46 106.666 238.46 99.7285ZM254.352 99.7285C254.352 104.395 255.046 108.747 256.433 112.783C257.947 116.693 260.091 120.161 262.866 123.189C265.641 126.09 268.92 128.423 272.704 130.189C276.614 131.828 280.965 132.648 285.758 132.648C290.551 132.648 294.84 131.828 298.623 130.189C302.533 128.423 305.876 126.09 308.651 123.189C311.426 120.161 313.507 116.693 314.894 112.783C316.408 108.747 317.164 104.395 317.164 99.7285C317.164 95.0617 316.408 90.7733 314.894 86.8633C313.507 82.8272 311.426 79.3586 308.651 76.4576C305.876 73.4305 302.533 71.0971 298.623 69.4575C294.84 67.6916 290.551 66.8087 285.758 66.8087C280.965 66.8087 276.614 67.6916 272.704 69.4575C268.92 71.0971 265.641 73.4305 262.866 76.4576C260.091 79.3586 257.947 82.8272 256.433 86.8633C255.046 90.7733 254.352 95.0617 254.352 99.7285Z" fill="#F7F7F7"/>
<path d="M423.941 122.999C423.941 127.035 424.067 130.819 424.32 134.351C424.572 137.883 424.698 141.099 424.698 144H410.698C410.698 141.603 410.634 139.207 410.508 136.811C410.382 134.414 410.319 131.955 410.319 129.432H409.941C408.932 131.576 407.481 133.657 405.589 135.675C403.824 137.693 401.679 139.522 399.157 141.162C396.634 142.676 393.796 143.874 390.643 144.757C387.49 145.766 384.084 146.27 380.427 146.27C374.625 146.27 369.579 145.387 365.291 143.621C361.129 141.856 357.66 139.396 354.885 136.243C352.11 133.09 350.029 129.306 348.642 124.891C347.381 120.351 346.75 115.432 346.75 110.134V55.4571H361.507V108.621C361.507 116.062 363.147 121.927 366.426 126.216C369.706 130.504 374.814 132.648 381.751 132.648C386.544 132.648 390.643 131.828 394.048 130.189C397.58 128.549 400.418 126.216 402.562 123.189C404.833 120.161 406.472 116.567 407.481 112.404C408.616 108.242 409.184 103.638 409.184 98.5933V55.4571H423.941V122.999Z" fill="#F7F7F7"/>
<path d="M491.16 67.9439H465.051V112.215C465.051 115.116 465.114 117.828 465.241 120.351C465.367 122.747 465.871 124.891 466.754 126.783C467.637 128.549 468.961 130 470.727 131.135C472.493 132.144 475.016 132.648 478.295 132.648C480.439 132.648 482.646 132.396 484.917 131.891C487.187 131.387 489.331 130.63 491.349 129.621L491.917 143.054C489.394 144.189 486.556 145.009 483.403 145.513C480.376 146.018 477.475 146.27 474.7 146.27C469.403 146.27 465.177 145.576 462.024 144.189C458.871 142.802 456.411 140.847 454.646 138.324C452.88 135.801 451.682 132.711 451.051 129.054C450.546 125.27 450.294 121.107 450.294 116.567V67.9439H430.996V55.4571H450.294V30.2943H465.051V55.4571H491.16V67.9439Z" fill="#F7F7F7"/>
<path d="M646.703 92.9175C646.703 100.233 645.757 107.17 643.865 113.729C642.1 120.288 639.199 126.09 635.163 131.135C631.253 136.054 626.081 140.027 619.649 143.054C613.216 145.955 605.396 147.405 596.189 147.405C586.981 147.405 579.161 145.955 572.729 143.054C566.296 140.027 561.062 136.054 557.025 131.135C553.115 126.09 550.215 120.288 548.323 113.729C546.557 107.17 545.674 100.233 545.674 92.9175V10.0506H561.566V90.6472C561.566 96.0707 562.134 101.305 563.269 106.35C564.404 111.395 566.296 115.873 568.945 119.783C571.593 123.693 575.125 126.846 579.54 129.243C583.954 131.513 589.504 132.648 596.189 132.648C602.873 132.648 608.423 131.513 612.838 129.243C617.252 126.846 620.784 123.693 623.433 119.783C626.081 115.873 627.973 111.395 629.108 106.35C630.244 101.305 630.811 96.0707 630.811 90.6472V10.0506H646.703V92.9175Z" fill="#F7F7F7"/>
<path d="M669.544 120.729C672.445 124.387 675.599 127.288 679.004 129.432C682.536 131.576 686.95 132.648 692.248 132.648C694.518 132.648 696.788 132.396 699.059 131.891C701.455 131.387 703.599 130.567 705.491 129.432C707.383 128.297 708.897 126.909 710.032 125.27C711.167 123.504 711.735 121.423 711.735 119.026C711.735 116.63 711.167 114.675 710.032 113.161C709.023 111.648 707.636 110.386 705.87 109.377C704.104 108.242 702.086 107.359 699.816 106.729C697.545 106.098 695.212 105.53 692.815 105.026C688.653 104.143 684.68 103.134 680.896 101.999C677.112 100.864 673.77 99.4132 670.869 97.6474C668.094 95.7554 665.824 93.359 664.058 90.458C662.418 87.557 661.598 83.8362 661.598 79.2955C661.598 75.0072 662.544 71.2233 664.436 67.9439C666.328 64.6645 668.851 61.9528 672.004 59.8086C675.157 57.6644 678.689 56.0247 682.599 54.8895C686.509 53.7544 690.545 53.1868 694.707 53.1868C701.014 53.1868 706.816 54.4481 712.113 56.9707C717.537 59.4932 721.762 63.5924 724.789 69.2683L712.492 77.4036C710.6 74.2504 708.077 71.7278 704.924 69.8358C701.897 67.8178 698.176 66.8087 693.761 66.8087C691.743 66.8087 689.662 67.061 687.518 67.5655C685.5 68.07 683.671 68.8268 682.031 69.8358C680.392 70.8449 679.004 72.1692 677.869 73.8089C676.86 75.3225 676.355 77.0883 676.355 79.1064C676.355 80.9983 676.923 82.638 678.058 84.0254C679.32 85.2867 680.959 86.4218 682.977 87.4309C685.121 88.4399 687.518 89.3228 690.167 90.0796C692.941 90.8364 695.779 91.467 698.68 91.9715C702.59 92.7283 706.311 93.7373 709.843 94.9986C713.374 96.1338 716.465 97.7104 719.113 99.7285C721.762 101.747 723.843 104.269 725.357 107.296C726.87 110.323 727.627 114.044 727.627 118.459C727.627 123.504 726.618 127.792 724.6 131.324C722.582 134.856 719.87 137.756 716.465 140.027C713.185 142.171 709.401 143.748 705.113 144.757C700.951 145.766 696.662 146.27 692.248 146.27C684.68 146.27 678.121 145.135 672.572 142.865C667.148 140.468 662.229 136.117 657.815 129.81L669.544 120.729Z" fill="#F7F7F7"/>
</svg>
