<svg width="490" height="282" viewBox="0 0 490 282" fill="none" xmlns="http://www.w3.org/2000/svg">
<path fill-rule="evenodd" clip-rule="evenodd" d="M264.69 258.835C291.502 230.935 307.984 193.033 307.984 151.282C307.984 109.009 291.088 70.6821 263.681 42.6869C281.434 30.5216 302.35 22.6869 324.931 20.6921C350.481 16.2098 371.805 0 371.805 0C371.805 0 383.221 24.0991 404.466 39.6187L404.363 39.5933C430.221 55.6998 450.022 80.7213 459.532 110.396L459.535 109.958C469.265 134.279 489.998 151.951 489.998 151.951C489.998 151.951 469.798 168.549 459.022 192.001C441.785 243.535 393.392 280.649 336.388 280.649C309.869 280.649 285.212 272.616 264.69 258.835ZM319.967 39.9035C345.762 34.2753 366.678 19.5423 366.678 19.5423C366.678 19.5423 377.417 39.9798 396.025 55.7285C416.688 68.6652 432.839 88.1415 441.579 111.258C452.813 134.084 471.692 150.083 471.692 150.083C471.692 150.083 451.629 169.071 440.509 193.363C423.777 234.337 383.53 263.21 336.538 263.21C319.597 263.21 303.531 259.457 289.129 252.737C312.703 225.512 326.966 190.004 326.966 151.164C326.966 112.179 312.596 76.5504 288.863 49.2861C298.554 44.7335 309.002 41.5258 319.967 39.9035Z" fill="#EEEEEE" fill-opacity="0.2"/>
<path fill-rule="evenodd" clip-rule="evenodd" d="M361.032 97.4675C362.19 96.9223 363.571 97.419 364.116 98.5769L372.908 117.249C373.453 118.407 372.956 119.787 371.798 120.333C370.64 120.878 369.26 120.381 368.714 119.223L359.923 100.551C359.378 99.3933 359.874 98.0127 361.032 97.4675Z" fill="#EEEEEE" fill-opacity="0.2"/>
<path fill-rule="evenodd" clip-rule="evenodd" d="M364.713 124.865C363.743 125.7 362.28 125.591 361.445 124.621L347.951 108.958C347.116 107.988 347.225 106.525 348.195 105.69C349.164 104.854 350.628 104.963 351.463 105.933L364.956 121.596C365.791 122.566 365.682 124.029 364.713 124.865Z" fill="#EEEEEE" fill-opacity="0.2"/>
<path fill-rule="evenodd" clip-rule="evenodd" d="M416.8 184.628C415.819 185.449 414.357 185.319 413.536 184.337L400.123 168.307C399.302 167.325 399.432 165.864 400.414 165.042C401.395 164.221 402.857 164.351 403.678 165.333L417.091 181.363C417.912 182.345 417.782 183.806 416.8 184.628Z" fill="#EEEEEE" fill-opacity="0.2"/>
<path fill-rule="evenodd" clip-rule="evenodd" d="M393.323 169.585C394.487 169.052 395.862 169.564 396.394 170.728L405.105 189.767C405.638 190.931 405.126 192.306 403.962 192.838C402.798 193.371 401.423 192.859 400.891 191.695L392.18 172.656C391.647 171.492 392.159 170.117 393.323 169.585Z" fill="#EEEEEE" fill-opacity="0.2"/>
<path d="M396.099 122.251C392.436 124.91 387.52 123.638 385.085 119.832C382.65 116.026 382.883 111.459 387.728 108.675C391.758 106.096 396.164 107.064 398.599 110.87C401.321 115.124 400.353 119.53 396.099 122.251Z" fill="#EEEEEE" fill-opacity="0.2"/>
<path d="M417.046 153.022C413.688 155.171 410.733 155.484 407.671 153.657C404.975 151.91 402.889 149.143 403.982 145.919C404.771 143.206 406.293 140.654 409.266 139.383C411.792 138.398 413.851 138.658 416.26 139.957C421.731 143.083 420.996 150.811 417.046 153.022Z" fill="#EEEEEE" fill-opacity="0.2"/>
<path d="M377.253 144.884C376.542 147.243 378.101 149.68 380.541 150.022L391.519 151.563C394.917 152.04 397.31 148.311 395.46 145.42L387.684 133.266C385.834 130.376 381.446 130.986 380.455 134.271L377.253 144.884Z" fill="#EEEEEE" fill-opacity="0.2"/>
<path fill-rule="evenodd" clip-rule="evenodd" d="M387.237 141.671C388.326 142.985 388.143 144.933 386.829 146.022C383.873 148.471 379.004 150.583 373.82 150.443C368.41 150.297 362.848 147.69 359.032 141.062C358.181 139.584 358.689 137.694 360.168 136.843C361.647 135.991 363.536 136.5 364.388 137.979C367.106 142.7 370.677 144.177 373.987 144.266C377.522 144.361 380.96 142.86 382.886 141.263C384.2 140.175 386.148 140.357 387.237 141.671Z" fill="#EEEEEE" fill-opacity="0.2"/>
<path fill-rule="evenodd" clip-rule="evenodd" d="M387.695 142.391C386.958 140.851 385.113 140.201 383.574 140.938C380.111 142.595 376.153 146.131 374.108 150.897C371.973 155.87 372.01 162.012 376.429 168.254C377.415 169.647 379.343 169.977 380.736 168.991C382.129 168.005 382.458 166.077 381.472 164.684C378.325 160.237 378.481 156.376 379.787 153.334C381.181 150.084 383.986 147.592 386.242 146.512C387.781 145.775 388.432 143.93 387.695 142.391Z" fill="#EEEEEE" fill-opacity="0.2"/>
<path fill-rule="evenodd" clip-rule="evenodd" d="M154.379 281.365C226.303 281.365 284.609 223.059 284.609 151.135C284.609 79.211 226.303 20.9049 154.379 20.9049C95.517 20.9049 45.7762 59.9553 29.6501 113.562C18.2996 135.712 0 150.874 0 150.874C0 150.874 18.3168 166.313 29.6662 188.761C45.8092 242.341 95.5365 281.365 154.379 281.365ZM154.425 262.285C215.955 262.285 265.834 212.405 265.834 150.876C265.834 89.346 215.955 39.4664 154.425 39.4664C104.231 39.4664 61.79 72.6604 47.8558 118.294C36.4845 138.427 20.2504 152.11 20.2504 152.11C20.2504 152.11 38.8683 167.802 50.1938 190.303C66.116 232.373 106.778 262.285 154.425 262.285Z" fill="#EEEEEE" fill-opacity="0.2"/>
<path d="M183.309 126.433C183.594 131.272 179.609 134.972 174.77 134.972C169.931 134.972 165.946 132.126 166.23 126.148C166.23 121.024 169.646 117.609 174.485 117.609C179.893 117.609 183.309 121.024 183.309 126.433Z" fill="#EEEEEE" fill-opacity="0.2"/>
<path d="M223.16 125.295C223.16 129.564 221.737 132.411 218.321 134.119C215.19 135.542 211.489 135.827 209.212 132.98C207.22 130.703 205.796 127.857 206.366 124.441C206.935 121.594 208.358 119.886 210.92 118.463C216.898 115.332 223.445 120.456 223.16 125.295Z" fill="#EEEEEE" fill-opacity="0.2"/>
<path d="M192.319 156.53C194.019 158.514 197.089 158.514 198.789 156.53L206.603 147.413C208.973 144.649 207.009 140.379 203.368 140.379H187.74C184.1 140.379 182.136 144.649 184.505 147.413L192.319 156.53Z" fill="#EEEEEE" fill-opacity="0.2"/>
<path fill-rule="evenodd" clip-rule="evenodd" d="M195.19 152.78C196.989 152.58 198.609 153.877 198.809 155.676C199.383 160.837 197.69 166.745 193.916 171.017C190.006 175.444 183.94 178.006 176.338 176.317C171.172 175.169 160.879 169.596 159.556 156.364C159.375 154.563 160.69 152.956 162.491 152.776C164.292 152.596 165.899 153.91 166.079 155.712C167.033 165.251 174.387 169.167 177.761 169.917C182.968 171.074 186.628 169.366 189.003 166.677C191.515 163.833 192.669 159.778 192.294 156.4C192.094 154.601 193.39 152.98 195.19 152.78Z" fill="#EEEEEE" fill-opacity="0.2"/>
<path fill-rule="evenodd" clip-rule="evenodd" d="M196.001 152.78C194.202 152.58 192.581 153.877 192.381 155.676C191.808 160.837 193.5 166.745 197.274 171.017C201.185 175.444 207.251 178.006 214.852 176.317C220.018 175.169 230.312 169.596 231.635 156.364C231.815 154.563 230.501 152.956 228.699 152.776C226.898 152.596 225.292 153.91 225.112 155.712C224.158 165.251 216.803 169.167 213.43 169.917C208.222 171.074 204.563 169.366 202.187 166.677C199.675 163.833 198.521 159.778 198.897 156.4C199.097 154.601 197.8 152.98 196.001 152.78Z" fill="#EEEEEE" fill-opacity="0.2"/>
<path fill-rule="evenodd" clip-rule="evenodd" d="M119.017 103.087C120.293 105.19 119.624 107.93 117.521 109.207C96.6716 121.865 90.5627 132.491 87.0283 141.112C86.4301 142.571 85.8863 144.063 85.3377 145.569C82.6415 152.967 79.8298 160.683 69.894 166.298L69.7954 166.354L69.6942 166.405C54.7673 173.868 41.6548 171.151 32.0031 166.05C22.8072 161.19 16.644 154.129 14.6267 151.817C14.5659 151.748 14.509 151.682 14.4558 151.622C12.8357 149.77 13.0233 146.956 14.8749 145.335C16.7264 143.715 19.5408 143.903 21.1609 145.755C21.2004 145.8 21.2415 145.847 21.2844 145.896C23.1848 148.07 28.4503 154.095 36.1663 158.173C43.8551 162.237 53.85 164.325 65.6076 158.487C72.4145 154.607 74.0455 150.235 76.6533 143.246C77.2792 141.569 77.9613 139.741 78.7847 137.732C83.0583 127.309 90.4568 115.215 112.897 101.591C115 100.314 117.74 100.984 119.017 103.087Z" fill="#EEEEEE" fill-opacity="0.2"/>
</svg>
