<svg width="76" height="76" viewBox="0 0 76 76" fill="none" xmlns="http://www.w3.org/2000/svg">
<path d="M25.7188 28.1484C25.6724 28.1484 25.6208 28.1484 25.5744 28.1381C25.5383 28.1381 25.4867 28.1277 25.4351 28.1174C25.4042 28.1123 25.3578 28.102 25.3113 28.0865C25.2701 28.0762 25.2288 28.0555 25.1875 28.0401C25.1308 28.0194 25.0947 27.9988 25.0586 27.9782C25.0225 27.9575 24.9812 27.9317 24.9399 27.9059C24.909 27.8853 24.8729 27.8595 24.8419 27.8337C24.8007 27.8028 24.7646 27.7667 24.7284 27.7306C24.7027 27.7048 24.6717 27.6687 24.6459 27.6377C24.6201 27.6068 24.5943 27.5707 24.5685 27.5294C24.5428 27.4933 24.517 27.452 24.4963 27.4108C24.4809 27.3798 24.4602 27.3334 24.4396 27.287C24.4241 27.2457 24.4086 27.2044 24.3932 27.158C24.3777 27.1116 24.3674 27.0652 24.3571 27.0187C24.3519 26.9878 24.3416 26.9414 24.3416 26.8949C24.3416 26.8433 24.3364 26.8021 24.3364 26.7557C24.3364 26.7092 24.3364 26.668 24.3416 26.6215C24.3416 26.57 24.3519 26.5287 24.3622 26.4874C24.3725 26.4462 24.3828 26.3997 24.3983 26.3533C24.4086 26.3172 24.4241 26.2708 24.4447 26.2295C24.4654 26.1883 24.4809 26.147 24.5015 26.1057C24.5221 26.0645 24.5479 26.0284 24.5685 25.9922C24.5943 25.951 24.6201 25.9149 24.6459 25.8839C24.6769 25.8478 24.7027 25.8169 24.7336 25.7859C24.7697 25.7498 24.8007 25.7189 24.8368 25.6931C24.8729 25.6621 24.909 25.6363 24.9451 25.6157C24.9812 25.5951 25.0225 25.5693 25.0637 25.5435C25.0998 25.5228 25.1463 25.5022 25.1875 25.4867C25.2288 25.4713 25.2752 25.4558 25.3165 25.4403C25.3578 25.43 25.4042 25.4145 25.4506 25.4094C25.4919 25.3991 25.5331 25.3939 25.5744 25.3887C25.6311 25.3836 25.6724 25.3784 25.7188 25.3784C25.7653 25.3784 25.8065 25.3784 25.8478 25.3836C25.9045 25.3887 25.9458 25.3939 25.9871 25.4042C26.0283 25.4145 26.0747 25.4248 26.1212 25.4403C26.1624 25.4558 26.2089 25.4661 26.2501 25.4867C26.2914 25.5074 26.3378 25.528 26.3842 25.5486C26.41 25.5641 26.4513 25.5899 26.4926 25.6157C26.5338 25.6415 26.5751 25.6724 26.6112 25.7034C26.6318 25.724 26.6679 25.7498 26.6989 25.7808C26.7402 25.822 26.7711 25.8581 26.7969 25.8891C26.8278 25.9252 26.8536 25.9613 26.8794 26.0026C26.9001 26.0387 26.9258 26.0748 26.9465 26.116C26.9671 26.1573 26.9877 26.1986 27.0084 26.245C27.0239 26.2811 27.0393 26.3275 27.0548 26.374C27.0703 26.4152 27.0806 26.4616 27.0858 26.5029C27.0961 26.5493 27.1012 26.5958 27.1064 26.6422C27.1064 26.6783 27.1115 26.7247 27.1115 26.7711C27.1115 26.8176 27.1115 26.864 27.1064 26.9104C27.1064 26.9465 27.0961 26.9981 27.0858 27.0445C27.0754 27.0806 27.0651 27.1271 27.0548 27.1683C27.0393 27.2199 27.0239 27.2663 27.0032 27.3127C26.9877 27.3489 26.9671 27.3901 26.9465 27.4314C26.931 27.4623 26.9052 27.5036 26.8794 27.5397C26.8536 27.5758 26.8227 27.6171 26.7917 27.6583C26.7711 27.6841 26.7402 27.7202 26.7092 27.7512C26.6731 27.7873 26.637 27.8183 26.6009 27.8492C26.5751 27.8698 26.5338 27.9008 26.4977 27.9266C26.4564 27.9524 26.4152 27.9782 26.3739 27.9988C26.3481 28.0091 26.312 28.0297 26.2708 28.0504C26.214 28.071 26.1727 28.0916 26.1315 28.102C26.0851 28.1174 26.0386 28.1277 25.9922 28.1381C25.9561 28.1432 25.9045 28.1535 25.8581 28.1587C25.822 28.1587 25.7756 28.1639 25.7291 28.1639L25.7188 28.1484Z" fill="#333333"/>
<path d="M32.9765 25.1256C32.93 25.1256 32.8888 25.1256 32.8475 25.1205C32.7959 25.1205 32.7547 25.1102 32.7134 25.0998C32.667 25.0895 32.6205 25.0792 32.5741 25.0637C32.5329 25.0534 32.4916 25.0379 32.4452 25.0173C32.4091 25.0018 32.3678 24.9812 32.3265 24.9606C32.2749 24.9348 32.2337 24.909 32.1976 24.8832C32.1666 24.8626 32.1305 24.8368 32.0944 24.8058C32.0531 24.7697 32.017 24.7388 31.9861 24.7078C31.9603 24.682 31.9293 24.6511 31.9035 24.615C31.8778 24.584 31.852 24.5479 31.8262 24.5118C31.7952 24.4654 31.7746 24.4293 31.7488 24.388C31.7282 24.3519 31.7127 24.3106 31.6921 24.2694C31.6766 24.2281 31.656 24.1817 31.6456 24.1404C31.6353 24.0992 31.6198 24.0527 31.6095 24.0063C31.6044 23.9702 31.5941 23.9238 31.5889 23.8825C31.5837 23.8309 31.5837 23.7845 31.5837 23.7432C31.5837 23.702 31.5837 23.6556 31.5889 23.6143C31.5889 23.5627 31.5992 23.5163 31.6095 23.475C31.6198 23.4337 31.6302 23.3822 31.6456 23.3357C31.656 23.2996 31.6714 23.2584 31.6921 23.2171C31.7075 23.1758 31.7282 23.1346 31.7488 23.0933C31.7694 23.0572 31.7952 23.0159 31.8159 22.9798C31.8417 22.9386 31.8674 22.9025 31.8984 22.8715C31.9242 22.8406 31.9551 22.8044 31.9861 22.7735C32.0119 22.7477 32.048 22.7168 32.0841 22.6858C32.1254 22.6497 32.1615 22.6239 32.1976 22.5981C32.2285 22.5775 32.2698 22.5517 32.3059 22.5311C32.3575 22.5001 32.3987 22.4846 32.44 22.4692C32.4813 22.4485 32.5277 22.4382 32.569 22.4227C32.6154 22.4073 32.6566 22.3969 32.7031 22.3866C32.7443 22.3763 32.7908 22.3712 32.8372 22.366C32.8785 22.366 32.9249 22.3608 32.9661 22.3608C33.0074 22.3608 33.0538 22.3608 33.1003 22.366C33.1415 22.366 33.1879 22.3763 33.2344 22.3866C33.2756 22.3969 33.3221 22.4073 33.3633 22.4176C33.4097 22.4331 33.451 22.4485 33.4923 22.464C33.5335 22.4846 33.5748 22.5001 33.6161 22.5207C33.6625 22.5465 33.6986 22.5672 33.7347 22.593C33.776 22.6187 33.8121 22.6497 33.8482 22.6806C33.8791 22.7064 33.9153 22.7374 33.941 22.7683C33.972 22.7993 34.0029 22.8354 34.0339 22.8715C34.0597 22.9076 34.0906 22.9437 34.1164 22.9798C34.1371 23.0108 34.1628 23.052 34.1835 23.0985C34.199 23.1294 34.2196 23.1707 34.2351 23.2119C34.2557 23.2635 34.2763 23.3099 34.2866 23.3512C34.297 23.3925 34.3124 23.4389 34.3176 23.4853C34.3228 23.5214 34.3331 23.573 34.3382 23.6246C34.3382 23.6555 34.3434 23.702 34.3434 23.7484C34.3434 23.7948 34.3434 23.8412 34.3382 23.8877C34.3382 23.9238 34.3279 23.9754 34.3176 24.0269C34.3124 24.0579 34.297 24.1043 34.2866 24.1507C34.2763 24.192 34.2557 24.2333 34.2402 24.2797C34.2196 24.3313 34.199 24.3674 34.1835 24.4035C34.1628 24.4448 34.1371 24.486 34.1113 24.5273C34.0906 24.5531 34.0648 24.5943 34.0339 24.6305C34.0029 24.6666 33.9772 24.6975 33.9462 24.7285C33.9153 24.7594 33.8791 24.7904 33.8482 24.8161C33.8172 24.8419 33.776 24.8729 33.7347 24.8987C33.6934 24.9245 33.6573 24.9451 33.6212 24.9657C33.5748 24.9915 33.5335 25.0122 33.4923 25.0276C33.451 25.0431 33.4097 25.0586 33.3633 25.0741C33.3221 25.0895 33.2756 25.0998 33.2292 25.105C33.1879 25.1153 33.1415 25.1205 33.1003 25.1256C33.0435 25.1308 33.0022 25.1308 32.961 25.1308L32.9765 25.1256Z" fill="#333333"/>
<path d="M40.2289 28.1483C40.1825 28.1483 40.1309 28.1483 40.0845 28.1432C40.0484 28.1432 39.9968 28.1329 39.9452 28.1226C39.9143 28.1174 39.8679 28.1071 39.8214 28.0916C39.775 28.0761 39.7337 28.0607 39.6925 28.0452C39.6357 28.0246 39.5996 28.0039 39.5635 27.9833C39.5223 27.9627 39.481 27.9369 39.4449 27.9111C39.4139 27.8904 39.3778 27.8646 39.3417 27.8337C39.3056 27.8079 39.2747 27.777 39.2437 27.746C39.2024 27.7047 39.1767 27.6738 39.1457 27.6377C39.1251 27.6119 39.0941 27.5706 39.0683 27.5345C39.0425 27.4933 39.0167 27.452 38.9961 27.4107C38.9806 27.3849 38.96 27.3385 38.9394 27.2869C38.9239 27.2508 38.9084 27.2096 38.8981 27.1631C38.8826 27.1167 38.8723 27.0754 38.862 27.029C38.8517 26.9877 38.8465 26.9465 38.8414 26.9052C38.8362 26.8433 38.8311 26.8021 38.8311 26.7608C38.8311 26.7195 38.8311 26.6731 38.8362 26.6318C38.8414 26.5699 38.8465 26.5287 38.8568 26.4874C38.8672 26.4461 38.8775 26.3997 38.8878 26.3584C38.9033 26.312 38.9187 26.2708 38.9342 26.2295C38.9497 26.1882 38.9703 26.1418 38.9961 26.1005C39.0116 26.0696 39.0374 26.0283 39.0632 25.9922C39.089 25.9509 39.1148 25.9148 39.1405 25.8839C39.1663 25.8529 39.1973 25.822 39.2282 25.791C39.2747 25.7446 39.3056 25.7188 39.3366 25.693C39.3675 25.6672 39.4036 25.6415 39.4397 25.6157C39.4861 25.5847 39.5223 25.5641 39.5635 25.5434C39.6048 25.5228 39.6461 25.5022 39.6925 25.4816C39.7337 25.4661 39.775 25.4506 39.8214 25.4351C39.8627 25.4197 39.9091 25.4093 39.9555 25.4042C39.9968 25.3939 40.0381 25.3887 40.0793 25.3835C40.1361 25.3784 40.1773 25.3732 40.2238 25.3732C40.2702 25.3732 40.3115 25.3732 40.3527 25.3784C40.4095 25.3835 40.4507 25.3887 40.492 25.399C40.5333 25.4093 40.5797 25.4197 40.6261 25.43C40.6725 25.4454 40.7138 25.4609 40.7551 25.4764C40.7963 25.497 40.8428 25.5177 40.8892 25.5383C40.915 25.5538 40.9562 25.5796 40.9975 25.6053C41.0336 25.626 41.0697 25.6518 41.1007 25.6827C41.1368 25.7137 41.1677 25.7395 41.1987 25.7704C41.2348 25.8065 41.2657 25.8375 41.2915 25.8736C41.3225 25.9097 41.3483 25.9458 41.3741 25.9819C41.405 26.0232 41.4256 26.0644 41.4463 26.1057C41.4617 26.1418 41.4875 26.1831 41.503 26.2295C41.5185 26.2656 41.534 26.3069 41.5494 26.3533C41.5649 26.3997 41.5752 26.4461 41.5855 26.4874C41.5907 26.5235 41.601 26.5751 41.6062 26.6267C41.6062 26.6576 41.6113 26.704 41.6113 26.7556C41.6113 26.8072 41.6113 26.8536 41.6062 26.9001C41.6062 26.931 41.5959 26.9826 41.5855 27.0342C41.5804 27.0651 41.5701 27.1115 41.5546 27.1528C41.5391 27.2044 41.5185 27.2508 41.503 27.2972C41.4875 27.3333 41.4669 27.3798 41.4411 27.421C41.4256 27.4417 41.405 27.4881 41.3792 27.5242C41.3534 27.5655 41.3225 27.6016 41.2915 27.6428C41.2657 27.6738 41.2348 27.7047 41.2038 27.7357C41.1729 27.7666 41.1368 27.7976 41.1007 27.8285C41.0646 27.8595 41.0233 27.8904 40.982 27.9162C40.9614 27.9317 40.915 27.9575 40.8685 27.9833C40.8428 27.9936 40.8066 28.0142 40.7602 28.0349C40.7035 28.0555 40.6622 28.071 40.6209 28.0864C40.5745 28.1019 40.5281 28.1122 40.4817 28.1226C40.4456 28.1277 40.394 28.138 40.3476 28.1432C40.3115 28.1432 40.265 28.1483 40.2186 28.1483H40.2289Z" fill="#333333"/>
<path d="M29.0046 41.4462C28.1122 41.4462 27.2611 41.1573 26.539 40.6106C25.497 39.8265 24.9038 38.6298 24.9038 37.3248V36.9998C24.9038 32.5483 28.5249 28.9324 32.9764 28.9324C37.4279 28.9324 41.049 32.5534 41.049 36.9998V37.3248C41.049 38.6246 40.4506 39.8265 39.4138 40.6106C38.6917 41.1573 37.8406 41.441 36.9482 41.441C36.5665 41.441 36.1797 41.3843 35.8031 41.2811C34.8849 41.0181 33.9307 40.8839 32.9764 40.8839C32.0221 40.8839 31.0679 41.0181 30.1497 41.2811C29.7732 41.3894 29.3914 41.441 29.0046 41.441V41.4462ZM32.9764 31.7126C30.0569 31.7126 27.6841 34.0854 27.6841 37.005V37.3299C27.6841 37.7529 27.8749 38.1398 28.2154 38.3925C28.4527 38.5731 28.726 38.6659 29.0149 38.6659C29.1387 38.6659 29.2677 38.6453 29.3914 38.6143C30.5572 38.279 31.7694 38.1088 32.9816 38.1088C34.1937 38.1088 35.4008 38.279 36.5717 38.6143C36.6955 38.6504 36.8193 38.6659 36.9431 38.6659C37.2268 38.6659 37.5053 38.5731 37.7374 38.3977C38.083 38.1398 38.2739 37.7529 38.2739 37.3248V36.9998C38.2739 34.0803 35.9011 31.7075 32.9816 31.7075L32.9764 31.7126Z" fill="#333333"/>
<path d="M32.9867 65.4577C14.7989 65.4577 0 50.8754 0 32.9558C0 28.5507 0.882054 24.2539 2.62037 20.1944C4.29679 16.2793 6.68504 12.7511 9.72838 9.71291C12.7666 6.67472 16.2948 4.28647 20.215 2.61521C24.2797 0.876896 28.5765 0 32.9867 0C50.9992 0 65.6588 14.7164 65.6588 32.8062C65.6588 33.5696 65.0347 34.1938 64.2713 34.1938C63.5079 34.1938 62.8837 33.5696 62.8837 32.8062C62.8837 16.2484 49.4724 2.77512 32.9919 2.77512C25.007 2.77512 17.4451 5.9371 11.6988 11.6782C5.94226 17.4141 2.78027 24.9709 2.78027 32.9558C2.78027 49.3486 16.3309 62.6826 32.9867 62.6826C33.7553 62.6826 34.3743 63.3067 34.3743 64.0701C34.3743 64.8335 33.7502 65.4577 32.9867 65.4577Z" fill="#333333"/>
<path d="M64.2661 45.0157C63.8018 45.0157 63.3685 44.7836 63.1106 44.3967L58.298 37.1804C58.0917 36.8709 58.0195 36.5046 58.0917 36.1384C58.1639 35.7722 58.3754 35.4627 58.6849 35.2563C58.917 35.1016 59.1801 35.0242 59.4535 35.0242C59.9229 35.0242 60.351 35.2563 60.6141 35.6432L64.2712 41.1264L67.9284 35.6432C68.1863 35.2563 68.6196 35.0242 69.089 35.0242C69.3624 35.0242 69.6306 35.1068 69.8576 35.2563C70.492 35.6793 70.6674 36.5459 70.2444 37.1804L65.4318 44.3967C65.1739 44.7836 64.7406 45.0157 64.2764 45.0157H64.2661Z" fill="#333333"/>
<path d="M64.2661 45.0157C63.5027 45.0157 62.8785 44.3915 62.8785 43.6281V32.8062C62.8785 32.0428 63.5027 31.4186 64.2661 31.4186C65.0295 31.4186 65.6537 32.0428 65.6537 32.8062V43.6281C65.6537 44.3915 65.0295 45.0157 64.2661 45.0157Z" fill="#333333"/>
<path d="M1.54234 34.3434C0.77377 34.3434 0.154785 33.7192 0.154785 32.9558C0.154785 32.1924 0.778928 31.5682 1.54234 31.5682H8.79478C9.56336 31.5682 10.1823 32.1924 10.1823 32.9558C10.1823 33.7192 9.5582 34.3434 8.79478 34.3434H1.54234Z" fill="#333333"/>
<path d="M32.9764 10.1772C32.2079 10.1772 31.5889 9.55301 31.5889 8.78959V1.54747C31.5889 0.784055 32.213 0.159912 32.9764 0.159912C33.7398 0.159912 34.364 0.784055 34.364 1.54747V8.78444C34.364 9.54785 33.7398 10.172 32.9764 10.172V10.1772Z" fill="#333333"/>
<path d="M49.8129 75.1102C46.8985 75.0956 46.6509 75.0176 46.4858 74.9688C46.0061 74.8176 45.6605 74.4909 45.5161 74.0472C45.2943 73.3888 45.6244 72.8475 45.9545 72.3891C46.1918 72.0575 46.5529 71.5991 47.0997 70.9067C48.1932 69.5168 50.0192 67.2005 52.9336 63.2651C53.9136 61.9436 54.5481 60.7488 54.8267 59.715L54.8421 59.6662L54.9195 59.0859V59.0177C54.8318 57.1158 53.1863 55.6285 51.1746 55.6285C49.3899 55.6285 47.8424 56.8281 47.4968 58.4812C47.3679 59.0957 46.7953 59.5394 46.1351 59.5394C46.0474 59.5394 45.9545 59.5297 45.8668 59.5151C45.5006 59.4468 45.186 59.2517 44.9796 58.9591C44.7733 58.6665 44.6959 58.3203 44.7681 57.9741C45.3665 55.092 48.0591 53 51.1746 53C54.7751 53 57.6998 55.765 57.6998 59.1688C57.6998 59.2225 57.6998 59.2761 57.6895 59.3298L57.5915 60.0661C57.5863 60.11 57.5811 60.1441 57.5708 60.1783C57.2252 61.5876 56.436 63.1237 55.2187 64.772C53.4804 67.1225 51.8916 69.2145 50.3648 71.1602L49.328 72.4867H51.0715C52.8717 72.4818 55.0742 72.4672 57.1427 72.4428C57.9164 72.4428 58.5406 73.0231 58.5509 73.7399C58.5612 74.4617 57.9422 75.0615 57.1788 75.0712C54.4604 75.1054 52.3404 75.12 50.7001 75.12H49.8232L49.8129 75.1102Z" fill="#4ECBD3"/>
<path d="M71.5805 75.5575C70.8016 75.5523 70.1826 74.923 70.1929 74.1544L70.229 69.739H62.0275C61.5374 69.739 61.0784 69.4759 60.8308 69.0581C60.5832 68.6351 60.5728 68.109 60.8101 67.6809C63.9257 62.0326 67.5571 55.6365 68.3875 54.6151C69.0065 53.8517 69.7803 53.4339 70.5643 53.4339C70.7861 53.4339 71.0027 53.47 71.2194 53.5319C72.2098 53.8414 72.9216 54.8215 73.0196 56.0388C73.0454 56.338 73.0815 58.0453 73.0351 66.0818V66.9639H74.2369C75.0004 66.9639 75.6245 67.588 75.6245 68.3514C75.6245 69.1149 75.0004 69.739 74.2369 69.739H73.0093L72.9732 74.1802C72.968 74.923 72.3748 75.5265 71.6372 75.5575H71.5856H71.5805ZM68.6351 59.4587C67.6705 61.1145 66.4171 63.317 65.1069 65.6589L64.3744 66.9639H70.2393V66.0921C70.2548 63.8174 70.2651 61.6303 70.2703 59.8971V56.6371L68.6351 59.4535V59.4587Z" fill="#4ECBD3"/>
</svg>
