<svg width="78" height="78" viewBox="0 0 78 78" fill="none" xmlns="http://www.w3.org/2000/svg">
<g clip-path="url(#clip0_428_1074)">
<mask id="mask0_428_1074" style="mask-type:luminance" maskUnits="userSpaceOnUse" x="0" y="0" width="78" height="78">
<path d="M77.6866 0.313477L0.313477 0.313477L0.313477 77.6866L77.6866 77.6866L77.6866 0.313477Z" fill="white"/>
</mask>
<g mask="url(#mask0_428_1074)">
<path d="M55.9246 76.8098C46.9441 76.8098 38.985 71.0842 36.1222 62.5628L35.6734 61.2217L30.3141 66.581C30.051 66.8441 29.7002 66.9885 29.334 66.9885C28.9678 66.9885 28.6119 66.8441 28.3488 66.581L25.7026 63.9349L20.6424 68.9951C20.3794 69.2582 20.0286 69.4026 19.6624 69.4026C19.2961 69.4026 18.9402 69.2582 18.6823 68.9951L14.8291 65.1419L3.56875 76.4023C3.30568 76.6653 2.96008 76.8098 2.58869 76.8098C2.2173 76.8098 1.86654 76.6653 1.60347 76.4023C1.06186 75.8607 1.06186 74.9786 1.60347 74.437L12.8638 63.1818L9.01066 59.3286C8.46905 58.787 8.46905 57.9049 9.01066 57.3633L14.0709 52.3031L11.4247 49.657C10.8831 49.1154 10.8831 48.2333 11.4247 47.6917L34.6212 24.4952L31.975 21.8491C31.4334 21.3074 31.4334 20.4254 31.975 19.8838L38.0204 13.8384C38.2835 13.5753 38.6343 13.4309 39.0056 13.4309C39.377 13.4309 39.7278 13.5753 39.9909 13.8384L46.2632 20.1107L53.9696 12.4044L51.3234 9.75821C50.787 9.22176 50.7818 8.34487 51.3131 7.80325L57.3585 1.60824C57.6216 1.34002 57.9775 1.19043 58.3541 1.19043C58.7306 1.19043 59.0762 1.33486 59.3341 1.59793L76.4078 18.6768C76.6709 18.9398 76.8153 19.2906 76.8153 19.6671C76.8153 20.0437 76.6657 20.3944 76.3975 20.6524L70.2025 26.6978C69.9394 26.9505 69.599 27.095 69.2328 27.095C68.8665 27.095 68.5106 26.9505 68.2475 26.6875L65.6014 24.0413L57.895 31.7477L62.1299 35.9826L62.3311 36.0496C70.9917 38.8454 76.8153 46.8354 76.8153 55.9293C76.8153 67.4425 67.448 76.8149 55.9297 76.8149L55.9246 76.8098ZM55.9246 37.8189C45.9434 37.8189 37.8193 45.9431 37.8193 55.9242C37.8193 65.9053 45.9434 74.0295 55.9246 74.0295C65.9057 74.0295 74.0299 65.9053 74.0299 55.9242C74.0299 45.9431 65.9057 37.8189 55.9246 37.8189ZM11.9508 58.3434L19.6572 66.0498L23.7373 61.9696L16.031 54.2632L11.9508 58.3434ZM14.37 48.6717L29.3288 63.6306L35.1267 57.8327L35.0957 57.4355C34.5077 49.2443 38.8096 41.4296 46.0518 37.5249L47.0886 36.9678L36.5761 26.4553L14.37 48.6717ZM34.9203 20.8638L49.9617 35.9052L50.4517 35.7711C51.9889 35.3532 53.5827 35.1108 55.1869 35.0541L57.2038 34.9819L39.0005 16.7837L34.9203 20.8638ZM48.2182 22.0709L55.9246 29.7772L63.6309 22.0709L55.9246 14.3645L48.2182 22.0709ZM54.2533 8.76268L69.2379 23.7473L73.447 19.6413L58.3592 4.55358L54.2533 8.75752V8.76268Z" fill="#333333"/>
<path d="M51.2509 65.7764C50.539 65.7764 49.9871 65.5958 49.5125 65.2141C48.4912 64.3888 48.4912 63.0219 48.4912 62.5061C48.4912 58.3486 51.8079 53.3245 55.9242 53.3245C60.0404 53.3245 63.3572 58.3486 63.3572 62.5061C63.3572 63.0219 63.3572 64.3837 62.3358 65.2141C61.8561 65.601 61.3248 65.7712 60.6182 65.7712C59.9889 65.7712 59.308 65.6371 58.5497 65.472C57.4355 65.2348 56.6928 65.1058 55.9242 65.1058C55.1556 65.1058 54.4128 65.2348 53.2987 65.472C52.6178 65.6165 51.9111 65.7712 51.2509 65.7712V65.7764ZM55.919 62.3255C56.863 62.3255 57.8637 62.4958 59.4937 62.8362L60.6801 63.0838L60.5459 61.8819C60.2571 59.2667 58.1319 56.1047 55.9242 56.1047C53.7165 56.1047 51.5965 59.2616 51.3024 61.8819L51.1683 63.0838L52.3547 62.8362C54.0208 62.4906 54.9802 62.3255 55.919 62.3255Z" fill="#4ECBD3"/>
<path d="M46.2577 52.4785C45.4891 52.4785 44.8701 51.8543 44.8701 51.0909C44.8701 50.3275 45.4943 49.7034 46.2577 49.7034C47.0211 49.7034 47.6504 50.3275 47.6504 51.0909C47.6504 51.8543 47.0263 52.4785 46.2628 52.4785H46.2577Z" fill="#4ECBD3"/>
<path d="M55.9298 47.6452C55.1613 47.6452 54.5371 47.0211 54.5371 46.2577C54.5371 45.4943 55.1613 44.8701 55.9298 44.8701C56.6984 44.8701 57.3174 45.4943 57.3174 46.2577C57.3174 47.0211 56.6932 47.6452 55.9298 47.6452Z" fill="#4ECBD3"/>
<path d="M65.6017 52.4785C64.8331 52.4785 64.209 51.8543 64.209 51.0909C64.209 50.3275 64.8331 49.7034 65.6017 49.7034C66.3703 49.7034 66.9893 50.3275 66.9893 51.0909C66.9893 51.8543 66.3651 52.4785 65.6017 52.4785Z" fill="#4ECBD3"/>
</g>
</g>
<defs>
<clipPath id="clip0_428_1074">
<rect width="77.3731" height="77.3731" fill="white" transform="translate(0.313477 0.313477)"/>
</clipPath>
</defs>
</svg>
