<svg width="78" height="78" viewBox="0 0 78 78" fill="none" xmlns="http://www.w3.org/2000/svg">
<g clip-path="url(#clip0_428_1019)">
<mask id="mask0_428_1019" style="mask-type:luminance" maskUnits="userSpaceOnUse" x="0" y="0" width="78" height="78">
<path d="M77.6866 0.51416L0.313477 0.51416L0.313477 77.6866L77.6866 77.6866L77.6866 0.51416Z" fill="white"/>
</mask>
<g mask="url(#mask0_428_1019)">
<path d="M19.4921 13.0059C18.7235 13.0059 18.1045 12.3834 18.1045 11.6219V8.32924C18.1045 4.39344 21.3129 1.19336 25.2589 1.19336L39.4234 1.19336C43.3694 1.19336 46.5778 4.39344 46.5778 8.32924V11.6219C46.5778 12.3885 45.9537 13.0059 45.1902 13.0059L19.4921 13.0059ZM25.2538 3.96128C22.8397 3.96128 20.8796 5.91631 20.8796 8.3241V10.2328L43.7924 10.2328V8.3241C43.7924 5.91631 41.8323 3.96128 39.4182 3.96128L25.2538 3.96128Z" fill="#333333"/>
<path d="M6.34361 76.6114C5.57504 76.6114 4.95605 75.9889 4.95605 75.2274L4.95605 7.09441C4.95605 6.32783 5.5802 5.71045 6.34361 5.71045L18.9245 5.71045C19.6931 5.71045 20.312 6.33297 20.312 7.09441C20.312 7.85584 19.6879 8.47837 18.9245 8.47837L7.73117 8.47837L7.73117 73.8332H58.328C59.0966 73.8332 59.7156 74.4557 59.7156 75.2171C59.7156 75.9786 59.0915 76.6011 58.328 76.6011H6.34361V76.6114Z" fill="#333333"/>
<path d="M58.3285 50.985C57.5599 50.985 56.9409 50.3624 56.9409 49.601L56.9409 8.4835L45.7528 8.4835C44.9842 8.4835 44.3652 7.86097 44.3652 7.09954C44.3652 6.3381 44.9894 5.71558 45.7528 5.71558L58.3337 5.71558C59.1022 5.71558 59.7212 6.3381 59.7212 7.09954L59.7212 49.601C59.7212 50.3676 59.0971 50.985 58.3337 50.985H58.3285Z" fill="#333333"/>
<path d="M58.3282 76.6114C50.4774 76.6114 44.0967 70.2421 44.0967 62.4116C44.0967 54.5812 50.4825 48.2119 58.3282 48.2119C66.1738 48.2119 72.5648 54.5812 72.5648 62.4116C72.5648 70.2421 66.179 76.6114 58.3282 76.6114ZM58.3282 50.9901C52.0094 50.9901 46.8718 56.1144 46.8718 62.4168C46.8718 68.7192 52.0094 73.8435 58.3282 73.8435C64.647 73.8435 69.7846 68.7192 69.7846 62.4168C69.7846 56.1144 64.647 50.9901 58.3282 50.9901Z" fill="#333333"/>
<path d="M56.966 66.5121C56.5946 66.5121 56.2439 66.368 55.9808 66.1056L53.1077 63.24C52.8446 62.9776 52.7002 62.6277 52.7002 62.2624C52.7002 61.892 52.8446 61.5422 53.1077 61.2849C53.3708 61.0225 53.7215 60.8785 54.0929 60.8785C54.4643 60.8785 54.8151 61.0225 55.0781 61.2849L56.966 63.1679L61.1235 59.0212C61.3866 58.7588 61.7322 58.6147 62.1036 58.6147C62.475 58.6147 62.8258 58.7588 63.0888 59.0212C63.6304 59.5614 63.6304 60.4412 63.0888 60.9814L57.9513 66.1056C57.6882 66.368 57.3426 66.5121 56.9712 66.5121H56.966Z" fill="#333333"/>
<path d="M27.8021 47.9754C27.0335 47.9754 26.4145 47.3529 26.4145 46.5915L26.4145 39.5379H19.3426C18.5741 39.5379 17.9551 38.9154 17.9551 38.1539L17.9551 29.1093C17.9551 28.3427 18.5792 27.7254 19.3426 27.7254H26.4145V20.6718C26.4145 19.9052 27.0387 19.2878 27.8021 19.2878L36.8702 19.2878C37.6388 19.2878 38.2578 19.9104 38.2578 20.6718V27.7254L45.3297 27.7254C46.0983 27.7254 46.7172 28.3479 46.7172 29.1093V38.1539C46.7172 38.9205 46.0931 39.5379 45.3297 39.5379H38.2578V46.5915C38.2578 47.358 37.6336 47.9754 36.8702 47.9754H27.8021ZM20.7302 36.7648H27.8021C28.5707 36.7648 29.1897 37.3874 29.1897 38.1488L29.1897 45.2024H35.4775V38.1488C35.4775 37.3822 36.1017 36.7648 36.8651 36.7648H43.937V30.4933L36.8651 30.4933C36.0965 30.4933 35.4775 29.8708 35.4775 29.1093V22.0558L29.1897 22.0558V29.1093C29.1897 29.8759 28.5655 30.4933 27.8021 30.4933H20.7302L20.7302 36.7648Z" fill="#4ECBD3"/>
<path d="M16.0926 57.0147C15.3241 57.0147 14.7051 56.3922 14.7051 55.6308C14.7051 54.8693 15.3292 54.2468 16.0926 54.2468L47.4339 54.2468C48.2025 54.2468 48.8215 54.8693 48.8215 55.6308C48.8215 56.3922 48.1973 57.0147 47.4339 57.0147L16.0926 57.0147Z" fill="#333333"/>
<path d="M16.0926 66.0594C15.3241 66.0594 14.7051 65.4369 14.7051 64.6755C14.7051 63.914 15.3292 63.2915 16.0926 63.2915H27.8791C28.6477 63.2915 29.2667 63.914 29.2667 64.6755C29.2667 65.4369 28.6426 66.0594 27.8791 66.0594H16.0926Z" fill="#333333"/>
<path d="M36.9471 66.0594C36.1786 66.0594 35.5596 65.4369 35.5596 64.6755C35.5596 63.914 36.1837 63.2915 36.9471 63.2915H45.6851C46.4537 63.2915 47.0727 63.914 47.0727 64.6755C47.0727 65.4369 46.4485 66.0594 45.6851 66.0594H36.9471Z" fill="#333333"/>
</g>
</g>
<defs>
<clipPath id="clip0_428_1019">
<rect width="77.3731" height="77.3731" fill="white" transform="translate(0.313477 0.313477)"/>
</clipPath>
</defs>
</svg>
