<svg width="78" height="78" viewBox="0 0 78 78" fill="none" xmlns="http://www.w3.org/2000/svg">
<path d="M39.0001 74.2513C38.8454 74.2513 38.6906 74.2255 38.5462 74.1739L36.6273 73.5085C19.9818 67.7158 7.2668 54.1136 2.60894 37.1225C1.66498 33.6871 1.19043 30.1383 1.19043 26.574C1.19043 13.9983 11.4192 3.76953 23.9949 3.76953C29.2511 3.76953 34.3783 5.60585 38.443 8.9329L39.0001 9.38682L39.5572 8.9329C43.6219 5.60585 48.7543 3.76953 54.0053 3.76953C66.581 3.76953 76.8098 13.9983 76.8098 26.574C76.8098 30.1383 76.3301 33.6871 75.3913 37.1225C70.7334 54.1136 58.0184 67.7158 41.378 73.5034L39.4592 74.1688C39.3096 74.2203 39.16 74.2461 39.0053 74.2461L39.0001 74.2513ZM23.9949 6.54981C12.9511 6.54981 3.9707 15.5302 3.9707 26.574C3.9707 29.8907 4.41431 33.192 5.29121 36.39C9.70663 52.4991 21.7614 65.3946 37.5403 70.883L39.0053 71.3936L40.4702 70.883C56.2492 65.3946 68.3039 52.4991 72.7193 36.39C73.5962 33.192 74.0398 29.8907 74.0398 26.574C74.0398 15.5354 65.0542 6.54981 54.0157 6.54981C49.3423 6.54981 44.7876 8.20043 41.1975 11.1922L39.8976 12.2754C39.65 12.4817 39.3302 12.5952 39.0104 12.5952C38.6906 12.5952 38.3708 12.4817 38.1232 12.2754L36.8233 11.1922C33.2332 8.20043 28.6785 6.54981 24.0052 6.54981H23.9949Z" fill="#333333"/>
<path d="M48.5532 57.2653C47.0263 57.2653 45.2829 56.6463 43.5961 56.0479C41.9455 55.4599 40.3877 54.908 38.995 54.908C37.6023 54.908 36.0445 55.4599 34.3939 56.0479C32.7071 56.6463 30.9637 57.2653 29.4368 57.2653C28.5445 57.2653 27.8068 57.0486 27.1879 56.6102C25.5166 55.4238 25.5166 53.0768 25.5166 52.3082C25.5166 49.074 27.0847 45.3807 29.7051 42.4303C32.4234 39.3714 35.8072 37.6228 38.995 37.6228C42.1828 37.6228 45.5666 39.3766 48.2849 42.4303C50.9053 45.3807 52.4734 49.074 52.4734 52.3082C52.4734 53.0768 52.4734 55.4238 50.8021 56.6102C50.178 57.0486 49.4455 57.2653 48.5532 57.2653ZM39.0002 52.1277C40.5321 52.1277 42.0951 52.5764 44.6226 53.4637C46.1855 54.0104 47.6556 54.5005 48.5171 54.5005C48.6099 54.5005 48.6976 54.4953 48.775 54.485L49.2856 54.4179L49.4765 53.9382C49.6261 53.5565 49.7034 53.0097 49.7034 52.3134C49.7034 46.7477 44.0036 40.4031 39.0053 40.4031C34.007 40.4031 28.3072 46.7477 28.3072 52.3134C28.3072 53.0149 28.3846 53.5617 28.5342 53.9382L28.725 54.4179L29.2357 54.485C29.313 54.4953 29.4007 54.5005 29.4936 54.5005C30.355 54.5005 31.8251 54.0104 33.388 53.4637C35.9156 52.5816 37.4785 52.1277 39.0105 52.1277H39.0002Z" fill="#4ECBD3"/>
<path d="M39.0004 31.9385C35.5702 31.9385 32.7744 28.8745 32.7744 25.109C32.7744 21.3435 35.565 18.2795 39.0004 18.2795C42.4357 18.2795 45.2263 21.3435 45.2263 25.109C45.2263 28.8745 42.4357 31.9385 39.0004 31.9385ZM39.0004 21.0598C37.1022 21.0598 35.5547 22.8755 35.5547 25.109C35.5547 27.3425 37.1022 29.1582 39.0004 29.1582C40.8986 29.1582 42.4461 27.3425 42.4461 25.109C42.4461 22.8755 40.8986 21.0598 39.0004 21.0598Z" fill="#4ECBD3"/>
<path d="M22.9786 39.1909C21.1165 39.1909 19.2647 38.3811 17.903 36.9729C16.6289 35.6524 15.9016 33.9605 15.8603 32.1964C15.819 30.4632 16.4483 28.8796 17.6296 27.7345C18.7231 26.6771 20.1932 26.0994 21.7819 26.0994C23.644 26.0994 25.4907 26.9092 26.8525 28.3174C29.4728 31.0255 29.5966 35.1675 27.1258 37.5557C26.0323 38.6132 24.5622 39.1909 22.9786 39.1909ZM21.7716 28.8796C20.4563 28.8796 19.3782 29.5657 18.8882 30.7211C18.3001 32.1087 18.6973 33.8057 19.8992 35.0437C20.7554 35.9258 21.8387 36.4106 22.958 36.4106C23.8297 36.4106 24.6241 36.1063 25.1915 35.5544C26.5584 34.2339 26.4037 31.8508 24.8511 30.2466C24.0051 29.3748 22.8858 28.8745 21.7716 28.8745V28.8796Z" fill="#4ECBD3"/>
<path d="M55.0219 39.1909C53.4383 39.1909 51.9631 38.608 50.8747 37.5557C49.6935 36.4106 49.0642 34.8271 49.1054 33.0939C49.1467 31.3349 49.874 29.6379 51.1481 28.3174C52.5098 26.9092 54.3616 26.0994 56.2238 26.0994C57.8073 26.0994 59.2826 26.6822 60.371 27.7397C61.5522 28.8848 62.1815 30.4684 62.1402 32.2015C62.0989 33.9605 61.3716 35.6575 60.0976 36.978C58.7358 38.3862 56.884 39.1961 55.0219 39.1961V39.1909ZM56.2289 28.8796C55.1147 28.8796 53.9902 29.38 53.1495 30.2517C51.5968 31.8559 51.4421 34.239 52.809 35.5595C53.3764 36.1114 54.1708 36.4158 55.0425 36.4158C56.1619 36.4158 57.2451 35.9309 58.1013 35.0489C59.3032 33.8057 59.7004 32.1087 59.1123 30.7211C58.6223 29.5708 57.5443 28.8848 56.2289 28.8848V28.8796Z" fill="#4ECBD3"/>
</svg>
