<svg width="78" height="78" viewBox="0 0 78 78" fill="none" xmlns="http://www.w3.org/2000/svg">
<path d="M14.6583 76.9645C9.87659 76.9645 5.9873 73.0752 5.9873 68.2935C5.9873 63.5118 9.87659 59.6226 14.6583 59.6226C19.4399 59.6226 23.3292 63.5118 23.3292 68.2935C23.3292 73.0752 19.4399 76.9645 14.6583 76.9645ZM14.6583 62.3977C11.4086 62.3977 8.76242 65.0438 8.76242 68.2935C8.76242 71.5432 11.4086 74.1893 14.6583 74.1893C17.9079 74.1893 20.5541 71.5432 20.5541 68.2935C20.5541 65.0438 17.9079 62.3977 14.6583 62.3977Z" fill="#333333"/>
<path d="M43.792 76.9645C39.0104 76.9645 35.1211 73.0752 35.1211 68.2935C35.1211 63.5118 39.0104 59.6226 43.792 59.6226C48.5737 59.6226 52.463 63.5118 52.463 68.2935C52.463 73.0752 48.5737 76.9645 43.792 76.9645ZM43.792 62.3977C40.5424 62.3977 37.8962 65.0438 37.8962 68.2935C37.8962 71.5432 40.5424 74.1893 43.792 74.1893C47.0417 74.1893 49.6879 71.5432 49.6879 68.2935C49.6879 65.0438 47.0417 62.3977 43.792 62.3977Z" fill="#333333"/>
<path d="M21.9422 69.6812C21.1737 69.6812 20.5547 69.057 20.5547 68.2936L20.5547 34.301C20.5547 33.9296 20.6991 33.5789 20.9622 33.321L35.1215 19.1617V5.74001L33.0995 3.71799C32.5578 3.17638 32.5578 2.29433 33.0995 1.75271C33.3625 1.48964 33.7081 1.34521 34.0795 1.34521C34.4509 1.34521 34.8017 1.48964 35.0647 1.75271L37.4942 4.18223C37.7573 4.4453 37.9017 4.79606 37.9017 5.16229V19.7291C37.9017 20.1005 37.7573 20.4512 37.4942 20.7091L23.335 34.8684L23.335 68.2833C23.335 69.0519 22.7108 69.6709 21.9474 69.6709L21.9422 69.6812Z" fill="#333333"/>
<path d="M36.509 69.6812C35.7405 69.6812 35.1215 69.057 35.1215 68.2936L35.1215 34.8736L20.9622 20.7143C20.6991 20.4512 20.5547 20.1005 20.5547 19.7342L20.5547 5.16229C20.5547 4.7909 20.6991 4.44014 20.9622 4.18223L23.3917 1.75271C23.6548 1.48964 24.0055 1.34521 24.3769 1.34521C24.7483 1.34521 25.0991 1.48964 25.3621 1.75271C25.9038 2.29433 25.9038 3.17638 25.3621 3.71799L23.3401 5.74001L23.3401 19.1565L37.4994 33.3158C37.7625 33.5789 37.9069 33.9296 37.9069 34.2959L37.9069 68.2885C37.9069 69.057 37.2828 69.676 36.5193 69.676L36.509 69.6812Z" fill="#333333"/>
<path d="M60.7879 76.9644C60.0194 76.9644 59.4004 76.3403 59.4004 75.5769L59.4004 39.1548C59.4004 38.7834 59.5448 38.4326 59.8079 38.1747L64.6618 33.3208C64.9197 33.0629 65.2807 32.9133 65.647 32.9133H70.506C71.2746 32.9133 71.8936 33.5375 71.8936 34.3009V75.5769C71.8936 76.3455 71.2694 76.9644 70.506 76.9644H60.7931H60.7879ZM62.1755 39.7325L62.1755 74.1893H69.1081V35.6884H66.2144L62.1703 39.7325H62.1755Z" fill="#4ECBD3"/>
<path d="M65.6421 35.6885C65.2759 35.6885 64.9199 35.5389 64.6569 35.281L59.803 30.4272C59.5399 30.1641 59.3955 29.8133 59.3955 29.4471V12.4456C59.3955 9.47968 60.5509 6.69425 62.6452 4.60001C64.7394 2.50578 67.53 1.35034 70.4908 1.35034C70.857 1.35034 71.2181 1.49993 71.476 1.75784C71.7339 2.01575 71.8835 2.37683 71.8835 2.7379V34.301C71.8835 35.0696 71.2594 35.6885 70.496 35.6885H65.6421ZM67.9633 4.51748C66.7098 4.91466 65.5544 5.62134 64.6105 6.56529C63.0372 8.13854 62.1706 10.2276 62.1706 12.4456V28.8694L66.2147 32.9134H69.1033V4.15125L67.9581 4.51748H67.9633Z" fill="#4ECBD3"/>
</svg>
