<svg width="78" height="78" viewBox="0 0 78 78" fill="none" xmlns="http://www.w3.org/2000/svg">
<g clip-path="url(#clip0_428_1134)">
<mask id="mask0_428_1134" style="mask-type:luminance" maskUnits="userSpaceOnUse" x="0" y="0" width="78" height="78">
<path d="M77.6866 0.313477L0.313477 0.313477L0.313477 77.6866L77.6866 77.6866L77.6866 0.313477Z" fill="white"/>
</mask>
<g mask="url(#mask0_428_1134)">
<path d="M29.7054 36.3024C28.7615 36.3024 27.8382 36.0342 27.0335 35.5287L26.5693 35.2347L26.105 35.5287C25.3003 36.0342 24.377 36.3024 23.4279 36.3024C21.963 36.3024 20.596 35.6731 19.5799 34.5332C17.5424 32.2481 17.5424 28.6683 19.5799 26.3883L20.9107 24.9028C22.4117 23.2212 24.4234 22.2927 26.5693 22.2927C28.7151 22.2927 30.7268 23.2212 32.2278 24.9028L33.5535 26.3883C35.591 28.6734 35.5961 32.2532 33.5535 34.5383C32.5373 35.6783 31.1704 36.3076 29.7054 36.3076V36.3024ZM26.5641 25.0678C25.2178 25.0678 23.9437 25.6662 22.974 26.7494L21.6432 28.235C20.5703 29.442 20.5703 31.4743 21.6432 32.6814C22.1177 33.2127 22.747 33.5015 23.4176 33.5015C24.0882 33.5015 24.7175 33.2075 25.192 32.6814C25.5428 32.2893 26.038 32.0624 26.5589 32.0624C27.0799 32.0624 27.5751 32.2893 27.9259 32.6814C28.4004 33.2127 29.0297 33.5015 29.7003 33.5015C30.3709 33.5015 31.0002 33.2075 31.4747 32.6814C32.5476 31.4743 32.5476 29.442 31.4747 28.235L30.1439 26.7494C29.1741 25.6662 27.9001 25.0678 26.5538 25.0678H26.5641Z" fill="#4ECBD3"/>
<path d="M14.7049 24.8874C15.4713 24.8874 16.0925 24.2662 16.0925 23.4999C16.0925 22.7335 15.4713 22.1123 14.7049 22.1123C13.9386 22.1123 13.3174 22.7335 13.3174 23.4999C13.3174 24.2662 13.9386 24.8874 14.7049 24.8874Z" fill="#4ECBD3"/>
<path d="M38.3602 24.8874C39.1265 24.8874 39.7478 24.2662 39.7478 23.4999C39.7478 22.7335 39.1265 22.1123 38.3602 22.1123C37.5939 22.1123 36.9727 22.7335 36.9727 23.4999C36.9727 24.2662 37.5939 24.8874 38.3602 24.8874Z" fill="#4ECBD3"/>
<path d="M31.3817 17.8774C32.148 17.8774 32.7693 17.2562 32.7693 16.4899C32.7693 15.7235 32.148 15.1023 31.3817 15.1023C30.6154 15.1023 29.9941 15.7235 29.9941 16.4899C29.9941 17.2562 30.6154 17.8774 31.3817 17.8774Z" fill="#4ECBD3"/>
<path d="M21.746 17.8774C22.5123 17.8774 23.1335 17.2562 23.1335 16.4899C23.1335 15.7235 22.5123 15.1023 21.746 15.1023C20.9796 15.1023 20.3584 15.7235 20.3584 16.4899C20.3584 17.2562 20.9796 17.8774 21.746 17.8774Z" fill="#4ECBD3"/>
<path d="M12.1878 45.7213C11.8113 45.7213 11.4605 45.5717 11.1975 45.3035C6.36423 40.3671 2.88243 33.2797 1.65478 25.8622C0.380703 18.1816 1.77342 11.3418 5.48217 7.10693C9.75317 2.21179 14.2718 1.1853 17.3151 1.1853C19.4919 1.1853 21.746 1.73723 23.345 2.66055C23.7732 2.90814 24.0362 3.36722 24.0362 3.86241V7.78265C24.0362 8.55122 23.4121 9.17021 22.6487 9.17021C21.8853 9.17021 21.2611 8.54607 21.2611 7.78265V4.71868L20.6628 4.51751C19.9097 4.26991 18.713 3.97074 17.2635 3.97074C14.8185 3.97074 11.1562 4.83216 7.57125 8.92777C1.00485 16.4433 3.8367 33.8161 13.1834 43.3588C13.7198 43.9056 13.7095 44.7876 13.1627 45.3241C12.8997 45.582 12.5541 45.7213 12.193 45.7213H12.1878Z" fill="#333333"/>
<path d="M41.2184 46.1806C40.8419 46.1806 40.486 46.031 40.2229 45.7576C39.6864 45.2109 39.7019 44.3288 40.2487 43.7924C49.8378 34.4612 52.9482 16.5415 46.2941 8.92802C42.6834 4.79629 39.0417 3.92971 36.6173 3.92971C35.1524 3.92971 33.9505 4.23921 33.1974 4.50227L32.6042 4.7086V7.7829C32.6042 8.55147 31.9801 9.17045 31.2167 9.17045C30.4532 9.17045 29.8291 8.54631 29.8291 7.7829V3.86266C29.8291 3.36747 30.0973 2.90839 30.5255 2.66079C32.1245 1.73748 34.3786 1.18555 36.5554 1.18555C39.5987 1.18555 44.1173 2.21203 48.3935 7.10201C52.159 11.4143 53.5362 18.3727 52.159 26.1977C50.8282 33.7751 47.1968 40.9141 42.1882 45.7834C41.9251 46.0362 41.5847 46.1754 41.2184 46.1754V46.1806Z" fill="#333333"/>
<path d="M26.5327 58.2405C22.9219 58.2405 19.4608 57.1315 16.5258 55.027L10.7176 50.8695C9.84072 50.2453 9.263 49.3117 9.09278 48.2491C8.92256 47.1865 9.17531 46.1188 9.80461 45.247L12.0484 42.1521C12.8015 41.1153 14.0189 40.5015 15.3084 40.5015C16.144 40.5015 16.9487 40.7594 17.6296 41.2391L24.0206 45.7938C24.7583 46.3199 25.6248 46.5985 26.5327 46.5985C27.4405 46.5985 28.3071 46.3199 29.0447 45.7989L35.4357 41.2442C36.1166 40.7594 36.9162 40.5066 37.7569 40.5066C39.0465 40.5066 40.269 41.1256 41.0169 42.1572L43.2608 45.2522C43.8952 46.1239 44.148 47.1917 43.9726 48.2543C43.8024 49.3168 43.2246 50.2453 42.3477 50.8746L36.5396 55.0321C33.6046 57.1367 30.1434 58.2457 26.5327 58.2457V58.2405ZM15.3033 43.2714C14.9112 43.2714 14.5347 43.4623 14.3026 43.7769L12.0536 46.877C11.8576 47.1452 11.7802 47.4754 11.8369 47.8003C11.8885 48.1253 12.0691 48.4142 12.3373 48.605L18.1454 52.7625C20.6059 54.5266 23.51 55.4551 26.5327 55.4551C29.5554 55.4551 32.4595 54.5215 34.9199 52.7625L40.7281 48.605C40.9963 48.4142 41.1717 48.1253 41.2284 47.8003C41.2852 47.4754 41.2078 47.1452 41.0118 46.877L38.768 43.7821C38.5358 43.4623 38.1593 43.2714 37.7673 43.2714C37.5093 43.2714 37.2618 43.3488 37.0503 43.4984L30.6592 48.0479C29.4471 48.9093 28.0234 49.3633 26.5378 49.3633C25.0523 49.3633 23.6235 48.9093 22.4164 48.0479L16.0254 43.4932C15.8139 43.3436 15.5663 43.2663 15.3084 43.2663L15.3033 43.2714Z" fill="#333333"/>
<path d="M45.1078 76.81C34.1002 76.81 25.1455 67.8554 25.1455 56.8477C25.1455 56.0792 25.7697 55.4602 26.5331 55.4602C27.2965 55.4602 27.9206 56.0843 27.9206 56.8477C27.9206 66.3234 35.6321 74.0297 45.1078 74.0297H47.7797C57.2554 74.0297 64.9669 66.3234 64.9669 56.8477V48.0685C64.9669 47.2999 65.591 46.6809 66.3544 46.6809C67.1179 46.6809 67.742 47.3051 67.742 48.0685V56.8477C67.742 67.8554 58.7873 76.81 47.7797 76.81H45.1078Z" fill="#333333"/>
<path d="M66.3541 49.4609C60.5872 49.4609 55.8984 44.7721 55.8984 39.0052C55.8984 33.2384 60.5872 28.5496 66.3541 28.5496C72.121 28.5496 76.8098 33.2384 76.8098 39.0052C76.8098 44.7721 72.121 49.4609 66.3541 49.4609ZM66.3541 31.3298C62.1192 31.3298 58.6787 34.7755 58.6787 39.0052C58.6787 43.235 62.1244 46.6807 66.3541 46.6807C70.5839 46.6807 74.0295 43.235 74.0295 39.0052C74.0295 34.7755 70.5839 31.3298 66.3541 31.3298Z" fill="#333333"/>
<path d="M66.3544 40.3928C67.1207 40.3928 67.7419 39.7716 67.7419 39.0052C67.7419 38.2389 67.1207 37.6177 66.3544 37.6177C65.588 37.6177 64.9668 38.2389 64.9668 39.0052C64.9668 39.7716 65.588 40.3928 66.3544 40.3928Z" fill="#333333"/>
</g>
</g>
<defs>
<clipPath id="clip0_428_1134">
<rect width="77.3731" height="77.3731" fill="white" transform="translate(0.313477 0.313477)"/>
</clipPath>
</defs>
</svg>
