<svg width="581" height="170" viewBox="0 0 581 170" fill="none" xmlns="http://www.w3.org/2000/svg">
<path d="M0.0957031 167.387H14.4179V13.7492H0.0957031V167.387ZM41.9773 167.387H54.9974V117.26C54.8748 111.108 55.79 104.985 57.7147 99.1445C59.2809 94.4176 61.7906 90.0681 65.0928 86.3414C68.1403 82.9825 71.9331 80.3785 76.1599 78.7463C80.4811 77.0763 85.0854 76.2271 89.7179 76.246C94.926 76.246 99.1622 77.1518 102.417 78.9633C105.559 80.6615 108.182 83.1712 110.012 86.2281C111.871 89.4171 113.154 92.9081 113.805 96.5405C114.532 100.437 114.9 104.4 114.89 108.362V167.387H127.91V107.711C127.92 102.315 127.382 96.9368 126.288 91.6532C125.316 86.6999 123.316 82.0107 120.429 77.8782C117.419 73.7458 113.428 70.4247 108.814 68.2169C103.899 65.7638 97.53 64.5373 89.7179 64.5278C82.1888 64.3675 74.7919 66.4431 68.4516 70.5001C62.3755 74.4817 58.0355 79.218 55.4314 84.7091H54.7804C54.3747 82.4919 54.1955 80.237 54.2426 77.982C54.1672 74.51 54.0539 70.8964 53.9124 67.1319H40.8922C40.8922 68.4339 40.9677 70.2831 41.1092 72.6702C41.2508 75.0572 41.364 77.6235 41.4395 80.3691C41.5055 83.1241 41.6187 85.8319 41.7603 88.5114C41.9018 91.1909 41.9773 93.4647 41.9773 95.3423V167.387ZM159.159 167.387H172.179V78.85H195.615V67.1319H172.179V39.1385C172.179 21.3443 178.038 12.4472 189.756 12.4472C194.672 12.4472 198.578 13.1736 201.474 14.6172L204.078 3.33304C200.172 1.59702 195.181 0.729004 189.105 0.729004C185.68 0.766744 182.284 1.3234 179.019 2.36124C175.434 3.46513 172.132 5.36154 169.358 7.8901C166.254 10.7961 163.782 14.3058 162.093 18.2025C160.14 22.467 159.159 27.8544 159.159 34.3645V67.1319H138.327V78.85H159.159V167.387ZM203.427 138.422C205.899 144.659 209.588 150.338 214.278 155.131C219.023 159.905 224.713 163.642 230.987 166.085C237.761 168.736 244.979 170.067 252.253 169.991C259.49 170.067 266.679 168.746 273.416 166.085C286.077 161.104 296.097 151.084 301.079 138.422C306.287 124.798 306.287 109.73 301.079 96.1065C296.088 83.4448 286.077 73.425 273.416 68.4339C266.679 65.7733 259.49 64.4524 252.253 64.5278C244.979 64.4524 237.761 65.7827 230.987 68.4339C224.713 70.887 219.023 74.6232 214.278 79.3973C209.588 84.1902 205.899 89.87 203.427 96.1065C198.219 109.73 198.219 124.798 203.427 138.422ZM215.259 101.315C216.967 96.4744 219.665 92.04 223.175 88.2944C226.732 84.5393 231.015 81.5484 235.761 79.5011C246.328 75.161 258.178 75.161 268.745 79.5011C273.491 81.5484 277.774 84.5393 281.331 88.2944C284.841 92.04 287.54 96.4744 289.257 101.315C292.87 111.646 292.87 122.883 289.257 133.214C287.54 138.054 284.841 142.488 281.331 146.234C277.774 149.98 273.491 152.971 268.745 155.018C258.178 159.358 246.328 159.358 235.761 155.018C231.015 152.971 226.732 149.98 223.175 146.234C219.665 142.488 216.967 138.054 215.259 133.214C211.636 122.892 211.636 111.636 215.259 101.315ZM323.213 167.387H336.233V112.702C336.195 108.042 336.856 103.4 338.186 98.9275C339.394 94.8328 341.432 91.0305 344.158 87.7472C346.932 84.4921 350.423 81.9352 354.358 80.2653C359 78.35 363.981 77.4254 369.001 77.548C370.699 77.5669 372.388 77.8594 373.992 78.416L375.511 65.6129C374.209 65.3298 372.944 65.0751 371.718 64.8581C370.463 64.6411 369.189 64.5278 367.916 64.5278C360.396 64.5278 354.027 66.4054 348.819 70.1699C343.536 74.0194 339.167 78.9821 336.016 84.7091C335.61 82.4919 335.431 80.237 335.478 77.982C335.403 74.51 335.29 70.8964 335.148 67.1319H322.128C322.128 68.4339 322.203 70.2831 322.345 72.6702C322.487 75.0572 322.6 77.6235 322.675 80.3691C322.741 83.1241 322.854 85.8319 322.996 88.5114C323.138 91.1909 323.213 93.4647 323.213 95.3423V167.387ZM384.625 167.387H397.645V117.26C397.522 111.108 398.438 104.985 400.362 99.1445C401.928 94.4176 404.438 90.0681 407.74 86.3414C410.788 82.9825 414.581 80.3785 418.807 78.7463C423.129 77.0763 427.733 76.2271 432.365 76.246C439.451 76.246 444.697 79.067 448.103 84.7091C451.509 90.3512 453.207 97.8048 453.198 107.06V167.387H466.218V110.966C466.246 107.089 466.727 103.23 467.633 99.4653C468.548 95.4555 470.171 91.6343 472.407 88.1812C474.738 84.6242 477.908 81.6805 481.625 79.6143C485.531 77.3688 490.522 76.246 496.598 76.246C501.806 76.246 506.043 77.1518 509.298 78.9633C512.44 80.6615 515.062 83.1712 516.893 86.2281C518.751 89.4171 520.035 92.9081 520.686 96.5405C521.412 100.437 521.78 104.4 521.771 108.362V167.387H534.791V107.711C534.8 102.315 534.262 96.9368 533.168 91.6532C532.196 86.6999 530.196 82.0107 527.309 77.8782C524.299 73.7458 520.308 70.4247 515.695 68.2169C510.779 65.7638 504.41 64.5373 496.598 64.5278C489.645 64.5278 482.804 66.3205 476.747 69.7359C470.454 73.208 465.718 78.7085 462.529 86.2281C460.066 78.567 456.085 73.0381 450.594 69.6321C445.121 66.245 438.8 64.4712 432.365 64.5278C424.836 64.3675 417.439 66.4431 411.099 70.5001C405.023 74.4817 400.683 79.218 398.079 84.7091H397.428C397.022 82.4919 396.843 80.237 396.89 77.982C396.815 74.51 396.701 70.8964 396.56 67.1319H383.54C383.54 68.4339 383.615 70.2831 383.757 72.6702C383.898 75.0572 384.012 77.6235 384.087 80.3691C384.153 83.1241 384.266 85.8319 384.408 88.5114C384.549 91.1909 384.625 93.4647 384.625 95.3423V167.387ZM636.565 100.767C636.565 88.0396 632.952 78.8217 625.715 73.1042C618.478 67.3866 608.789 64.5278 596.637 64.5278C589.683 64.6033 582.796 65.8204 576.238 68.1131C569.596 70.236 563.511 73.8307 558.444 78.633L566.039 87.5302C574.502 80.1426 585.4 76.1234 596.637 76.246C604.741 76.246 611.468 78.1236 616.818 81.8881C622.167 85.6526 624.847 91.8702 624.847 100.55V106.626H609.657C604.741 106.626 599.061 106.957 592.627 107.608C586.381 108.211 580.248 109.674 574.399 111.948C568.832 114.08 563.879 117.543 559.963 122.034C556.057 126.525 554.104 132.601 554.104 140.262C553.764 149.31 558.001 157.924 565.388 163.16C568.794 165.585 572.615 167.349 576.672 168.368C580.852 169.453 585.154 169.991 589.476 169.991C598.014 169.991 605.071 168.472 610.638 165.434C616.205 162.396 620.875 157.622 624.63 151.112H625.064C625.026 156.565 625.46 162.009 626.366 167.387H638.518C638.084 164.5 637.763 161.604 637.546 158.707C637.329 155.82 637.141 152.707 636.999 149.376C636.858 146.045 636.744 142.432 636.678 138.526C636.612 134.62 636.565 130.214 636.565 125.289V100.767ZM624.847 117.043V123.77C624.847 127.978 624.338 132.167 623.328 136.252C622.347 140.309 620.46 144.092 617.799 147.319C614.874 150.753 611.204 153.461 607.053 155.235C602.571 157.264 596.854 158.273 589.91 158.273C587.155 158.273 584.418 157.867 581.777 157.084C579.182 156.33 576.72 155.16 574.502 153.612C572.313 152.084 570.502 150.074 569.19 147.753C565.935 141.658 566.568 134.214 570.813 128.761C573.512 125.704 576.899 123.326 580.692 121.817C585.145 119.996 589.815 118.75 594.58 118.128C599.863 117.401 605.194 117.033 610.525 117.043H624.847ZM709.478 67.1319H680.834V38.2705H667.814V67.1319H646.113V78.85H667.814V144.168C667.785 147.583 668.257 150.989 669.229 154.263C670.106 157.264 671.616 160.037 673.673 162.396C675.88 164.84 678.635 166.736 681.702 167.934C685.504 169.387 689.561 170.086 693.637 169.991C696.486 169.944 699.326 169.576 702.1 168.906C704.968 168.274 707.789 167.482 710.563 166.519L709.478 154.801C707.129 155.829 704.695 156.669 702.213 157.301C699.77 157.943 697.25 158.264 694.722 158.273C690.382 158.273 686.985 157.047 684.523 154.584C682.06 152.122 680.834 148.649 680.834 144.168V78.85H709.478V67.1319ZM724.234 167.387H737.255V67.1319H724.234V167.387ZM723.8 34.3645C727.631 38.3082 733.943 38.3932 737.877 34.5532C741.821 30.7226 741.906 24.4106 738.066 20.4763C734.235 16.5325 727.923 16.4476 723.989 20.2876C722.064 22.1651 720.979 24.7314 720.979 27.4204C720.913 30.0244 721.942 32.5435 723.8 34.3645ZM761.559 138.422C764.031 144.659 767.72 150.338 772.409 155.131C777.155 159.905 782.844 163.642 789.118 166.085C795.892 168.736 803.11 170.067 810.384 169.991C817.621 170.067 824.81 168.746 831.547 166.085C844.209 161.104 854.229 151.084 859.21 138.422C864.418 124.798 864.418 109.73 859.21 96.1065C854.219 83.4448 844.209 73.425 831.547 68.4339C824.81 65.7733 817.621 64.4524 810.384 64.5278C803.11 64.4524 795.892 65.7827 789.118 68.4339C782.844 70.887 777.155 74.6232 772.409 79.3973C767.72 84.1902 764.031 89.87 761.559 96.1065C756.351 109.73 756.351 124.798 761.559 138.422ZM773.39 101.315C775.098 96.4744 777.796 92.04 781.306 88.2944C784.863 84.5393 789.147 81.5484 793.892 79.5011C804.459 75.161 816.31 75.161 826.877 79.5011C831.622 81.5484 835.906 84.5393 839.463 88.2944C842.973 92.04 845.671 96.4744 847.388 101.315C851.002 111.646 851.002 122.883 847.388 133.214C845.671 138.054 842.973 142.488 839.463 146.234C835.906 149.98 831.622 152.971 826.877 155.018C816.31 159.358 804.459 159.358 793.892 155.018C789.147 152.971 784.863 149.98 781.306 146.234C777.796 142.488 775.098 138.054 773.39 133.214C769.767 122.892 769.767 111.636 773.39 101.315ZM881.344 167.387H894.365V117.26C894.242 111.108 895.157 104.985 897.082 99.1445C898.648 94.4176 901.158 90.0681 904.46 86.3414C907.507 82.9825 911.3 80.3785 915.527 78.7463C919.848 77.0763 924.453 76.2271 929.085 76.246C934.293 76.246 938.529 77.1518 941.784 78.9633C944.926 80.6615 947.549 83.1712 949.38 86.2281C951.238 89.4171 952.521 92.9081 953.172 96.5405C953.899 100.437 954.267 104.4 954.257 108.362V167.387H967.278V107.711C967.287 102.315 966.749 96.9368 965.655 91.6532C964.683 86.6999 962.683 82.0107 959.796 77.8782C956.786 73.7458 952.795 70.4247 948.181 68.2169C943.266 65.7638 936.897 64.5373 929.085 64.5278C921.556 64.3675 914.159 66.4431 907.819 70.5001C901.743 74.4817 897.403 79.218 894.799 84.7091H894.148C893.742 82.4919 893.563 80.237 893.61 77.982C893.534 74.51 893.421 70.8964 893.28 67.1319H880.259C880.259 68.4339 880.335 70.2831 880.476 72.6702C880.618 75.0572 880.731 77.6235 880.807 80.3691C880.873 83.1241 880.986 85.8319 881.127 88.5114C881.269 91.1909 881.344 93.4647 881.344 95.3423V167.387Z" fill="#F7F7F7"/>
</svg>
