<svg width="140" height="105" viewBox="0 0 140 105" fill="none" xmlns="http://www.w3.org/2000/svg">
<path fill-rule="evenodd" clip-rule="evenodd" d="M74.5229 59.4351C80.6798 53.0284 84.4645 44.3251 84.4645 34.7378C84.4645 25.0307 80.5846 16.2299 74.291 9.80148C78.3677 7.00809 83.1708 5.20915 88.356 4.75127C94.2225 3.72186 99.1187 0 99.1187 0C99.1187 0 101.74 5.53371 106.618 9.09738L106.594 9.09145C112.532 12.79 117.079 18.5357 119.263 25.35L119.263 25.2488C121.498 30.8336 126.258 34.8914 126.258 34.8914C126.258 34.8914 121.619 38.7033 119.145 44.0891C115.187 55.9218 104.075 64.4436 90.9858 64.4436C84.8965 64.4436 79.2352 62.5992 74.5229 59.4351ZM87.2099 9.16381C93.1353 7.87221 97.9406 4.48736 97.9406 4.48736C97.9406 4.48736 100.406 9.17869 104.677 12.7947C109.426 15.7666 113.137 20.2422 115.143 25.5547C117.723 30.792 122.054 34.4625 122.054 34.4625C122.054 34.4625 117.46 38.811 114.904 44.3784C111.068 53.7988 101.82 60.4394 91.0208 60.4394C87.1307 60.4394 83.4418 59.5776 80.1347 58.0346C85.5479 51.7832 88.823 43.6296 88.823 34.7111C88.823 25.7592 85.5232 17.5779 80.0737 11.3174C82.2972 10.2728 84.6943 9.53659 87.2099 9.16381Z" fill="white"/>
<path fill-rule="evenodd" clip-rule="evenodd" d="M96.6441 22.3811C96.91 22.2559 97.227 22.37 97.3522 22.6359L99.3709 26.9234C99.4961 27.1892 99.3821 27.5063 99.1162 27.6315C98.8503 27.7567 98.5333 27.6426 98.4081 27.3767L96.3893 23.0892C96.2642 22.8233 96.3782 22.5063 96.6441 22.3811Z" fill="white"/>
<path fill-rule="evenodd" clip-rule="evenodd" d="M97.4892 28.672C97.2665 28.8638 96.9305 28.8388 96.7387 28.6162L93.6404 25.0194C93.4486 24.7968 93.4736 24.4608 93.6962 24.269C93.9189 24.0772 94.2549 24.1022 94.4467 24.3248L97.545 27.9216C97.7368 28.1442 97.7118 28.4802 97.4892 28.672Z" fill="white"/>
<path fill-rule="evenodd" clip-rule="evenodd" d="M109.45 42.3949C109.224 42.5835 108.889 42.5536 108.7 42.3282L105.62 38.6472C105.432 38.4218 105.462 38.0862 105.687 37.8976C105.912 37.709 106.248 37.7389 106.437 37.9643L109.516 41.6453C109.705 41.8707 109.675 42.2063 109.45 42.3949Z" fill="white"/>
<path fill-rule="evenodd" clip-rule="evenodd" d="M104.059 38.9407C104.326 38.8184 104.642 38.9359 104.764 39.2032L106.764 43.575C106.886 43.8422 106.769 44.158 106.502 44.2802C106.234 44.4025 105.919 44.285 105.796 44.0177L103.796 39.6459C103.674 39.3787 103.791 39.0629 104.059 38.9407Z" fill="white"/>
<path d="M104.696 28.0722C103.855 28.6828 102.726 28.3907 102.167 27.5167C101.608 26.6428 101.661 25.5941 102.774 24.9547C103.699 24.3627 104.711 24.5848 105.27 25.4588C105.895 26.4356 105.673 27.4472 104.696 28.0722Z" fill="white"/>
<path d="M109.506 35.1375C108.735 35.631 108.056 35.7028 107.353 35.2833C106.734 34.8823 106.255 34.2468 106.506 33.5066C106.687 32.8836 107.037 32.2976 107.72 32.0057C108.3 31.7796 108.772 31.8393 109.326 32.1375C110.582 32.8552 110.413 34.6298 109.506 35.1375Z" fill="white"/>
<path d="M100.369 33.2692C100.205 33.8108 100.563 34.3704 101.124 34.449L103.644 34.8028C104.425 34.9123 104.974 34.056 104.55 33.3923L102.764 30.6015C102.339 29.9377 101.331 30.0778 101.104 30.8322L100.369 33.2692Z" fill="white"/>
<path fill-rule="evenodd" clip-rule="evenodd" d="M102.661 32.5309C102.911 32.8326 102.869 33.2799 102.567 33.5299C101.889 34.0924 100.771 34.5773 99.5803 34.5452C98.3379 34.5117 97.0609 33.913 96.1846 32.3911C95.9891 32.0515 96.1059 31.6178 96.4455 31.4223C96.7851 31.2267 97.2188 31.3435 97.4144 31.6831C98.0386 32.7672 98.8586 33.1063 99.6185 33.1268C100.43 33.1487 101.22 32.8039 101.662 32.4373C101.964 32.1873 102.411 32.2292 102.661 32.5309Z" fill="white"/>
<path fill-rule="evenodd" clip-rule="evenodd" d="M102.766 32.6961C102.597 32.3427 102.173 32.1933 101.82 32.3625C101.025 32.7431 100.116 33.5549 99.6464 34.6493C99.1562 35.7913 99.1646 37.2017 100.179 38.635C100.406 38.9549 100.848 39.0306 101.168 38.8042C101.488 38.5778 101.564 38.135 101.337 37.8152C100.615 36.7941 100.65 35.9075 100.95 35.2089C101.271 34.4627 101.914 33.8904 102.433 33.6424C102.786 33.4732 102.935 33.0496 102.766 32.6961Z" fill="white"/>
<path fill-rule="evenodd" clip-rule="evenodd" d="M49.1912 64.6082C65.7067 64.6082 79.0952 51.2197 79.0952 34.7042C79.0952 18.1887 65.7067 4.80029 49.1912 4.80029C35.6753 4.80029 24.2537 13.7671 20.5507 26.0764C17.9444 31.1625 13.7422 34.6443 13.7422 34.6443C13.7422 34.6443 17.9484 38.1896 20.5545 43.3447C24.2615 55.6475 35.6799 64.6082 49.1912 64.6082ZM49.2019 60.2266C63.3306 60.2266 74.7841 48.773 74.7841 34.6444C74.7841 20.5158 63.3306 9.06223 49.2019 9.06223C37.6761 9.06223 27.9306 16.6845 24.731 27.1632C22.1199 31.786 18.3923 34.9279 18.3923 34.9279C18.3923 34.9279 22.6673 38.5311 25.2679 43.6977C28.9239 53.3581 38.2608 60.2266 49.2019 60.2266Z" fill="white"/>
<path d="M55.8342 29.0321C55.8995 30.1432 54.9845 30.9929 53.8733 30.9929C52.7622 30.9929 51.8471 30.3393 51.9125 28.9667C51.9125 27.7902 52.6968 27.0059 53.808 27.0059C55.0498 27.0059 55.8342 27.7902 55.8342 29.0321Z" fill="white"/>
<path d="M64.985 28.7705C64.985 29.7509 64.6582 30.4045 63.8738 30.7967C63.1549 31.1235 62.3052 31.1889 61.7823 30.5353C61.3247 30.0124 60.9979 29.3588 61.1287 28.5744C61.2594 27.9208 61.5862 27.5286 62.1744 27.2018C63.547 26.4829 65.0503 27.6594 64.985 28.7705Z" fill="white"/>
<path d="M57.9028 35.943C58.2933 36.3986 58.9981 36.3986 59.3886 35.943L61.1829 33.8497C61.7269 33.215 61.2759 32.2344 60.44 32.2344H56.8515C56.0155 32.2344 55.5645 33.215 56.1085 33.8497L57.9028 35.943Z" fill="white"/>
<path fill-rule="evenodd" clip-rule="evenodd" d="M58.5622 35.0818C58.9753 35.0359 59.3475 35.3336 59.3934 35.7468C59.525 36.9319 59.1363 38.2885 58.2698 39.2695C57.3718 40.2861 55.979 40.8742 54.2335 40.4863C53.0473 40.2227 50.6836 38.9432 50.3798 35.9048C50.3384 35.4912 50.6402 35.1223 51.0538 35.081C51.4674 35.0396 51.8363 35.3414 51.8777 35.755C52.0967 37.9455 53.7855 38.8447 54.5601 39.0168C55.7559 39.2826 56.5962 38.8903 57.1416 38.2729C57.7185 37.6198 57.9834 36.6888 57.8972 35.913C57.8513 35.4999 58.149 35.1277 58.5622 35.0818Z" fill="white"/>
<path fill-rule="evenodd" clip-rule="evenodd" d="M58.7484 35.0818C58.3352 35.0359 57.9631 35.3336 57.9172 35.7468C57.7855 36.9319 58.1742 38.2885 59.0407 39.2695C59.9387 40.2861 61.3316 40.8742 63.077 40.4863C64.2633 40.2227 66.6269 38.9432 66.9308 35.9048C66.9721 35.4912 66.6704 35.1223 66.2567 35.081C65.8431 35.0396 65.4743 35.3414 65.4329 35.755C65.2138 37.9455 63.5251 38.8447 62.7505 39.0168C61.5547 39.2826 60.7143 38.8903 60.1689 38.2729C59.5921 37.6198 59.3271 36.6888 59.4133 35.913C59.4592 35.4999 59.1615 35.1277 58.7484 35.0818Z" fill="white"/>
<path fill-rule="evenodd" clip-rule="evenodd" d="M41.0713 23.6714C41.3645 24.1543 41.2107 24.7835 40.7278 25.0767C35.9404 27.9833 34.5377 30.4233 33.7261 32.4028C33.5887 32.7378 33.4638 33.0805 33.3379 33.4262C32.7188 35.125 32.0731 36.8967 29.7916 38.1862L29.769 38.199L29.7457 38.2106C26.3182 39.9244 23.3072 39.3006 21.091 38.1292C18.9794 37.0132 17.5642 35.3917 17.1009 34.861C17.087 34.845 17.0739 34.83 17.0617 34.8161C16.6897 34.3909 16.7328 33.7446 17.1579 33.3726C17.5831 33.0006 18.2293 33.0437 18.6014 33.4689C18.6104 33.4792 18.6199 33.49 18.6297 33.5013C19.0661 34.0006 20.2752 35.3841 22.0469 36.3205C23.8125 37.2536 26.1076 37.733 28.8074 36.3924C30.3704 35.5015 30.7449 34.4977 31.3437 32.8928C31.4874 32.5077 31.6441 32.0879 31.8331 31.6267C32.8145 29.2332 34.5133 26.4563 39.6661 23.3279C40.149 23.0347 40.7781 23.1885 41.0713 23.6714Z" fill="white"/>
<path d="M83.319 83.1455C84.0136 83.1455 84.3609 83.1629 84.3609 83.1976C84.3609 83.2323 84.2393 83.5449 83.9962 84.1352C83.7531 84.6909 83.4579 85.2639 83.1107 85.8543C82.7634 86.4099 82.5898 86.6964 82.5898 86.7138C82.5898 86.7311 83.649 86.7398 85.7673 86.7398H88.9449V86.5835V86.4273H90.0388L91.1848 86.4793V93.4596C91.1848 98.1478 91.1501 100.596 91.0806 100.804C91.0459 101.013 90.9765 101.221 90.8723 101.43C90.7681 101.638 90.6292 101.829 90.4556 102.003C90.2819 102.176 90.1083 102.298 89.9346 102.367C89.7263 102.471 89.5005 102.523 89.2574 102.523H88.9449V95.1265L88.8928 87.7295H88.5803H88.2677L88.2156 87.99C88.1809 88.0942 88.0593 88.9971 87.851 90.6987C87.6079 92.3309 87.4342 93.338 87.3301 93.72C87.2606 94.1368 87.1564 94.5361 87.0175 94.9181C86.9133 95.2654 86.7571 95.6474 86.5487 96.0641C86.3403 96.4809 86.1407 96.8542 85.9497 97.1841C85.7587 97.514 85.5242 97.87 85.2464 98.252C85.038 98.5298 84.7776 98.8597 84.465 99.2417C84.1525 99.5543 83.7879 99.9015 83.3711 100.284C82.9544 100.631 82.5203 100.961 82.0688 101.273C81.6521 101.551 81.192 101.82 80.6884 102.081C80.1849 102.341 79.8984 102.471 79.8289 102.471C79.7595 102.471 79.7074 102.437 79.6726 102.367C79.6379 102.263 79.6206 102.211 79.6206 102.211C79.6206 102.141 79.7768 102.02 80.0894 101.846C80.4019 101.638 80.6884 101.438 80.9489 101.247C81.2093 101.056 81.5132 100.787 81.8605 100.44C82.2772 100.023 82.5724 99.6932 82.746 99.4501C83.0239 99.1375 83.2843 98.8076 83.5274 98.4603C83.7705 98.0783 84.0136 97.6269 84.2567 97.106C84.4998 96.6198 84.7168 96.1423 84.9078 95.6735C85.0988 95.2046 85.2638 94.6403 85.4027 93.9805C85.5763 93.3901 85.6979 92.7824 85.7673 92.1573C85.8715 91.428 85.9931 90.5425 86.132 89.5006C86.3056 88.3546 86.3751 87.7643 86.3403 87.7295C86.3056 87.6948 86.0451 87.6774 85.559 87.6774L84.8297 87.7295L84.6213 88.7714C84.5519 89.1881 84.4303 89.8479 84.2567 90.7508C84.1525 91.3065 83.9962 91.8795 83.7879 92.4698C83.6142 93.0255 83.4406 93.4683 83.2669 93.7982C83.0933 94.1281 82.937 94.4146 82.7981 94.6577C82.6245 94.9008 82.4335 95.1439 82.2251 95.387C82.0168 95.6648 81.6695 96.0294 81.1833 96.4809C80.7318 96.9323 80.2977 97.3143 79.881 97.6269C79.4296 97.9742 79.0302 98.2867 78.6829 98.5645L78.0578 98.9813L77.9536 98.825C77.8842 98.7555 77.8495 98.7034 77.8495 98.6687C77.8495 98.634 77.971 98.5211 78.2141 98.3301C78.4572 98.1391 78.7176 97.8873 78.9955 97.5748C79.308 97.2622 79.5685 97.0018 79.7768 96.7934C79.9852 96.5156 80.2109 96.1857 80.454 95.8037C80.7318 95.387 80.9662 94.9876 81.1572 94.6056C81.3483 94.2236 81.5132 93.8416 81.6521 93.4596C81.791 93.1123 81.9299 92.7303 82.0688 92.3136C82.173 91.8968 82.3467 91.0634 82.5898 89.8132C82.8328 88.4935 82.937 87.8164 82.9023 87.7816C82.9023 87.7122 82.746 87.6774 82.4335 87.6774C82.1209 87.6774 81.9473 87.6948 81.9126 87.7295C81.8778 87.7643 81.7216 87.9726 81.4438 88.3546C81.1659 88.7366 80.8013 89.1881 80.3498 89.709C79.9331 90.2646 79.5685 90.7161 79.2559 91.0634C78.9781 91.3412 78.8218 91.4975 78.7871 91.5322C78.7524 91.5322 78.709 91.4975 78.6569 91.428C78.6048 91.3586 78.7176 91.1328 78.9955 90.7508C79.2733 90.2994 79.4816 89.9347 79.6206 89.6569C79.7942 89.3791 80.0547 88.8929 80.4019 88.1984C80.6797 87.608 80.9142 87.0871 81.1052 86.6356C81.2962 86.1842 81.4958 85.6459 81.7042 85.0208C81.9473 84.361 82.0862 83.8921 82.1209 83.6143L82.2251 83.1455H83.319ZM77.2244 83.2497V85.2292V87.2086H77.9015H78.5787V87.7295V88.1984H77.9015H77.2244V90.855V93.4596H77.9536H78.735V93.9284V94.3972H77.9536H77.2244V98.0957V101.846L77.0681 102.211C76.9639 102.489 76.8597 102.714 76.7555 102.888C76.6513 103.062 76.4951 103.201 76.2867 103.305C76.0783 103.409 75.8526 103.461 75.6095 103.461H75.297L75.2449 98.9292V94.4493L73.5259 94.3972H71.8069V93.9284V93.4596L73.5259 93.4075H75.2449V90.8029L75.297 88.1984H74.6198H73.9947L73.7342 88.7193C73.5606 89.0665 73.3522 89.3965 73.1091 89.709C72.8661 89.9868 72.6316 90.2212 72.4059 90.4122C72.1802 90.6032 71.911 90.8029 71.5985 91.0113C71.2859 91.2197 71.0081 91.3238 70.765 91.3238H70.4004L70.7129 90.8029C70.9213 90.4904 71.147 90.091 71.3901 89.6048C71.6332 89.1186 71.8242 88.7019 71.9631 88.3546C72.102 87.9726 72.2236 87.608 72.3278 87.2607C72.432 86.9829 72.5361 86.5835 72.6403 86.0626L72.7445 85.3854H73.6821H74.6198L74.5677 85.698C74.533 85.9758 74.4982 86.2363 74.4635 86.4793C74.3941 86.8266 74.3593 87.035 74.3593 87.1044C74.533 87.1739 74.6719 87.2086 74.7761 87.2086H75.297V85.2292V83.2497H76.2346H77.2244Z" fill="white"/>
<path d="M27.0957 81.9873H41.5655V80.9744H27.0957V81.9873Z" fill="white"/>
<path d="M29.6121 85.6458V86.0105L29.6642 86.4272H34.3524H39.0407V86.0105V85.6458H40.1346H41.2806V89.2401C41.2806 91.6363 41.2372 92.9213 41.1504 93.0949C41.0635 93.2685 40.968 93.4248 40.8639 93.5637C40.7597 93.7026 40.6034 93.8242 40.395 93.9284C40.1867 94.0673 39.9262 94.1367 39.6137 94.1367C39.44 94.1714 39.3272 94.1975 39.2751 94.2149C39.223 94.2322 39.1969 94.2583 39.1969 94.293C39.1969 94.3277 39.3532 94.7271 39.6658 95.4911C39.9436 96.2204 40.0999 96.6197 40.1346 96.6892C40.1346 96.7586 40.0478 96.8107 39.8741 96.8455C39.7352 96.8802 39.5269 96.9323 39.249 97.0017C39.0059 97.1059 38.7802 97.2275 38.5718 97.3664C38.3288 97.5053 37.9815 97.8005 37.53 98.2519C37.1133 98.7034 36.766 99.1201 36.4882 99.5021C36.2451 99.8494 36.1236 100.032 36.1236 100.049C36.1236 100.066 37.3217 100.075 39.7179 100.075H43.3642V100.596V101.065H33.8315H24.2988V100.596V100.075H28.2057C30.7755 100.075 32.0691 100.066 32.0865 100.049C32.1038 100.032 32.0604 99.8668 31.9563 99.5542C31.8521 99.2417 31.7132 98.9117 31.5395 98.5645C31.4006 98.2172 31.227 97.9047 31.0186 97.6268C30.8102 97.3143 30.5671 97.0191 30.2893 96.7413C29.9768 96.394 29.7337 96.1509 29.56 96.012C29.3864 95.8384 29.2128 95.6908 29.0391 95.5692C28.8655 95.4477 28.7787 95.3348 28.7787 95.2306V95.0223L29.4038 95.0744C29.8552 95.0744 30.2546 95.1265 30.6019 95.2306C30.9144 95.3001 31.2964 95.439 31.7479 95.6474C32.1299 95.8557 32.4945 96.1335 32.8418 96.4808C33.1891 96.8281 33.4148 97.0886 33.519 97.2622L33.6753 97.5747L33.2585 98.2519C32.8418 98.9812 32.6161 99.3806 32.5813 99.45C32.373 99.7626 32.2514 99.9536 32.2167 100.023C32.2167 100.023 32.2341 100.032 32.2688 100.049C32.3035 100.066 32.3903 100.075 32.5293 100.075C32.6682 100.075 32.8505 100.075 33.0762 100.075C33.3019 100.075 33.6232 100.075 34.0399 100.075H35.9152V99.9709C35.8805 99.8668 35.9152 99.6063 36.0194 99.1896C36.1236 98.7381 36.2625 98.2519 36.4361 97.731C36.6445 97.1754 36.8355 96.6892 37.0091 96.2725C37.2522 95.821 37.4692 95.4477 37.6603 95.1525C37.8513 94.8573 38.0509 94.6055 38.2593 94.3972C38.4677 94.1888 38.65 94.0499 38.8063 93.9804C38.9625 93.911 39.0407 93.7894 39.0407 93.6158V93.3033H34.2483H29.4559L29.2475 93.5637C29.1086 93.7373 28.9176 93.8763 28.6745 93.9804C28.4314 94.0846 28.1709 94.1367 27.8931 94.1367H27.4243V89.9173C27.4243 87.1044 27.4417 85.6806 27.4764 85.6458C27.5111 85.6111 27.8758 85.5938 28.5703 85.5938L29.6121 85.6458ZM29.6642 92.3656H39.0407V87.469H29.6642V92.3656Z" fill="white"/>
<path d="M15.9399 82.5721C15.9747 82.6068 16.0268 82.9193 16.0962 83.5097C16.1657 84.1001 16.1917 84.4039 16.1744 84.4213C16.157 84.4387 15.801 84.5168 15.1065 84.6557C14.3425 84.8293 13.509 84.9856 12.6061 85.1245C11.4601 85.2982 10.8003 85.4023 10.6266 85.4371L10.1057 85.4892V87.4686V89.396H10.2099C10.3141 89.396 11.5122 89.2397 13.8042 88.9272C16.0962 88.6146 17.2596 88.4757 17.2943 88.5105C17.329 88.5452 17.3638 88.7188 17.3985 89.0314C17.4332 89.3439 17.4419 89.5089 17.4245 89.5262C17.4072 89.5436 16.2004 89.7086 13.8042 90.0211C13.2486 90.1253 12.6669 90.2121 12.0591 90.2816C11.4514 90.351 10.9913 90.4118 10.6787 90.4639C10.3662 90.516 10.1925 90.542 10.1578 90.542C10.1231 90.542 10.1057 91.2713 10.1057 92.7298V94.9177H10.3141C10.5572 94.883 12.2241 94.6572 15.3148 94.2405C18.4751 93.789 20.0638 93.5894 20.0812 93.6414C20.0986 93.6935 20.1246 93.8585 20.1593 94.1363C20.1941 94.4141 20.1941 94.5878 20.1593 94.6572C20.1246 94.6572 19.6384 94.7267 18.7008 94.8656C18.6661 94.8656 16.9991 95.0913 13.7 95.5428C11.3038 95.8553 10.1057 96.0116 10.1057 96.0116C10.1057 96.0116 10.1057 96.984 10.1057 98.9287L10.0536 101.794H14.3772H18.6487V101.481C18.6834 101.273 18.7355 101.064 18.805 100.856C18.9091 100.648 19.0133 100.491 19.1175 100.387C19.2217 100.283 19.378 100.179 19.5863 100.075C19.76 99.9705 19.9857 99.9184 20.2635 99.9184H20.6803V101.325C20.6803 102.193 20.6976 102.836 20.7323 103.252V103.773H14.7939H8.85552L8.54298 103.929C8.29988 104.034 8.10888 104.103 7.96997 104.138H7.76161V100.231C7.76161 97.6612 7.74424 96.3762 7.70951 96.3762C7.64006 96.3762 6.96287 96.4631 5.67795 96.6367C4.14994 96.8451 2.93448 97.0013 2.03156 97.1055C0.850825 97.2791 0.243093 97.366 0.208365 97.366C0.173638 97.366 0.13891 97.2618 0.104183 97.0534C0.0694551 96.7409 0.0347275 96.5672 0 96.5325C0 96.3936 0.0694551 96.3068 0.208365 96.2721C0.27782 96.2721 1.07655 96.1679 2.60457 95.9595C3.0213 95.89 3.65507 95.7945 4.5059 95.673C5.35672 95.5515 5.92105 95.4733 6.19887 95.4386C6.85869 95.3691 7.34488 95.2997 7.65742 95.2302H7.76161V93.0424V90.9067H7.65742C7.48379 90.9067 6.51141 91.0282 4.74031 91.2713C2.89975 91.5144 1.96211 91.6186 1.92738 91.5838C1.92738 91.5838 1.90133 91.4276 1.84924 91.115C1.79715 90.8025 1.78847 90.6288 1.8232 90.5941C1.85792 90.5594 2.7782 90.4205 4.58404 90.1774C6.35514 89.9343 7.34488 89.8127 7.55324 89.8127L7.76161 89.7606V87.7291V85.6975L7.55324 85.7496C7.3796 85.7843 6.85869 85.8017 5.9905 85.8017C5.08759 85.8017 4.46249 85.767 4.11521 85.6975C3.80267 85.6628 3.50748 85.6281 3.22966 85.5933C2.95184 85.5239 2.72611 85.4544 2.55247 85.385C2.37884 85.3155 2.2052 85.2113 2.03156 85.0724C1.96211 85.0377 1.90133 85.003 1.84924 84.9682C1.79715 84.9335 1.77979 84.9162 1.79715 84.9162C1.81451 84.9162 1.91001 84.8988 2.08365 84.8641C2.50038 84.8293 2.95184 84.7772 3.43803 84.7078C4.27149 84.6036 5.13968 84.4994 6.04259 84.3952C7.11915 84.2563 7.68347 84.1695 7.73556 84.1348C7.78765 84.1001 7.90052 84.0827 8.07415 84.0827C8.24779 84.0827 8.75134 84.0132 9.5848 83.8743C10.6614 83.666 11.4427 83.5097 11.9289 83.4055C12.8318 83.2319 13.5785 83.0756 14.1688 82.9367C14.8287 82.7978 15.2975 82.6936 15.5753 82.6241C15.7837 82.5547 15.9052 82.5373 15.9399 82.5721Z" fill="white"/>
<path d="M112.872 82.4219V82.9428C112.872 83.2901 112.907 83.5852 112.977 83.8283C113.046 84.1062 113.15 84.384 113.289 84.6618C113.428 84.9396 113.602 85.1827 113.81 85.3911C114.053 85.6342 114.314 85.8252 114.591 85.9641C114.904 86.103 115.095 86.1811 115.164 86.1985C115.234 86.2159 115.269 86.2766 115.269 86.3808V86.5892L114.904 86.5371C114.73 86.5024 114.435 86.4155 114.018 86.2766C113.671 86.1724 113.359 86.0335 113.081 85.8599C112.803 85.6863 112.56 85.4953 112.352 85.2869C112.178 85.0785 112.022 84.8528 111.883 84.6097C111.744 84.3666 111.657 84.1062 111.622 83.8283L111.518 83.4116H110.372L109.174 83.3595L109.07 83.7762C109.035 84.0541 108.957 84.3232 108.835 84.5837C108.714 84.8441 108.514 85.0959 108.236 85.339C107.993 85.6168 107.681 85.8425 107.299 86.0162C106.917 86.1898 106.569 86.3287 106.257 86.4329C105.944 86.5024 105.727 86.5371 105.606 86.5371C105.484 86.5371 105.423 86.485 105.423 86.3808C105.423 86.2766 105.528 86.1898 105.736 86.1204C105.944 86.0509 106.153 85.9467 106.361 85.8078C106.535 85.7036 106.726 85.5473 106.934 85.339C107.142 85.0959 107.281 84.9049 107.351 84.766C107.49 84.5576 107.603 84.3058 107.689 84.0107C107.776 83.7155 107.82 83.3769 107.82 82.9949V82.4219H110.32H112.872ZM105.475 82.474L105.528 82.9428V83.3595H101.621H97.766L97.7139 87.2664C97.7139 89.8362 97.6965 91.1732 97.6618 91.2774C97.6271 91.3816 97.6184 91.4337 97.6358 91.4337C97.6531 91.4337 97.7313 91.4337 97.8702 91.4337C98.0091 91.4337 98.2695 91.26 98.6515 90.9127C98.9988 90.5655 99.294 90.2356 99.5371 89.923C99.7802 89.6105 99.9885 89.2979 100.162 88.9854L100.423 88.5166L99.1724 88.4645H97.8702V87.9956V87.5268L99.3287 87.4747H100.839L100.891 87.1622C100.961 86.9538 101.013 86.7454 101.048 86.5371C101.082 86.294 101.1 86.1377 101.1 86.0683V85.912H100.11H99.1204L99.0162 86.2245C98.9467 86.3982 98.8512 86.5544 98.7297 86.6934C98.6081 86.8323 98.4953 86.9365 98.3911 87.0059C98.2522 87.0406 98.148 87.058 98.0785 87.058C98.0091 87.058 97.9743 86.6065 97.9743 85.7036L98.0264 84.2972H98.5994L99.2245 84.2451V84.6097V84.9743H102.142H105.111V85.4432V85.912L103.809 85.9641H102.454L102.298 86.6413C102.194 87.058 102.124 87.3011 102.09 87.3705L102.35 87.4747C102.489 87.4747 102.958 87.4747 103.756 87.4747L105.475 87.5268V87.9956V88.4645H103.548C102.263 88.4645 101.603 88.4992 101.569 88.5686C101.534 88.6381 101.534 88.6902 101.569 88.7249C101.569 88.7249 101.725 88.7596 102.037 88.8291C102.35 88.8986 102.68 88.9854 103.027 89.0896C103.444 89.2285 103.756 89.3674 103.965 89.5063C104.173 89.6452 104.364 89.7841 104.538 89.923L104.798 90.1314L104.277 90.6523L103.756 91.1732L103.6 90.9648C103.531 90.7912 103.374 90.5828 103.131 90.3397C102.888 90.0967 102.628 89.8709 102.35 89.6626C102.072 89.4542 101.846 89.2979 101.673 89.1937L101.308 89.0375L101.048 89.4542C100.839 89.7667 100.579 90.0619 100.266 90.3397C99.9191 90.687 99.6065 90.9475 99.3287 91.1211L98.912 91.4337H102.194H105.528V91.9546V92.4234H101.308H97.0888L96.7242 92.6318C96.4463 92.7707 96.1512 92.8401 95.8386 92.8401H95.4219V87.631V82.4219H100.475L105.475 82.474ZM113.81 87.1622V87.631C113.81 87.9088 113.81 88.0651 113.81 88.0998C113.741 88.1345 113.645 88.2735 113.524 88.5166C113.402 88.7596 113.237 89.0375 113.029 89.35C112.786 89.6626 112.577 89.8883 112.404 90.0272C112.265 90.1661 112.091 90.3397 111.883 90.5481L111.518 90.8086L111.883 90.9127C112.022 90.9822 112.299 91.069 112.716 91.1732C113.029 91.2774 113.376 91.3642 113.758 91.4337C114.105 91.5031 114.348 91.5378 114.487 91.5378C114.591 91.5378 114.652 91.5465 114.67 91.5639C114.687 91.5813 114.678 91.642 114.644 91.7462C114.644 91.8157 114.626 92.024 114.591 92.3713L114.539 92.788L114.123 92.7359C113.845 92.7359 113.515 92.6839 113.133 92.5797C112.855 92.5102 112.56 92.4234 112.247 92.3192C111.935 92.2498 111.553 92.0935 111.101 91.8504L110.32 91.4858L109.851 91.6941C109.573 91.833 109.226 91.9719 108.809 92.1108C108.393 92.2498 108.028 92.3713 107.715 92.4755C107.368 92.5449 107.056 92.6144 106.778 92.6839C106.465 92.7533 106.274 92.788 106.205 92.788C106.101 92.788 106.049 92.7359 106.049 92.6318C106.049 92.5276 106.075 92.4581 106.127 92.4234C106.179 92.3887 106.396 92.3019 106.778 92.1629C107.195 92.024 107.681 91.7983 108.236 91.4858C108.861 91.1732 109.209 90.9996 109.278 90.9648C109.348 90.8954 109.382 90.8607 109.382 90.8607C109.382 90.8259 109.226 90.687 108.914 90.4439C108.601 90.2356 108.288 89.9577 107.976 89.6105C107.663 89.2632 107.386 88.9333 107.142 88.6207C106.865 88.3082 106.656 88.1519 106.517 88.1519H106.309V87.6831V87.1622H110.06H113.81ZM109.695 88.1519C108.167 88.1519 107.403 88.1606 107.403 88.178C107.403 88.1953 107.577 88.3429 107.924 88.6207C108.236 88.8638 108.618 89.1416 109.07 89.4542C109.521 89.7667 109.834 89.9751 110.007 90.0793L110.268 90.2356L110.476 90.0272C110.65 89.8883 110.806 89.7494 110.945 89.6105C111.049 89.5063 111.206 89.3153 111.414 89.0375C111.588 88.7944 111.726 88.586 111.831 88.4124L111.987 88.1519H109.695Z" fill="white"/>
<path d="M114.233 93.998V94.2632V94.7215H110.924H107.663V95.2443V95.9602H109.27H110.877V95.8276V95.7215H111.917H112.909V99.3541C112.941 101.776 112.925 103.049 112.862 103.172C112.83 103.296 112.783 103.411 112.72 103.517C112.657 103.623 112.531 103.72 112.342 103.809C112.185 103.915 112.027 103.994 111.869 104.047C111.68 104.1 111.476 104.127 111.255 104.127H110.877V103.782V103.464H104.78H98.6358L98.494 103.597C98.431 103.685 98.3364 103.769 98.2104 103.848C98.0844 103.928 97.9268 103.994 97.7378 104.047C97.5487 104.1 97.3282 104.127 97.0761 104.127H96.698L96.7452 99.9375V95.7215H97.7378H98.7776V95.8276V95.9602H100.526H102.275V95.2443V94.7215H98.8248H95.4219V94.2632C95.4219 94.1041 95.4298 94.0201 95.4455 94.0113C95.4613 94.0025 98.6043 93.998 104.875 93.998H114.233ZM98.7776 96.464V99.6988V102.934H104.827H110.877V99.6988V96.464H109.27H107.663V97.7102V98.339H108.845H110.026V99.1951V99.4337H108.75H107.474L107.332 99.5663C107.238 99.6547 107.127 99.7342 107.001 99.8049C106.844 99.8579 106.702 99.9021 106.576 99.9375C106.418 99.9905 106.229 100.017 106.009 100.017H105.631V98.2405V96.464H104.969H104.355L104.307 96.8617C104.276 97.1445 104.229 97.3743 104.166 97.5511C104.103 97.7279 104.024 97.8958 103.929 98.0549C103.803 98.214 103.646 98.3996 103.457 98.6117C103.268 98.8238 103.063 99.0183 102.842 99.1951C102.622 99.3541 102.37 99.5132 102.086 99.6723C101.771 99.8314 101.487 99.964 101.235 100.07C100.983 100.176 100.7 100.273 100.385 100.362C100.132 100.45 99.9434 100.503 99.8174 100.521L99.6756 100.547V100.335V100.123L99.9591 99.9905C100.117 99.9375 100.321 99.8491 100.574 99.7254C100.794 99.6193 100.999 99.4956 101.188 99.3541C101.377 99.2127 101.519 99.0802 101.613 98.9564C101.771 98.815 101.889 98.6736 101.968 98.5322C102.047 98.3908 102.117 98.2228 102.181 98.0284C102.244 97.8516 102.275 97.5511 102.275 97.1269V96.464H100.526H98.7776ZM104.307 95.9602H105.631V94.7215H104.307V95.9602ZM109.979 101.956L99.6756 101.983V101.051H109.979V101.956Z" fill="white"/>
<path d="M57.8424 83.0231C57.6462 82.622 57.5317 82.4214 57.499 82.4214L57.0085 82.622C56.6815 82.7222 56.2727 82.856 55.7822 83.0231C55.3244 83.1568 54.8012 83.2905 54.2126 83.4242C53.624 83.5914 53.0845 83.7251 52.594 83.8254C52.0708 83.9257 51.4658 84.0427 50.7791 84.1764C50.0597 84.2767 49.5038 84.3435 49.1114 84.377C48.6536 84.4438 48.392 84.5107 48.3266 84.5775L48.2285 84.728H49.0133C49.5365 84.7614 50.2232 84.7781 51.0734 84.7781H52.2997L53.9674 84.728L54.2126 84.6778C54.2453 84.6778 54.3516 84.6695 54.5315 84.6527C54.7113 84.636 54.8503 84.6277 54.9484 84.6277C55.21 84.5942 55.5206 84.5274 55.8803 84.4271C56.2073 84.3602 56.6651 84.2098 57.2538 83.9758C57.8424 83.7418 58.153 83.6248 58.1857 83.6248C58.1857 83.5914 58.0713 83.3908 57.8424 83.0231Z" fill="white"/>
<path d="M54.2526 84.5918V85.2169L54.3047 89.8704H55.3986H56.4926V89.662V89.4016L57.6386 89.3495H58.7325V91.0685C58.7325 92.1798 58.7064 94.9435 58.6543 95.2039C58.6022 95.4644 58.5241 95.6988 58.4199 95.9072C58.3157 96.0808 58.2029 96.2371 58.0813 96.376C57.9598 96.5149 57.7775 96.6538 57.5344 96.7927C57.2913 96.8969 57.0656 96.949 56.8572 96.949C56.6488 96.949 56.5273 96.9143 56.4926 96.8448C56.4926 96.7754 56.4926 96.6538 56.4926 96.4802V96.1676H55.3986H54.3047V96.4223V96.8911V97.36V97.8288V97.8809V98.0371V98.2571H56.0237H57.7948V98.7259V99.1947H56.0237H54.3047L54.2526 99.6635C54.2526 99.9761 54.2005 100.271 54.0964 100.549C54.0269 100.792 53.9922 100.914 53.9922 100.914C53.9922 100.914 54.652 100.81 55.9716 100.601C57.326 100.393 58.0206 100.289 58.0553 100.289C58.1595 100.289 58.2116 100.445 58.2116 100.757L58.1595 101.278L57.5344 101.383C56.944 101.487 55.5549 101.712 53.3671 102.06C52.8114 102.129 51.214 102.372 48.5747 102.789C48.3663 102.824 48.1493 102.867 47.9235 102.919C47.6978 102.971 47.5155 103.006 47.3766 103.023C47.2377 103.041 47.1682 103.049 47.1682 103.049C47.0988 103.049 47.0553 103.032 47.038 102.997C47.0206 102.963 47.0293 102.806 47.064 102.529V102.06L47.3245 102.008C48.0538 101.869 48.8351 101.747 49.6686 101.643C51.0924 101.4 51.8217 101.278 51.8564 101.278L52.0127 101.226V100.237V99.1947H49.929H47.8454V98.7259V98.2571H49.929H52.0127V98.0371V97.8809V97.8288V97.36V96.8911V96.4223V96.1676H50.7625H49.5123L49.356 96.376C49.2171 96.5149 49.0261 96.6451 48.783 96.7667C48.5399 96.8882 48.3142 96.949 48.1059 96.949H47.7933V92.1103V89.4016L48.8872 89.3495H49.9811V89.6099V89.8704H51.023H52.0127V85.2169C52.0127 84.8349 52.0301 84.6352 52.0648 84.6178C52.0995 84.6005 52.4642 84.5918 53.1587 84.5918H54.2526ZM49.9811 90.9122V91.7978C49.9811 92.4229 49.9811 94.8654 49.9811 94.9695L49.929 95.1779H50.9709H52.0127V92.0061V90.9122H51.023H49.9811ZM54.3047 95.1779H56.4926V90.9122H54.3047V95.1779Z" fill="white"/>
<path d="M62.9508 84.6092V82.4214H61.8569C61.1276 82.4214 60.763 82.4388 60.763 82.4735C60.7282 82.4735 60.7109 83.2028 60.7109 84.6613V86.7971H59.5649H58.4189V87.318V87.8389H59.5649H60.7109V92.7875C60.7109 96.1214 60.6761 97.9099 60.6067 98.1529C60.5372 98.396 60.4331 98.6739 60.2941 98.9864C60.1552 99.2642 59.9382 99.5941 59.643 99.9761C59.3478 100.358 59.0613 100.688 58.7835 100.966C58.4709 101.278 58.141 101.574 57.7938 101.851C57.4465 102.129 57.0818 102.39 56.6998 102.633C56.2831 102.911 55.8664 103.171 55.4496 103.414C54.9982 103.657 54.7725 103.831 54.7725 103.935C54.7725 104.039 54.7898 104.091 54.8246 104.091C54.894 104.091 55.1371 104.022 55.5538 103.883C56.0053 103.709 56.3873 103.553 56.6998 103.414C57.1166 103.241 57.4986 103.067 57.8458 102.893C58.1931 102.72 58.5404 102.511 58.8877 102.268C59.2002 102.06 59.5128 101.834 59.8253 101.591C60.1726 101.313 60.4678 101.035 60.7109 100.758C60.9887 100.445 61.2318 100.167 61.4401 99.9241C61.6832 99.5768 61.8395 99.3337 61.909 99.1948C62.0479 98.9864 62.2042 98.6912 62.3778 98.3092C62.5167 97.9272 62.6383 97.5452 62.7424 97.1632L62.8987 96.5902L62.9508 92.2145V87.8389H64.0447H65.0865V95.34V102.841H65.5033H65.92L66.2326 102.529C66.4409 102.32 66.6146 102.095 66.7535 101.851C66.8924 101.574 67.0139 101.313 67.1181 101.07C67.1876 100.792 67.2396 100.549 67.2744 100.341C67.3091 100.202 67.3265 99.5334 67.3265 98.3353V93.2043V86.4324H66.2326H65.0865V86.6408V86.7971H64.0447H62.9508V84.6092Z" fill="white"/>
<path d="M48.2285 87.7519H58.0101V86.7622H48.2285V87.7519Z" fill="white"/>
<path d="M49.6748 93.54H58.0094V92.5503H49.6748V93.54Z" fill="white"/>
<path d="M134.166 82.5205V82.7289C134.166 82.8678 134.131 83.0761 134.062 83.354C133.992 83.6318 133.888 83.8922 133.749 84.1353C133.645 84.4132 133.489 84.6389 133.28 84.8125L133.02 85.073L135.572 85.0209C137.309 85.0209 138.298 85.0035 138.541 84.9688H138.958L139.062 85.5418C139.132 85.9933 139.219 86.3753 139.323 86.6878C139.427 87.0351 139.548 87.3476 139.687 87.6255C139.826 87.9033 139.887 88.0509 139.87 88.0682C139.852 88.0856 139.67 88.0248 139.323 87.8859C138.975 87.7817 138.68 87.6602 138.437 87.5213C138.194 87.3476 137.968 87.174 137.76 87.0004C137.552 86.792 137.378 86.5836 137.239 86.3753L137.083 86.0627H133.332H129.634L129.425 86.4794C129.286 86.7225 129.078 86.983 128.8 87.2608C128.522 87.5386 128.193 87.7644 127.811 87.938C127.429 88.1116 127.151 88.2332 126.977 88.3026C126.838 88.3374 126.76 88.346 126.743 88.3287C126.725 88.3113 126.786 88.129 126.925 87.7817C127.099 87.4344 127.238 87.0351 127.342 86.5836C127.481 86.1322 127.55 85.7675 127.55 85.4897V85.073H129.738H131.926V83.7707V82.5205H133.072H134.166ZM121.508 83.4582V83.7186V83.9791H122.445H123.383V83.7707V83.5102H124.477H125.623V85.8023C125.623 87.2955 125.588 88.1811 125.519 88.4589C125.484 88.7367 125.414 88.9798 125.31 89.1882C125.206 89.3966 125.067 89.5876 124.893 89.7612C124.685 89.9696 124.511 90.0911 124.373 90.1258C124.268 90.1953 124.216 90.2387 124.216 90.2561C124.216 90.2734 124.26 90.2908 124.346 90.3082C124.433 90.3255 124.598 90.4384 124.841 90.6467C125.05 90.8551 125.206 91.0635 125.31 91.2718C125.414 91.4802 125.484 91.7233 125.519 92.0011C125.588 92.2789 125.623 93.1645 125.623 94.6578V96.9498H123.904L122.185 96.8977V96.4289V95.9601H122.758H123.383V90.4905V85.0209H122.445H121.508V93.3034C121.508 98.7903 121.481 101.664 121.429 101.924C121.377 102.185 121.299 102.402 121.195 102.576C121.091 102.784 120.978 102.958 120.856 103.097C120.735 103.235 120.553 103.357 120.309 103.461C120.066 103.6 119.841 103.67 119.632 103.67H119.268V93.5118V83.4061H120.361L121.508 83.4582ZM140 93.3034V93.8243V94.2931H137.708H135.416L135.364 97.8353C135.364 99.5023 135.355 100.518 135.338 100.883C135.32 101.247 135.277 101.516 135.208 101.69C135.138 101.933 135.034 102.159 134.895 102.367L134.687 102.628H136.51H138.281V102.211C138.316 101.898 138.368 101.638 138.437 101.43C138.507 101.256 138.637 101.074 138.828 100.883C139.019 100.692 139.219 100.544 139.427 100.44C139.635 100.336 139.766 100.284 139.818 100.284C139.87 100.284 139.896 100.839 139.896 101.951V103.67H136.458H133.072L133.02 98.9813V94.2931H132.499H131.926L131.874 94.5015C131.874 94.6751 131.874 94.8488 131.874 95.0224C131.874 95.2655 131.822 95.6475 131.717 96.1684C131.648 96.7588 131.561 97.2623 131.457 97.6791C131.318 98.1652 131.179 98.6167 131.04 99.0334C130.901 99.4154 130.728 99.7974 130.519 100.179C130.346 100.561 130.155 100.909 129.946 101.221C129.738 101.499 129.46 101.829 129.113 102.211C128.8 102.558 128.47 102.836 128.123 103.044C127.845 103.253 127.567 103.426 127.29 103.565C126.977 103.67 126.682 103.774 126.404 103.878C126.092 103.947 125.762 104.017 125.414 104.086C125.102 104.121 124.911 104.112 124.841 104.06C124.772 104.008 124.824 103.947 124.998 103.878C125.032 103.843 125.084 103.808 125.154 103.774C125.501 103.6 125.762 103.461 125.935 103.357C126.178 103.183 126.448 102.949 126.743 102.654C127.038 102.359 127.324 102.003 127.602 101.586C127.88 101.169 128.106 100.787 128.279 100.44C128.453 100.058 128.627 99.6064 128.8 99.0855C128.974 98.5299 129.113 98.0263 129.217 97.5749C129.321 97.1582 129.408 96.7241 129.477 96.2726C129.512 95.9601 129.547 95.5607 129.582 95.0745C129.616 94.6578 129.634 94.4147 129.634 94.3452C129.599 94.3105 129.043 94.2931 127.967 94.2931H126.352V93.8243V93.3034H133.176H140ZM137.187 90.5426H128.175V89.5007H137.187V90.5426Z" fill="white"/>
</svg>
