<svg width="1520" height="731" viewBox="0 0 1520 731" fill="none" xmlns="http://www.w3.org/2000/svg">
<path fill-rule="evenodd" clip-rule="evenodd" d="M451.989 293.869C474.452 306.504 486.2 332.328 489.997 357.88C493.36 380.52 479.603 399.992 470.908 421.197C460.083 447.596 459.575 482.427 433.874 494.74C406.674 507.77 375.917 491.849 348.287 479.941C316.149 466.09 277.373 455.12 265.46 422.156C253.179 388.175 266.907 348.026 290.774 320.805C311.479 297.189 346.449 299.689 377.361 294.524C402.883 290.26 429.469 281.202 451.989 293.869Z" fill="#FFEC9D"/>
<path fill-rule="evenodd" clip-rule="evenodd" d="M567.396 190.355C567.629 189.749 567.853 189.14 568.069 188.529C568.282 187.929 568.487 187.324 568.683 186.717L552.585 181.53C552.443 181.971 552.29 182.422 552.127 182.883C551.956 183.366 551.783 183.834 551.609 184.287L567.396 190.355ZM570.696 171.655L553.877 173.439C553.854 173.221 553.824 173.016 553.789 172.82C553.766 172.698 553.736 172.564 553.695 172.416L570.002 167.931C570.167 168.531 570.308 169.141 570.422 169.762C570.538 170.392 570.629 171.023 570.696 171.655ZM562.745 154.874L549.247 165.065C548.905 164.612 548.553 164.152 548.181 163.665C548.122 163.589 548.064 163.513 548.007 163.439C547.675 163.005 547.363 162.598 547.049 162.19L560.44 151.86C560.774 152.293 561.106 152.726 561.437 153.159C561.494 153.232 561.55 153.306 561.606 153.38C561.987 153.876 562.367 154.374 562.745 154.874ZM549.573 141.205L541.118 155.852C541.01 155.79 540.916 155.742 540.835 155.705C540.569 155.583 540.297 155.469 540.019 155.363L546.045 139.561C546.662 139.796 547.271 140.051 547.872 140.326C548.457 140.593 549.023 140.887 549.573 141.205ZM530.46 137.87L533.031 154.586C532.755 154.629 532.484 154.68 532.219 154.74C532.152 154.755 532.069 154.777 531.967 154.811L526.655 138.754C527.262 138.553 527.881 138.38 528.513 138.238C529.158 138.093 529.807 137.971 530.46 137.87ZM513.773 147.071L524.679 159.997C524.567 160.091 524.453 160.188 524.337 160.286C523.961 160.603 523.562 160.94 523.169 161.27C523.039 161.379 522.913 161.485 522.789 161.589C522.427 161.892 522.083 162.18 521.735 162.474L510.835 149.542C511.201 149.234 511.567 148.926 511.934 148.619C512.055 148.517 512.176 148.416 512.298 148.314C512.669 148.002 513.041 147.688 513.413 147.374C513.533 147.273 513.653 147.172 513.773 147.071ZM500.544 160.728L515.285 169.018C515.203 169.164 515.136 169.298 515.08 169.422C514.939 169.731 514.807 170.045 514.685 170.362L498.911 164.259C499.15 163.643 499.406 163.033 499.679 162.431C499.944 161.847 500.233 161.28 500.544 160.728ZM496.814 179.829L513.618 177.917C513.651 178.206 513.693 178.489 513.743 178.767C513.782 178.981 513.831 179.2 513.89 179.426L497.524 183.693C497.361 183.066 497.22 182.432 497.103 181.79C496.985 181.139 496.889 180.485 496.814 179.829ZM504.979 197.238L517.872 186.292C518.149 186.618 518.438 186.946 518.739 187.274C518.922 187.474 519.114 187.672 519.317 187.868L507.567 200.032C507.122 199.603 506.689 199.158 506.268 198.699C505.83 198.22 505.399 197.733 504.979 197.238ZM520.056 207.999L526.81 192.494C527.231 192.677 527.665 192.859 528.111 193.04C528.616 193.244 529.105 193.437 529.582 193.619L523.533 209.413C522.944 209.188 522.357 208.956 521.773 208.719C521.197 208.487 520.624 208.247 520.056 207.999ZM538.251 212.515L537.808 195.608C538.007 195.603 538.192 195.591 538.367 195.572C538.7 195.537 539.033 195.492 539.363 195.439L542.085 212.131C541.439 212.236 540.79 212.323 540.139 212.392C539.508 212.458 538.879 212.499 538.251 212.515ZM556.442 206.13L546.322 192.579C546.553 192.406 546.776 192.228 546.99 192.045C547.138 191.919 547.289 191.779 547.443 191.626L559.404 203.583C558.947 204.04 558.471 204.481 557.976 204.904C557.477 205.33 556.966 205.739 556.442 206.13Z" fill="#FFEC9D"/>
<path fill-rule="evenodd" clip-rule="evenodd" d="M1322.06 460.299C1322.2 459.952 1322.32 459.603 1322.45 459.253C1322.57 458.909 1322.69 458.563 1322.8 458.215L1313.58 455.242C1313.49 455.496 1313.41 455.754 1313.31 456.018C1313.22 456.295 1313.12 456.563 1313.02 456.822L1322.06 460.299ZM1323.95 449.585L1314.32 450.607C1314.3 450.482 1314.29 450.364 1314.27 450.253C1314.25 450.183 1314.24 450.106 1314.21 450.021L1323.56 447.451C1323.65 447.795 1323.73 448.145 1323.8 448.5C1323.86 448.861 1323.91 449.223 1323.95 449.585ZM1319.4 439.97L1311.66 445.809C1311.47 445.55 1311.27 445.286 1311.05 445.007C1311.02 444.963 1310.99 444.92 1310.95 444.877C1310.76 444.629 1310.58 444.396 1310.4 444.162L1318.08 438.244C1318.27 438.492 1318.46 438.74 1318.65 438.988C1318.68 439.03 1318.71 439.072 1318.75 439.114C1318.96 439.398 1319.18 439.684 1319.4 439.97ZM1311.85 432.138L1307.01 440.531C1306.94 440.495 1306.89 440.468 1306.84 440.446C1306.69 440.377 1306.54 440.311 1306.38 440.251L1309.83 431.196C1310.18 431.331 1310.53 431.478 1310.88 431.635C1311.21 431.788 1311.54 431.957 1311.85 432.138ZM1300.9 430.228L1302.37 439.806C1302.21 439.83 1302.06 439.859 1301.91 439.893C1301.87 439.902 1301.82 439.915 1301.76 439.934L1298.72 430.734C1299.07 430.619 1299.42 430.52 1299.78 430.439C1300.15 430.356 1300.53 430.286 1300.9 430.228ZM1291.34 435.499L1297.59 442.906C1297.52 442.959 1297.46 443.015 1297.39 443.071C1297.18 443.253 1296.95 443.446 1296.72 443.635C1296.65 443.697 1296.58 443.758 1296.5 443.817C1296.3 443.991 1296.1 444.156 1295.9 444.325L1289.66 436.916C1289.87 436.739 1290.08 436.563 1290.29 436.387C1290.35 436.328 1290.42 436.27 1290.49 436.212C1290.71 436.033 1290.92 435.853 1291.13 435.673C1291.2 435.615 1291.27 435.557 1291.34 435.499ZM1283.76 443.324L1292.21 448.074C1292.16 448.158 1292.12 448.234 1292.09 448.305C1292.01 448.483 1291.93 448.662 1291.86 448.844L1282.82 445.348C1282.96 444.994 1283.11 444.645 1283.26 444.3C1283.42 443.966 1283.58 443.641 1283.76 443.324ZM1281.62 454.268L1291.25 453.173C1291.27 453.338 1291.29 453.501 1291.32 453.66C1291.34 453.782 1291.37 453.908 1291.41 454.037L1282.03 456.482C1281.94 456.123 1281.85 455.76 1281.79 455.392C1281.72 455.019 1281.67 454.644 1281.62 454.268ZM1286.3 464.242L1293.69 457.971C1293.85 458.158 1294.01 458.346 1294.18 458.534C1294.29 458.648 1294.4 458.762 1294.52 458.874L1287.78 465.843C1287.53 465.597 1287.28 465.343 1287.04 465.079C1286.79 464.805 1286.54 464.526 1286.3 464.242ZM1294.94 470.408L1298.81 461.524C1299.05 461.629 1299.3 461.734 1299.55 461.837C1299.84 461.954 1300.12 462.065 1300.4 462.169L1296.93 471.218C1296.59 471.089 1296.26 470.956 1295.92 470.821C1295.59 470.687 1295.26 470.55 1294.94 470.408ZM1305.36 472.995L1305.11 463.309C1305.22 463.306 1305.33 463.299 1305.43 463.288C1305.62 463.268 1305.81 463.242 1306 463.212L1307.56 472.775C1307.19 472.836 1306.82 472.886 1306.45 472.925C1306.08 472.963 1305.72 472.986 1305.36 472.995ZM1315.79 469.337L1309.99 461.573C1310.12 461.474 1310.25 461.372 1310.37 461.267C1310.46 461.195 1310.54 461.115 1310.63 461.027L1317.48 467.878C1317.22 468.14 1316.95 468.392 1316.66 468.635C1316.38 468.879 1316.09 469.113 1315.79 469.337Z" fill="#FFEC9D"/>
<path fill-rule="evenodd" clip-rule="evenodd" d="M1028.06 712.299C1028.2 711.952 1028.32 711.603 1028.45 711.253C1028.57 710.909 1028.69 710.563 1028.8 710.215L1019.58 707.243C1019.49 707.496 1019.41 707.754 1019.31 708.018C1019.22 708.295 1019.12 708.563 1019.02 708.822L1028.06 712.299ZM1029.95 701.585L1020.32 702.607C1020.3 702.482 1020.29 702.365 1020.27 702.253C1020.25 702.183 1020.24 702.106 1020.21 702.021L1029.56 699.451C1029.65 699.795 1029.73 700.145 1029.8 700.5C1029.86 700.861 1029.91 701.223 1029.95 701.585ZM1025.4 691.971L1017.66 697.809C1017.47 697.55 1017.27 697.286 1017.05 697.007C1017.02 696.963 1016.99 696.92 1016.95 696.877C1016.76 696.629 1016.58 696.396 1016.4 696.162L1024.08 690.244C1024.27 690.492 1024.46 690.74 1024.65 690.988C1024.68 691.03 1024.71 691.072 1024.75 691.114C1024.96 691.399 1025.18 691.684 1025.4 691.971ZM1017.85 684.139L1013.01 692.531C1012.94 692.495 1012.89 692.468 1012.84 692.447C1012.69 692.377 1012.54 692.312 1012.38 692.251L1015.83 683.197C1016.18 683.331 1016.53 683.478 1016.88 683.635C1017.21 683.788 1017.54 683.957 1017.85 684.139ZM1006.9 682.228L1008.37 691.806C1008.21 691.83 1008.06 691.859 1007.91 691.893C1007.87 691.902 1007.82 691.915 1007.76 691.934L1004.72 682.734C1005.07 682.619 1005.42 682.52 1005.78 682.439C1006.15 682.356 1006.53 682.286 1006.9 682.228ZM997.339 687.499L1003.59 694.906C1003.52 694.96 1003.46 695.015 1003.39 695.071C1003.18 695.253 1002.95 695.446 1002.72 695.635C1002.65 695.697 1002.58 695.758 1002.5 695.818C1002.3 695.991 1002.1 696.157 1001.9 696.325L995.656 688.916C995.865 688.739 996.075 688.563 996.285 688.387C996.355 688.328 996.424 688.27 996.494 688.212C996.707 688.033 996.92 687.853 997.133 687.673C997.202 687.615 997.27 687.557 997.339 687.499ZM989.759 695.324L998.205 700.074C998.158 700.158 998.12 700.235 998.088 700.305C998.007 700.483 997.932 700.662 997.862 700.844L988.824 697.348C988.961 696.995 989.107 696.645 989.264 696.3C989.416 695.966 989.582 695.641 989.759 695.324ZM987.623 706.268L997.25 705.173C997.269 705.338 997.293 705.501 997.322 705.66C997.344 705.782 997.372 705.908 997.406 706.038L988.029 708.482C987.936 708.123 987.855 707.76 987.788 707.392C987.72 707.019 987.665 706.644 987.623 706.268ZM992.3 716.242L999.688 709.971C999.846 710.158 1000.01 710.346 1000.18 710.534C1000.29 710.648 1000.4 710.762 1000.52 710.874L993.783 717.844C993.529 717.597 993.28 717.343 993.039 717.08C992.788 716.805 992.542 716.526 992.3 716.242ZM1000.94 722.408L1004.81 713.524C1005.05 713.63 1005.3 713.734 1005.55 713.837C1005.84 713.954 1006.12 714.065 1006.4 714.169L1002.93 723.219C1002.59 723.089 1002.26 722.956 1001.92 722.821C1001.59 722.688 1001.26 722.55 1000.94 722.408ZM1011.36 724.996L1011.11 715.309C1011.22 715.306 1011.33 715.299 1011.43 715.288C1011.62 715.268 1011.81 715.243 1012 715.212L1013.56 724.775C1013.19 724.836 1012.82 724.886 1012.45 724.925C1012.08 724.963 1011.72 724.986 1011.36 724.996ZM1021.79 721.337L1015.99 713.573C1016.12 713.474 1016.25 713.372 1016.37 713.268C1016.46 713.195 1016.54 713.115 1016.63 713.027L1023.48 719.878C1023.22 720.14 1022.95 720.392 1022.66 720.635C1022.38 720.879 1022.09 721.113 1021.79 721.337Z" fill="#4ECBD3"/>
<path fill-rule="evenodd" clip-rule="evenodd" d="M64.692 403.636C64.7459 403.088 64.7917 402.541 64.8309 401.993C64.8694 401.455 64.9009 400.916 64.924 400.376L50.6139 399.763C50.5971 400.155 50.5738 400.558 50.5442 400.971C50.5132 401.403 50.4779 401.824 50.4376 402.233L64.692 403.636ZM63.1787 387.626L49.8485 392.866C49.7808 392.693 49.7101 392.532 49.6369 392.381C49.591 392.286 49.5361 392.184 49.4694 392.072L61.7745 384.741C62.0444 385.194 62.2967 385.66 62.5295 386.141C62.7658 386.63 62.9818 387.125 63.1787 387.626ZM52.9111 375.714L44.1841 387.071C43.8031 386.779 43.4119 386.481 42.9981 386.168C42.9332 386.119 42.8691 386.07 42.8056 386.022C42.4373 385.743 42.0908 385.481 41.7424 385.219L50.3515 373.772C50.7213 374.05 51.0898 374.329 51.4576 374.607C51.5202 374.655 51.5827 374.702 51.6453 374.75C52.0675 375.069 52.4901 375.39 52.9111 375.714ZM39.081 367.517L35.4737 381.378C35.3716 381.352 35.2844 381.334 35.2097 381.322C34.9651 381.282 34.7172 381.251 34.4666 381.227L35.8304 366.968C36.3873 367.022 36.9423 367.093 37.4944 367.182C38.0323 367.269 38.5608 367.382 39.081 367.517ZM22.7259 369.095L28.5865 382.165C28.3707 382.261 28.161 382.364 27.9577 382.473C27.9068 382.5 27.844 382.536 27.768 382.587L19.8183 370.673C20.2685 370.372 20.7349 370.092 21.2193 369.833C21.7132 369.57 22.2158 369.324 22.7259 369.095ZM11.1719 380.362L22.9847 388.462C22.915 388.563 22.8435 388.668 22.7705 388.774C22.5349 389.118 22.285 389.483 22.0383 389.84C21.957 389.958 21.8777 390.073 21.7997 390.186C21.5725 390.515 21.3567 390.828 21.1383 391.146L9.32923 383.041C9.55866 382.707 9.78886 382.373 10.0188 382.04C10.095 381.929 10.1712 381.819 10.2474 381.708C10.4807 381.37 10.7135 381.03 10.9467 380.69C11.0217 380.581 11.0967 380.471 11.1719 380.362ZM3.444 394.489L17.3451 397.941C17.311 398.078 17.2861 398.203 17.2681 398.316C17.223 398.6 17.1861 398.886 17.1573 399.172L2.90592 397.739C2.96192 397.182 3.03379 396.627 3.12139 396.074C3.20644 395.538 3.31479 395.009 3.444 394.489ZM4.69692 410.923L17.9866 405.581C18.0784 405.809 18.1764 406.031 18.2801 406.247C18.3599 406.413 18.4488 406.581 18.5477 406.752L6.14593 413.918C5.87157 413.443 5.61392 412.957 5.37431 412.459C5.13127 411.954 4.90553 411.442 4.69692 410.923ZM15.2801 423.299L23.3441 411.462C23.6437 411.666 23.9534 411.868 24.2729 412.069C24.4671 412.19 24.6688 412.308 24.8785 412.423L18.0223 424.998C17.5626 424.748 17.1089 424.483 16.6616 424.202C16.1961 423.91 15.7352 423.609 15.2801 423.299ZM30.0113 428.693L32.0366 414.514C32.422 414.569 32.817 414.62 33.2223 414.667C33.6804 414.72 34.1232 414.767 34.5537 414.809L33.1686 429.065C32.6366 429.014 32.1052 428.956 31.575 428.895C31.0525 428.834 30.5311 428.767 30.0113 428.693ZM45.883 428.286L41.7174 414.582C41.8781 414.533 42.0267 414.481 42.165 414.427C42.4294 414.323 42.6908 414.212 42.9485 414.094L48.9269 427.109C48.4231 427.341 47.9128 427.558 47.3968 427.76C46.8965 427.957 46.3917 428.131 45.883 428.286ZM59.2983 418.979L47.9865 410.193C48.1364 410 48.2782 409.805 48.4119 409.607C48.5046 409.47 48.5964 409.322 48.6872 409.163L61.1434 416.233C60.8732 416.709 60.5842 417.176 60.2748 417.634C59.9637 418.093 59.6379 418.542 59.2983 418.979Z" fill="#FFEC9D"/>
<path fill-rule="evenodd" clip-rule="evenodd" d="M1227.31 329.914C1180.57 356.697 1139.43 419.381 1088.87 400.594C1038.69 381.952 1044.18 309.017 1031.1 257.007C1019.93 212.6 994.816 163.748 1019.64 125.387C1043.68 88.2403 1098.17 96.9029 1141.2 86.8581C1176.34 78.6565 1208.98 65.9022 1244.4 72.9239C1294.45 82.8453 1360.35 86.0989 1378.55 133.907C1396.76 181.722 1350.14 228.328 1318.96 268.737C1295.62 298.993 1260.44 310.931 1227.31 329.914Z" fill="#F2FBFB"/>
<path fill-rule="evenodd" clip-rule="evenodd" d="M1451.76 459.819C1465.15 456.542 1481.49 451.71 1491.53 461.164C1501.55 470.603 1496.63 487.033 1495.2 500.727C1494.05 511.728 1491.95 522.768 1484.26 530.715C1476.74 538.479 1466 541.618 1455.2 542.037C1444.44 542.454 1434.68 538.569 1425.47 532.994C1412.96 525.425 1393.79 519.581 1393.94 504.963C1394.09 490.252 1414.45 486.238 1426.05 477.183C1434.52 470.567 1441.32 462.374 1451.76 459.819Z" fill="#FFEC9D"/>
<path d="M947.834 539.449C960.048 551.272 972.747 563.383 988.626 569.447C1001.48 574.34 1015.52 574.898 1028.81 578.407C1054.64 585.196 1077.16 603.602 1088.97 627.531C1075.61 612.665 1060.99 597.301 1041.73 591.926C1028.25 588.161 1013.83 589.734 1000.17 586.708C986.436 583.656 974.002 576.047 963.694 566.461C953.386 556.875 945.067 545.375 937.507 533.497L947.834 539.449Z" fill="#CE6725"/>
<path d="M819.81 552.364C818.751 552.326 793.732 603.716 828.155 635.581L801.154 662.09C798.133 665.073 798.56 670.077 802.063 672.462C804.288 673.988 807.198 674.049 809.463 672.619L864.003 638.31L888.181 600.05L869.206 544.55L819.81 552.364Z" fill="#CE6725"/>
<path d="M443.88 553.078C455.536 551.065 467.296 555.512 477.898 560.752C488.5 565.992 498.932 572.196 510.606 574.044C522.279 575.915 535.872 572.189 541.534 561.809L578.84 587.707C575.714 597.886 571.908 608.131 565.084 616.325C558.282 624.519 547.928 630.439 537.306 629.465C519.481 627.867 509.068 609.406 495.682 597.54C484.898 587.982 470.838 582.233 456.437 581.482C450.983 581.192 445.414 581.599 440.135 580.232C434.856 578.866 429.683 575.201 428.568 569.856C426.839 561.553 435.541 554.512 443.88 553.078Z" fill="#CE6725"/>
<path d="M946.067 618.279C934.379 633.541 916.014 643.661 896.986 645.337C891.527 645.793 886.003 645.569 880.553 644.58C881.81 645.393 882.857 646.402 883.695 647.562C888.084 653.523 886.871 663.253 881.888 669.256C875.958 676.467 866.627 679.693 857.806 682.577C850.15 685.097 842.518 687.595 834.862 690.115C831.799 691.132 828.556 692.142 825.418 691.486C825.329 691.46 825.261 691.458 825.172 691.432C821.972 690.638 819.184 687.218 820.29 684.143C821.096 681.847 823.578 680.651 825.803 679.694C837.067 674.845 848.354 669.975 859.594 665.148C849.251 649.714 844.76 630.453 847.147 612.052C849.05 597.63 855.175 583.858 864.436 572.615C834.732 563.654 802.749 562.69 772.371 569.122C772.303 569.12 772.235 569.14 772.166 569.16C742.971 575.341 715.289 588.327 692.503 607.609C676.335 621.263 661.51 638.307 641.058 643.746C637.752 644.619 634.39 645.173 631.018 645.389C615.966 646.375 600.575 641.208 587.806 632.842C542.795 603.39 530.709 542.904 495.408 502.271C489.99 496.046 484.058 490.322 477.677 485.101C475.792 483.542 473.861 482.027 471.882 480.555C471.728 480.437 471.552 480.317 471.398 480.199C458.407 470.515 443.924 462.718 428.858 456.683C421.202 453.628 412.915 450.549 405.659 446.424C402.495 444.638 399.519 442.656 396.87 440.393C392.666 436.786 389.324 432.465 387.396 427.113C393.427 430.764 399.57 434.464 406.016 437.25C410.217 439.074 414.522 440.517 419.032 441.314C421.522 441.766 424.088 441.972 426.664 441.931L426.686 441.932C431.499 441.836 436.298 440.883 440.592 438.94C441.349 438.606 442.062 438.249 442.777 437.846C444.137 437.083 445.432 436.227 446.62 435.232C448.086 434.044 449.401 432.67 450.563 431.132C447.158 432.249 443.631 433.001 440.051 433.344C439.597 433.396 439.144 433.447 438.691 433.475C438.419 433.511 438.125 433.523 437.853 433.535C430.564 434.037 423.151 432.999 416.241 430.535C411.493 428.849 406.995 426.496 402.949 423.526C389.537 413.601 381.291 397.025 381.562 380.308C381.583 378.481 381.788 376.592 382.148 374.754C383.072 369.844 385.187 365.113 388.811 362.311C389.975 361.36 391.333 360.642 392.841 360.178C397.064 358.91 400.934 359.909 404.674 361.986C410.693 365.344 416.251 371.461 422.16 375.356C434.946 383.858 451.565 382.004 466.862 382.945C493.669 384.668 519.706 396.34 538.752 415.229C554.923 431.214 566.658 452.454 586.749 463.097C601.679 471.023 618.99 471.835 636.119 471.466C639.916 471.379 643.692 471.223 647.445 471.089C683.779 469.773 745.522 471.348 795.284 473.298C836.164 474.88 868.95 476.708 872.969 477.351C887.046 479.535 900.744 484.097 913.06 491.251C913.502 491.515 913.944 491.78 914.386 492.044C935.202 504.496 951.792 524.469 958.462 547.738C959.984 553.053 960.958 558.551 961.389 564.075C962.879 583.271 957.778 603.017 946.067 618.279Z" fill="#CE6725"/>
<path opacity="0.36" d="M934.385 620.381C925.115 632.481 911.65 641.358 896.986 645.337C892.63 646.51 888.177 647.274 883.696 647.562C878.763 647.856 873.782 647.584 868.87 646.682C876.723 651.777 876.135 664.193 870.206 671.358C864.275 678.569 854.945 681.795 846.124 684.679C839.222 686.955 832.321 689.209 825.419 691.486C825.329 691.46 825.262 691.457 825.172 691.432C821.972 690.638 819.184 687.218 820.29 684.143C821.096 681.847 823.579 680.651 825.804 679.694C837.067 674.845 848.354 669.975 859.594 665.148C849.251 649.714 844.76 630.453 847.147 612.052C849.051 597.63 855.175 583.858 864.437 572.615C834.733 563.654 802.75 562.69 772.371 569.122C772.304 569.12 772.235 569.14 772.167 569.16C738.749 574.103 706.635 587.876 680.821 609.711C665.095 622.997 650.629 639.49 631.018 645.389C615.967 646.375 600.575 641.208 587.807 632.842C542.796 603.39 530.709 542.904 495.409 502.271C489.991 496.046 484.058 490.322 477.678 485.101C475.793 483.542 473.861 482.027 471.882 480.555C471.729 480.437 471.552 480.317 471.399 480.199C458.407 470.515 443.925 462.718 428.858 456.683C421.202 453.628 412.915 450.549 405.659 446.424C402.495 444.638 399.519 442.656 396.87 440.393C400.253 441.735 403.737 442.788 407.35 443.416C413.721 444.551 420.622 444.148 426.664 441.931L426.687 441.932C431.5 441.836 436.299 440.883 440.592 438.94C441.349 438.606 442.062 438.249 442.777 437.846C444.137 437.083 445.433 436.227 446.62 435.232C448.086 434.044 449.401 432.67 450.563 431.132C447.158 432.249 443.631 433.001 440.051 433.344C439.597 433.396 439.144 433.447 438.691 433.475C438.761 433.41 438.81 433.322 438.881 433.234C438.538 433.334 438.195 433.457 437.854 433.535C430.565 434.037 423.151 432.999 416.242 430.535C411.494 428.849 406.996 426.496 402.949 423.526C389.538 413.601 381.291 397.025 381.562 380.308C381.584 378.481 381.788 376.592 382.149 374.754C383.073 369.844 385.187 365.113 388.812 362.311C390.22 362.701 391.62 363.316 392.992 364.089C399.011 367.446 404.568 373.563 410.478 377.458C423.264 385.96 439.882 384.106 455.18 385.047C481.987 386.77 508.024 398.442 527.07 417.331C543.241 433.316 554.975 454.556 575.067 465.199C589.997 473.125 607.308 473.937 624.437 473.568C628.234 473.481 632.01 473.325 635.763 473.191C672.097 471.875 733.84 473.45 783.602 475.401C824.481 476.982 857.268 478.81 861.286 479.453C875.364 481.637 889.062 486.2 901.378 493.353C901.82 493.617 902.262 493.882 902.704 494.146C923.519 506.599 940.11 526.572 946.78 549.84C948.302 555.155 949.276 560.653 949.707 566.177C951.197 585.373 946.096 605.12 934.385 620.381Z" fill="#CE6725"/>
<path d="M829.281 487.112C827.812 482.814 824.411 479.485 819.958 478.397C815.236 477.231 810.521 478.346 805.754 478.42C801.01 478.496 798.081 476.448 795.283 473.298C745.521 471.348 683.778 469.773 647.445 471.089C643.691 471.223 639.915 471.379 636.118 471.466C635.453 472.999 634.898 474.604 634.476 476.259C631.997 486.033 635.452 495.934 642.792 502.703C650.722 509.99 661.346 512.77 671.905 512.997C683.977 513.234 695.759 510.255 707.733 509.45C713.845 509.041 719.933 509.263 726.007 509.891C727.12 510.316 728.234 510.74 729.325 511.163C739.476 515.145 749.348 519.343 760.138 521.294C779.945 524.861 801.562 522.782 818.364 510.935C825.989 505.569 832.628 496.872 829.281 487.112Z" fill="#FFF7EC"/>
<path d="M598.183 562.543C595.369 559.19 591.148 557.93 587.476 555.832C578.01 550.408 575.62 538.56 571.073 529.5C566.843 521.039 559.529 512.939 549.346 512.929C539.186 512.897 533.51 521.177 532.247 530.432C530.984 539.686 533.564 549.419 537.826 557.61C542.825 567.273 550.563 576.134 559.575 582.264C560.28 582.741 561.031 583.197 561.805 583.632C566.571 587.914 572.475 590.725 579.219 590.316C588.157 589.785 596.952 584.507 600.114 575.841C601.745 571.364 601.321 566.269 598.183 562.543Z" fill="#FFF7EC"/>
<path d="M958.463 547.737C951.793 524.469 935.202 504.496 914.387 492.044C907.545 496.377 903.417 504.939 906.151 512.917C906.803 514.86 907.733 516.609 908.851 518.14C907.082 519.588 905.635 521.499 904.711 523.926C901.344 532.674 908.445 540.427 915.98 543.705C920.182 545.506 924.69 546.325 928.992 547.859C933.695 549.543 936.694 552.135 939.203 556.403C941.371 560.093 943.603 563.899 947.429 566.093C951.345 568.313 956.01 567.941 959.692 565.434C960.294 565.027 960.852 564.574 961.39 564.074C960.959 558.551 959.985 553.052 958.463 547.737Z" fill="#FFF7EC"/>
<path d="M403.856 365.816C402.154 371.623 392.563 378.294 384.609 375.972C376.655 373.651 373.332 363.236 375.011 357.428C376.714 351.621 384.54 348.769 392.493 351.091C400.471 353.39 405.559 359.987 403.856 365.816Z" fill="#341212"/>
<path d="M644.026 600.716C652.508 609.603 657.777 621.15 660.935 633.003C664.069 644.878 665.225 657.155 666.337 669.386C669.017 662.756 674.743 657.435 681.551 655.268C685.595 653.971 691.089 654.397 692.752 658.317C694.373 662.169 691.085 666.248 687.959 669.023C683.036 673.358 677.832 677.367 672.35 680.959C667.168 684.359 661.317 687.532 655.147 687.059C649.968 686.667 645.333 683.744 641.203 680.591C625.234 668.361 613.388 651.405 604.448 633.404C599.569 623.564 595.431 613.21 593.999 602.323C592.567 591.435 594.003 579.908 599.653 570.497C602.106 566.388 605.402 562.693 609.53 560.316C613.681 557.939 618.752 556.973 623.356 558.269C627.96 559.566 631.676 562.929 635.075 566.304C644.382 575.492 652.975 585.67 658.366 597.56C663.781 609.45 665.76 623.292 661.739 635.719" fill="#CE6725"/>
<path d="M511.342 406.441C513.983 402.768 518.112 400.367 522.527 399.422C528.265 397.487 534.741 397.61 540.851 398.465C556.443 400.614 571.283 406.686 585.074 414.232C593.553 418.875 601.783 424.141 608.625 430.96C611.326 433.654 613.858 436.681 614.944 440.333C616.052 443.985 615.419 448.363 612.55 450.877C609.867 453.24 605.997 453.483 602.447 453.601C593.743 453.916 585.015 454.252 576.31 454.567C562.97 455.051 549.338 455.502 536.589 451.561C523.84 447.619 511.94 438.359 508.526 425.458C506.84 419.076 507.465 411.83 511.342 406.441Z" fill="#CE6725"/>
<ellipse cx="484.129" cy="411.858" rx="11.25" ry="15" fill="white"/>
<ellipse cx="487.129" cy="411.858" rx="5.25" ry="7.5" fill="#4D4D4D"/>
<path d="M1249.27 462.256C1248.5 460.23 1246.9 458.67 1245.32 457.173C1247.74 456.893 1249.87 454.744 1251.23 452.716C1252.58 450.703 1252.88 447.99 1251.84 445.789C1250.43 442.871 1247.16 441.442 1244.14 440.265C1243.31 437.836 1241.96 436.442 1241.09 434.026C1227.54 396.618 1203.02 364.343 1178.23 333.244C1172.98 326.663 1167.63 320.053 1162.14 313.547C1159.04 308.154 1155.75 302.872 1152.16 297.824C1158.06 296.401 1163.84 294.533 1169.61 292.679C1176.68 290.387 1183.8 288.077 1190.26 284.402C1196.71 280.716 1202.54 275.544 1205.72 268.826C1204.58 268.767 1203.44 268.89 1202.34 269.2C1213.79 259.224 1217.41 241.999 1213.51 227.267C1209.52 212.196 1197.66 202.684 1187.42 190.948C1182.26 184.994 1175.32 180.62 1167.73 178.463C1165.87 177.948 1163.22 178.002 1162.78 179.886C1162.62 180.538 1162.83 181.219 1163.08 181.873C1163.8 183.746 1164.18 185.804 1165.39 187.385C1138.89 168.576 1108.25 156.53 1080.23 140.066C1078.61 139.121 1077.01 138.145 1075.42 137.184C1071.71 134.896 1070 134.242 1067.21 130.907C1052.18 113.039 1036.81 94.8423 1016.78 82.8586C1013.94 81.1617 1010.16 79.6049 1007.49 81.597C1005.79 82.8514 1005.22 85.2342 1005.67 87.3052C1006.12 89.3762 1006.96 89.7213 1008.41 91.2663C999.291 82.5297 987.365 76.7911 974.875 75.078C972.995 74.816 970.887 74.7018 969.379 75.87C968.228 76.7656 967.684 78.208 967.259 79.5881C960.145 102.257 965.841 127.052 978.496 147.137C976.968 145.67 975.437 144.183 973.894 142.701C974.585 149.954 979.72 155.956 985.072 160.915C997.114 172.086 1011.46 180.756 1026.95 186.218C1033.77 188.604 1040.78 190.386 1047.84 191.937C1051.89 192.814 1055.96 193.643 1060.02 194.441C1064.87 195.416 1069.71 196.391 1074.56 197.341C1082.79 198.99 1091.01 200.636 1099.23 202.285C1101.41 202.715 1103.58 203.156 1105.76 203.614C1114.96 205.54 1124.11 207.873 1132.5 212.121L1132.59 212.175C1140.99 216.446 1149.18 222.968 1153.7 231.22C1154.78 233.166 1155.64 235.234 1156.24 237.372C1155.36 235.68 1154.26 234.11 1152.96 232.726C1151.55 231.196 1149.92 229.874 1148.15 228.837C1147.15 230.389 1147.58 232.283 1148.36 234.035C1148.62 234.647 1148.92 235.225 1149.23 235.77C1151.45 239.877 1153.55 244.211 1153.83 248.87C1154 251.424 1153.61 253.911 1152.85 256.3C1151.52 260.544 1149.01 264.534 1146.22 268.077C1144.54 270.227 1142.72 272.308 1140.53 273.9C1140.33 274.069 1140.12 274.211 1139.91 274.337C1137.95 275.649 1135.4 276.168 1132.94 276.76C1132.81 276.656 1132.71 276.551 1132.59 276.459C1131.79 275.816 1131 275.201 1130.2 274.575C1124.42 270.076 1118.39 266.031 1112.16 262.44C1111.05 261.797 1109.94 261.171 1108.81 260.558C1072.16 240.553 1028.62 235.112 986.09 240.209C976.117 241.416 966.194 243.169 956.445 245.474C952.561 246.392 948.708 247.389 944.883 248.463C948.294 235.814 948.962 222.455 946.831 209.536C946.629 208.35 945.629 207.488 944.438 207.438C940.806 207.297 937.202 210.139 934.377 212.815C930.93 216.069 927.482 219.323 924.04 222.589C917.983 215.878 909.215 212.055 900.029 210.728C895.884 210.151 891.674 210.097 887.583 210.479C878.115 200.906 866.875 193.096 854.55 187.635C853.442 187.146 852.164 187.812 851.95 188.981C849.862 200.126 850.213 211.688 852.921 222.677C850.614 223.929 848.318 225.204 846.042 226.506C834.531 232.995 822.776 240.153 815.051 250.763C813.84 252.432 813.175 254.444 813.23 256.508C813.373 262.181 814.321 267.801 816.139 273.115C791.648 279.372 768.246 289.938 747.404 304.227C744.38 302.466 740.144 301.587 736.646 301.945C734.059 302.203 731.38 303.185 729.891 305.301C728.391 307.422 728.629 310.827 730.866 312.168C725.343 313.479 719.998 318.681 718.498 324.149C717.998 326.001 717.822 327.961 718.213 329.839C718.794 332.592 720.584 335.028 722.941 336.566C725.295 338.084 728.192 338.716 730.984 338.504C730.466 341.404 729.067 344.329 730.944 346.604C732.531 348.543 735.359 349.102 737.811 348.612C740.257 348.111 742.436 346.736 744.496 345.318C747.535 343.238 750.528 340.97 752.663 337.948C773.127 332.663 794.095 330.265 815.151 328.15C792.742 334.195 770.816 342.076 749.698 351.718C742.16 348.362 731.313 352.129 726.403 358.746C725.417 360.085 724.599 361.648 724.643 363.295C724.672 364.955 725.84 366.675 727.498 366.837C722.71 366.975 717.452 371.777 716.308 376.426C715.167 381.066 717.488 386.342 721.683 388.626C725.884 390.921 731.599 389.978 734.82 386.45C733.237 390.248 732.096 394.466 734.042 398.109C734.786 399.492 735.868 400.816 737.364 401.264C738.323 401.555 739.353 401.441 740.338 401.262C747.378 400.053 753.806 395.725 757.569 389.65C800.437 373.694 844.989 367.242 890.743 366.532C936.471 365.813 982.156 371.332 1027.07 379.956C1052.83 384.895 1074.21 395.635 1095.8 410.473C1131.93 435.289 1164.98 465.523 1188.2 502.67C1187.41 505.538 1186.11 509.067 1186.28 512.063C1186.46 515.033 1187.8 518.121 1190.4 519.623C1192.98 521.107 1196.84 520.394 1198.12 517.694C1199.81 521.022 1202.61 524.448 1206 525.94C1209.42 527.453 1214.05 526.652 1215.92 523.417C1217.78 520.143 1216.29 516.042 1214.74 512.612C1215.7 513.841 1217.26 510.764 1218.49 509.811C1222.02 507.078 1223.93 502.39 1223.29 497.976C1222.68 493.562 1219.57 489.582 1215.42 487.93C1214.33 476.807 1211.31 465.253 1209.76 454.195C1209.22 450.508 1208.64 446.833 1208.02 443.147C1213.36 448.313 1218.53 453.683 1223.45 459.272C1223.15 463.193 1224.18 466.991 1226.86 469.864C1227.71 470.78 1228.74 471.615 1229.98 471.833C1232.39 472.278 1234.83 469.655 1234.2 467.277C1234.81 471.337 1240.37 473.082 1244.33 472.009C1248.29 470.935 1250.74 466.1 1249.27 462.256Z" fill="#B9C2C9"/>
<ellipse cx="896.379" cy="244.524" rx="9.5" ry="12.6667" fill="white"/>
<ellipse cx="895.112" cy="245.791" rx="4.43333" ry="6.33333" fill="#4D4D4D"/>
<ellipse cx="870.379" cy="240.524" rx="9.5" ry="12.6667" fill="white"/>
<ellipse cx="869.112" cy="241.791" rx="4.43333" ry="6.33333" fill="#4D4D4D"/>
<path d="M854.535 199.648C853.427 199.159 852.149 199.826 851.932 201.004C849.847 212.14 850.198 223.701 852.906 234.691C854.286 233.955 855.68 233.235 857.057 232.536C856.873 232.172 856.873 232.172 857.057 232.536C861.998 230.027 867.042 227.737 872.211 225.972C871.805 225.402 871.808 225.394 872.211 225.972C876.322 224.561 880.506 223.474 884.798 222.829C885.715 222.682 886.647 222.599 887.565 222.501C878.097 212.928 866.857 205.118 854.535 199.648Z" fill="#B9C2C9"/>
<path d="M1245.33 469.176C1247.74 468.893 1249.87 466.744 1251.22 464.722C1252.57 462.708 1252.87 459.987 1251.83 457.786C1250.42 454.868 1247.16 453.439 1244.13 452.262C1243.31 449.832 1241.95 448.438 1241.09 446.022C1227.54 408.615 1203.02 376.34 1178.22 345.241C1172.97 338.659 1167.62 332.049 1162.13 325.544C1163.48 327.925 1164.8 330.305 1166.09 332.712C1186.56 370.892 1200.76 412.429 1208 455.14C1213.35 460.298 1218.51 465.677 1223.44 471.257C1223.14 475.179 1224.17 478.976 1226.85 481.849C1227.7 482.756 1228.73 483.6 1229.97 483.819C1232.37 484.263 1234.82 481.64 1234.18 479.262C1234.8 483.322 1240.36 485.059 1244.32 483.994C1248.27 482.929 1250.72 478.094 1249.25 474.25C1248.5 472.247 1246.9 470.67 1245.33 469.176Z" fill="#B9C2C9"/>
<path d="M854.71 328.122C845.11 322.501 837.413 314.205 829.893 306.002C827.078 302.954 824.262 299.858 821.867 296.474C819.373 292.967 817.495 289.138 816.121 285.137C791.63 291.394 768.228 301.96 747.385 316.25C744.362 314.488 740.126 313.609 736.628 313.967C734.041 314.225 731.362 315.208 729.873 317.323C728.373 319.444 728.611 322.85 730.85 324.182C725.325 325.501 719.98 330.703 718.48 336.171C717.979 338.023 717.804 339.983 718.195 341.861C718.776 344.615 720.566 347.05 722.923 348.588C725.277 350.106 728.166 350.735 730.966 350.526C730.448 353.426 729.049 356.351 730.926 358.626C732.513 360.566 735.341 361.124 737.793 360.635C740.239 360.133 742.417 358.758 744.478 357.34C747.517 355.261 750.51 352.992 752.645 349.97C773.109 344.685 794.077 342.288 815.133 340.172C828.037 336.684 841.13 333.811 854.308 331.573C854.46 330.286 855.819 328.765 854.71 328.122Z" fill="#B9C2C9"/>
<path d="M835.059 279.459C836.453 279.899 837.051 277.834 837.432 276.418C837.524 276.058 837.664 275.726 837.825 275.391C839.934 270.988 846.703 269.124 847.228 264.174C847.681 260.08 843.39 257.032 839.373 256.05C820.444 251.391 826.131 268.193 833.336 277.71C833.589 278.042 833.829 278.359 834.083 278.663C834.359 279.012 834.649 279.348 835.059 279.459Z" fill="#212121"/>
</svg>
