<svg width="312" height="60" viewBox="0 0 312 60" fill="none" xmlns="http://www.w3.org/2000/svg">
<path fill-rule="evenodd" clip-rule="evenodd" d="M56.0084 54.7653C61.6818 48.862 65.1693 40.8423 65.1693 32.0082C65.1693 23.0637 61.5941 14.9542 55.7949 9.03091C59.5516 6.45687 63.9778 4.79932 68.7561 4.3777C74.1611 3.42882 78.6718 0 78.6718 0C78.6718 0 81.0871 5.09892 85.5822 8.38258L85.5595 8.377C91.0311 11.7851 95.2209 17.0798 97.2329 23.3591L97.2334 23.265C99.2922 28.411 103.679 32.15 103.679 32.15C103.679 32.15 99.4026 35.6638 97.1229 40.628C93.4747 51.5293 83.2368 59.38 71.1775 59.38C65.5668 59.38 60.3504 57.6806 56.0084 54.7653ZM67.6882 8.44535C73.1526 7.25687 77.5857 4.13418 77.5857 4.13418C77.5857 4.13418 79.8598 8.46187 83.7997 11.7945C88.1662 14.5297 91.5798 18.6452 93.4292 23.5297C95.8057 28.3644 99.8055 31.7541 99.8055 31.7541C99.8055 31.7541 95.5581 35.7738 93.2056 40.9155C89.6648 49.5831 81.15 55.6907 71.2087 55.6907C67.6244 55.6907 64.2255 54.8968 61.1783 53.4752C66.1663 47.7149 69.1842 40.2019 69.1842 31.984C69.1842 23.7353 66.1436 16.1968 61.1222 10.4281C63.1682 9.467 65.3738 8.78923 67.6882 8.44535Z" fill="#4ECBD3"/>
<path fill-rule="evenodd" clip-rule="evenodd" d="M76.3904 20.6222C76.6354 20.5068 76.9275 20.6119 77.0429 20.8569L78.903 24.8075C79.0183 25.0525 78.9133 25.3446 78.6683 25.46C78.4233 25.5753 78.1311 25.4702 78.0158 25.2252L76.1557 21.2746C76.0403 21.0296 76.1454 20.7375 76.3904 20.6222Z" fill="#4ECBD3"/>
<path fill-rule="evenodd" clip-rule="evenodd" d="M77.1691 26.4186C76.964 26.5954 76.6544 26.5723 76.4776 26.3672L73.6227 23.053C73.446 22.8479 73.469 22.5383 73.6742 22.3616C73.8794 22.1848 74.189 22.2079 74.3657 22.413L77.2206 25.7272C77.3973 25.9323 77.3743 26.2419 77.1691 26.4186Z" fill="#4ECBD3"/>
<path fill-rule="evenodd" clip-rule="evenodd" d="M88.1901 39.0636C87.9825 39.2374 87.6732 39.2099 87.4995 39.0022L84.6616 35.6104C84.4879 35.4027 84.5154 35.0935 84.7231 34.9197C84.9307 34.7459 85.24 34.7734 85.4137 34.9811L88.2516 38.3729C88.4253 38.5806 88.3978 38.8898 88.1901 39.0636Z" fill="#4ECBD3"/>
<path fill-rule="evenodd" clip-rule="evenodd" d="M83.2224 35.8804C83.4687 35.7677 83.7596 35.876 83.8723 36.1223L85.7153 40.1506C85.828 40.3968 85.7197 40.6878 85.4735 40.8004C85.2272 40.9131 84.9363 40.8048 84.8236 40.5586L82.9806 36.5303C82.8679 36.284 82.9762 35.9931 83.2224 35.8804Z" fill="#4ECBD3"/>
<path d="M83.8096 25.8658C83.0346 26.4284 81.9945 26.1592 81.4792 25.3539C80.964 24.5486 81.0133 23.5823 82.0384 22.9932C82.8911 22.4476 83.8232 22.6524 84.3385 23.4577C84.9144 24.3577 84.7097 25.2899 83.8096 25.8658Z" fill="#4ECBD3"/>
<path d="M88.2424 32.3765C87.5318 32.8311 86.9066 32.8974 86.2587 32.5108C85.6884 32.1413 85.247 31.5557 85.4782 30.8737C85.645 30.2996 85.9672 29.7597 86.5963 29.4907C87.1306 29.2823 87.5664 29.3373 88.076 29.6121C89.2336 30.2735 89.078 31.9086 88.2424 32.3765Z" fill="#4ECBD3"/>
<path d="M79.8215 30.6549C79.671 31.1539 80.0009 31.6695 80.5171 31.7419L82.8398 32.0679C83.5588 32.1688 84.0651 31.3799 83.6738 30.7683L82.0284 28.1967C81.6371 27.5851 80.7086 27.7142 80.4989 28.4093L79.8215 30.6549Z" fill="#4ECBD3"/>
<path fill-rule="evenodd" clip-rule="evenodd" d="M81.9341 29.9751C82.1645 30.2531 82.1259 30.6653 81.8479 30.8956C81.2224 31.4139 80.1923 31.8608 79.0953 31.8312C77.9506 31.8003 76.7739 31.2486 75.9665 29.8463C75.7864 29.5334 75.894 29.1337 76.2069 28.9536C76.5198 28.7734 76.9195 28.881 77.0996 29.1939C77.6748 30.1929 78.4304 30.5053 79.1306 30.5242C79.8786 30.5444 80.606 30.2266 81.0136 29.8889C81.2916 29.6585 81.7037 29.6971 81.9341 29.9751Z" fill="#4ECBD3"/>
<path fill-rule="evenodd" clip-rule="evenodd" d="M82.0311 30.1277C81.8752 29.802 81.4849 29.6643 81.1592 29.8202C80.4265 30.1709 79.5891 30.919 79.1563 31.9273C78.7046 32.9797 78.7124 34.2792 79.6473 35.5999C79.8559 35.8946 80.2639 35.9644 80.5586 35.7558C80.8533 35.5472 80.9231 35.1392 80.7145 34.8445C80.0485 33.9037 80.0815 33.0867 80.3578 32.443C80.6529 31.7554 81.2462 31.2281 81.7237 30.9996C82.0494 30.8437 82.187 30.4533 82.0311 30.1277Z" fill="#4ECBD3"/>
<path fill-rule="evenodd" clip-rule="evenodd" d="M32.6636 59.5326C47.8815 59.5326 60.218 47.1961 60.218 31.9783C60.218 16.7604 47.8815 4.42395 32.6636 4.42395C20.2095 4.42395 9.6851 12.6865 6.27326 24.029C3.87169 28.7152 0 31.9232 0 31.9232C0 31.9232 3.87561 35.1898 6.27691 39.9396C9.69258 51.2759 20.2139 59.5326 32.6636 59.5326ZM32.6733 55.4951C45.6918 55.4951 56.2454 44.9415 56.2454 31.923C56.2454 18.9045 45.6918 8.35093 32.6733 8.35093C22.0521 8.35093 13.0717 15.3755 10.1243 25.0321C7.71843 29.2905 4.28492 32.1845 4.28492 32.1845C4.28492 32.1845 8.22206 35.5029 10.6185 40.2617C13.9864 49.1648 22.5906 55.4951 32.6733 55.4951Z" fill="#4ECBD3"/>
<path d="M38.7865 26.7509C38.8467 27.7748 38.0036 28.5577 36.9797 28.5577C35.9559 28.5577 35.1127 27.9554 35.173 26.6907C35.173 25.6066 35.8957 24.8839 36.9195 24.8839C38.0638 24.8839 38.7865 25.6066 38.7865 26.7509Z" fill="#4ECBD3"/>
<path d="M47.2188 26.5101C47.2188 27.4135 46.9176 28.0157 46.1949 28.3771C45.5324 28.6782 44.7495 28.7384 44.2677 28.1362C43.8461 27.6544 43.545 27.0521 43.6654 26.3294C43.7859 25.7271 44.087 25.3658 44.629 25.0646C45.8938 24.4022 47.279 25.4862 47.2188 26.5101Z" fill="#4ECBD3"/>
<path d="M40.6924 33.1191C41.0522 33.5389 41.7017 33.5389 42.0615 33.1191L43.7148 31.1903C44.216 30.6054 43.8005 29.7019 43.0302 29.7019H39.7237C38.9534 29.7019 38.5378 30.6054 39.0391 31.1903L40.6924 33.1191Z" fill="#4ECBD3"/>
<path fill-rule="evenodd" clip-rule="evenodd" d="M41.2998 32.3251C41.6805 32.2828 42.0234 32.5571 42.0657 32.9378C42.187 34.0298 41.8289 35.2798 41.0304 36.1837C40.203 37.1204 38.9196 37.6624 37.3113 37.305C36.2182 37.0621 34.0403 35.8831 33.7603 33.0834C33.7222 32.7023 34.0003 32.3624 34.3814 32.3243C34.7625 32.2862 35.1024 32.5643 35.1405 32.9454C35.3424 34.9638 36.8984 35.7923 37.6122 35.9509C38.714 36.1958 39.4883 35.8343 39.9909 35.2654C40.5224 34.6637 40.7665 33.8058 40.6871 33.091C40.6448 32.7103 40.9191 32.3674 41.2998 32.3251Z" fill="#4ECBD3"/>
<path fill-rule="evenodd" clip-rule="evenodd" d="M41.4717 32.3251C41.091 32.2828 40.7481 32.5571 40.7058 32.9378C40.5844 34.0298 40.9426 35.2798 41.741 36.1837C42.5685 37.1204 43.8519 37.6624 45.4602 37.305C46.5533 37.0621 48.7312 35.8831 49.0112 33.0834C49.0493 32.7023 48.7712 32.3624 48.3901 32.3243C48.0089 32.2862 47.6691 32.5643 47.631 32.9454C47.4291 34.9638 45.873 35.7923 45.1593 35.9509C44.0574 36.1958 43.2832 35.8343 42.7806 35.2654C42.2491 34.6637 42.005 33.8058 42.0844 33.091C42.1267 32.7103 41.8524 32.3674 41.4717 32.3251Z" fill="#4ECBD3"/>
<path fill-rule="evenodd" clip-rule="evenodd" d="M25.1835 21.8114C25.4537 22.2564 25.312 22.8361 24.867 23.1063C20.4557 25.7846 19.1632 28.0328 18.4154 29.8568C18.2888 30.1655 18.1737 30.4812 18.0577 30.7998C17.4872 32.3651 16.8923 33.9976 14.7901 35.1858L14.7692 35.1976L14.7478 35.2083C11.5895 36.7874 8.81517 36.2126 6.77305 35.1333C4.82738 34.105 3.52335 32.6109 3.09652 32.1218C3.08367 32.1071 3.07162 32.0933 3.06037 32.0804C2.71758 31.6887 2.75728 31.0932 3.14904 30.7504C3.5408 30.4076 4.13626 30.4473 4.47905 30.8391C4.4874 30.8486 4.49611 30.8586 4.50518 30.869C4.90727 31.3291 6.02134 32.6038 7.6539 33.4666C9.28072 34.3264 11.3955 34.7682 13.8832 33.5329C15.3234 32.712 15.6684 31.7871 16.2202 30.3083C16.3526 29.9534 16.497 29.5666 16.6712 29.1417C17.5754 26.9363 19.1408 24.3776 23.8887 21.4949C24.3336 21.2248 24.9134 21.3665 25.1835 21.8114Z" fill="#4ECBD3"/>
<path d="M233.764 16.7761C234.723 16.7761 235.202 16.8001 235.202 16.848C235.202 16.896 235.034 17.3274 234.699 18.1422C234.363 18.9092 233.956 19.7001 233.476 20.5149C232.997 21.2819 232.757 21.6773 232.757 21.7013C232.757 21.7253 234.219 21.7372 237.143 21.7372H241.529V21.5215V21.3058H243.039L244.621 21.3777V31.0124C244.621 37.4834 244.573 40.8627 244.477 41.1503C244.429 41.4379 244.333 41.7255 244.189 42.0132C244.046 42.3008 243.854 42.5644 243.614 42.8041C243.375 43.0437 243.135 43.2115 242.895 43.3074C242.608 43.4512 242.296 43.5231 241.961 43.5231H241.529V33.3132L241.457 23.1034H241.026H240.594L240.523 23.4629C240.475 23.6067 240.307 24.8529 240.019 27.2017C239.684 29.4546 239.444 30.8446 239.3 31.3719C239.204 31.9471 239.061 32.4983 238.869 33.0256C238.725 33.5049 238.509 34.0322 238.222 34.6074C237.934 35.1826 237.659 35.6979 237.395 36.1533C237.131 36.6086 236.808 37.1 236.424 37.6272C236.137 38.0107 235.777 38.4661 235.346 38.9933C234.914 39.4247 234.411 39.9041 233.836 40.4313C233.261 40.9107 232.661 41.366 232.038 41.7974C231.463 42.1809 230.828 42.5524 230.133 42.9119C229.438 43.2714 229.042 43.4512 228.947 43.4512C228.851 43.4512 228.779 43.4032 228.731 43.3074C228.683 43.1636 228.659 43.0917 228.659 43.0917C228.659 42.9958 228.875 42.828 229.306 42.5884C229.738 42.3008 230.133 42.0251 230.492 41.7615C230.852 41.4979 231.271 41.1264 231.751 40.647C232.326 40.0718 232.733 39.6165 232.973 39.2809C233.356 38.8495 233.716 38.3942 234.052 37.9148C234.387 37.3876 234.723 36.7644 235.058 36.0454C235.394 35.3743 235.693 34.7153 235.957 34.0682C236.221 33.4211 236.448 32.6421 236.64 31.7314C236.88 30.9165 237.047 30.0777 237.143 29.2149C237.287 28.2083 237.455 26.986 237.647 25.548C237.886 23.9662 237.982 23.1513 237.934 23.1034C237.886 23.0554 237.527 23.0315 236.856 23.0315L235.849 23.1034L235.561 24.5414C235.466 25.1166 235.298 26.0273 235.058 27.2736C234.914 28.0405 234.699 28.8314 234.411 29.6463C234.171 30.4132 233.932 31.0244 233.692 31.4797C233.452 31.9351 233.237 32.3306 233.045 32.6661C232.805 33.0016 232.542 33.3372 232.254 33.6727C231.966 34.0562 231.487 34.5595 230.816 35.1826C230.193 35.8058 229.594 36.333 229.019 36.7644C228.395 37.2438 227.844 37.6752 227.365 38.0586L226.502 38.6338L226.358 38.4181C226.262 38.3223 226.214 38.2504 226.214 38.2024C226.214 38.1545 226.382 37.9987 226.718 37.7351C227.053 37.4714 227.413 37.1239 227.796 36.6925C228.228 36.2611 228.587 35.9016 228.875 35.614C229.162 35.2305 229.474 34.7752 229.809 34.2479C230.193 33.6727 230.516 33.1215 230.78 32.5942C231.044 32.0669 231.271 31.5397 231.463 31.0124C231.655 30.5331 231.847 30.0058 232.038 29.4306C232.182 28.8554 232.422 27.705 232.757 25.9794C233.093 24.1579 233.237 23.2232 233.189 23.1753C233.189 23.0794 232.973 23.0315 232.542 23.0315C232.11 23.0315 231.871 23.0554 231.823 23.1034C231.775 23.1513 231.559 23.4389 231.176 23.9662C230.792 24.4934 230.289 25.1166 229.666 25.8356C229.09 26.6025 228.587 27.2256 228.156 27.705C227.772 28.0884 227.557 28.3041 227.509 28.3521C227.461 28.3521 227.401 28.3041 227.329 28.2083C227.257 28.1124 227.413 27.8008 227.796 27.2736C228.18 26.6504 228.467 26.1471 228.659 25.7637C228.899 25.3802 229.258 24.7091 229.738 23.7505C230.121 22.9356 230.445 22.2166 230.708 21.5934C230.972 20.9703 231.247 20.2273 231.535 19.3645C231.871 18.4538 232.062 17.8067 232.11 17.4232L232.254 16.7761H233.764ZM225.352 16.9199V19.6521V22.3844H226.286H227.221V23.1034V23.7505H226.286H225.352V27.4174V31.0124H226.358H227.437V31.6595V32.3066H226.358H225.352V37.4115V42.5884L225.136 43.0917C224.992 43.4751 224.848 43.7867 224.704 44.0264C224.561 44.266 224.345 44.4578 224.057 44.6016C223.77 44.7454 223.458 44.8173 223.123 44.8173H222.691L222.619 38.5619V32.3785L220.247 32.3066H217.874V31.6595V31.0124L220.247 30.9405H222.619V27.3455L222.691 23.7505H221.757H220.894L220.534 24.4695C220.295 24.9488 220.007 25.4042 219.671 25.8356C219.336 26.219 219.012 26.5426 218.701 26.8062C218.389 27.0699 218.018 27.3455 217.586 27.6331C217.155 27.9207 216.771 28.0645 216.436 28.0645H215.933L216.364 27.3455C216.652 26.9141 216.963 26.3628 217.299 25.6918C217.634 25.0207 217.898 24.4455 218.09 23.9662C218.281 23.4389 218.449 22.9356 218.593 22.4563C218.737 22.0728 218.881 21.5215 219.024 20.8025L219.168 19.8678H220.462H221.757L221.685 20.2992C221.637 20.6827 221.589 21.0422 221.541 21.3777C221.445 21.8571 221.397 22.1447 221.397 22.2406C221.637 22.3364 221.828 22.3844 221.972 22.3844H222.691V19.6521V16.9199H223.985H225.352Z" fill="#4ECBD3"/>
<path d="M156.158 15.1787H176.131V13.7806H156.158V15.1787Z" fill="#4ECBD3"/>
<path d="M159.633 20.2273V20.7306L159.705 21.3058H166.176H172.647V20.7306V20.2273H174.157H175.738V25.1884C175.738 28.4958 175.678 30.2694 175.559 30.509C175.439 30.7487 175.307 30.9644 175.163 31.1561C175.019 31.3479 174.804 31.5157 174.516 31.6595C174.228 31.8512 173.869 31.9471 173.438 31.9471C173.198 31.995 173.042 32.0309 172.97 32.0549C172.898 32.0789 172.862 32.1148 172.862 32.1628C172.862 32.2107 173.078 32.7619 173.509 33.8165C173.893 34.8231 174.109 35.3743 174.157 35.4702C174.157 35.566 174.037 35.6379 173.797 35.6859C173.605 35.7338 173.318 35.8057 172.934 35.9016C172.599 36.0454 172.287 36.2131 172 36.4049C171.664 36.5966 171.185 37.004 170.562 37.6272C169.986 38.2503 169.507 38.8255 169.124 39.3528C168.788 39.8321 168.62 40.0838 168.62 40.1077C168.62 40.1317 170.274 40.1437 173.581 40.1437H178.614V40.8627V41.5098H165.457H152.299V40.8627V40.1437H157.691C161.238 40.1437 163.024 40.1317 163.048 40.1077C163.072 40.0838 163.012 39.8561 162.868 39.4247C162.724 38.9933 162.533 38.5379 162.293 38.0586C162.101 37.5793 161.862 37.1478 161.574 36.7644C161.286 36.333 160.951 35.9255 160.567 35.5421C160.136 35.0627 159.8 34.7272 159.561 34.5355C159.321 34.2958 159.081 34.0921 158.842 33.9243C158.602 33.7565 158.482 33.6008 158.482 33.457V33.1694L159.345 33.2413C159.968 33.2413 160.519 33.3132 160.999 33.457C161.43 33.5528 161.957 33.7446 162.581 34.0322C163.108 34.3198 163.611 34.7032 164.091 35.1826C164.57 35.6619 164.881 36.0214 165.025 36.2611L165.241 36.6925L164.666 37.6272C164.09 38.6338 163.779 39.185 163.731 39.2809C163.443 39.7123 163.276 39.9759 163.228 40.0718C163.228 40.0718 163.252 40.0838 163.3 40.1077C163.348 40.1317 163.467 40.1437 163.659 40.1437C163.851 40.1437 164.102 40.1437 164.414 40.1437C164.726 40.1437 165.169 40.1437 165.744 40.1437H168.333V39.9999C168.285 39.8561 168.333 39.4966 168.476 38.9214C168.62 38.2983 168.812 37.6272 169.052 36.9082C169.339 36.1412 169.603 35.4702 169.843 34.895C170.178 34.2718 170.478 33.7565 170.741 33.3491C171.005 32.9417 171.281 32.5942 171.568 32.3066C171.856 32.019 172.107 31.8272 172.323 31.7314C172.539 31.6355 172.647 31.4677 172.647 31.2281V30.7966H166.032H159.417L159.129 31.1561C158.938 31.3958 158.674 31.5876 158.338 31.7314C158.003 31.8752 157.643 31.9471 157.26 31.9471H156.613V26.1231C156.613 22.2405 156.637 20.2752 156.685 20.2273C156.733 20.1794 157.236 20.1554 158.195 20.1554L159.633 20.2273ZM159.705 29.5024H172.647V22.7438H159.705V29.5024Z" fill="#4ECBD3"/>
<path d="M140.761 15.9851C140.809 16.0331 140.881 16.4645 140.977 17.2794C141.073 18.0942 141.109 18.5136 141.085 18.5376C141.061 18.5616 140.57 18.6694 139.611 18.8612C138.556 19.1008 137.406 19.3165 136.16 19.5083C134.578 19.7479 133.667 19.8917 133.427 19.9397L132.708 20.0116V22.7438V25.4041H132.852C132.996 25.4041 134.65 25.1884 137.813 24.757C140.977 24.3256 142.583 24.1339 142.631 24.1818C142.679 24.2297 142.727 24.4694 142.775 24.9008C142.822 25.3322 142.834 25.5599 142.81 25.5838C142.786 25.6078 141.121 25.8355 137.813 26.2669C137.046 26.4107 136.244 26.5305 135.405 26.6264C134.566 26.7223 133.931 26.8062 133.499 26.8781C133.068 26.95 132.828 26.9859 132.78 26.9859C132.732 26.9859 132.708 27.9925 132.708 30.0057V33.0255H132.996C133.332 32.9776 135.632 32.666 139.898 32.0908C144.26 31.4677 146.453 31.1921 146.477 31.264C146.501 31.3359 146.537 31.5636 146.585 31.947C146.633 32.3305 146.633 32.5702 146.585 32.666C146.537 32.666 145.866 32.7619 144.572 32.9536C144.524 32.9536 142.223 33.2652 137.67 33.8883C134.362 34.3197 132.708 34.5354 132.708 34.5354C132.708 34.5354 132.708 35.8776 132.708 38.5619L132.637 42.5164H138.604H144.5V42.085C144.548 41.7974 144.62 41.5098 144.716 41.2222C144.86 40.9346 145.003 40.7189 145.147 40.5751C145.291 40.4313 145.507 40.2875 145.794 40.1437C146.034 39.9999 146.346 39.928 146.729 39.928H147.304V41.8693C147.304 43.0676 147.328 43.9544 147.376 44.5296V45.2486H139.179H130.983L130.551 45.4643C130.216 45.6081 129.952 45.704 129.761 45.7519H129.473V40.3594C129.473 36.8123 129.449 35.0387 129.401 35.0387C129.305 35.0387 128.37 35.1586 126.597 35.3982C124.488 35.6858 122.81 35.9015 121.564 36.0453C119.934 36.285 119.095 36.4049 119.047 36.4049C118.999 36.4049 118.952 36.2611 118.904 35.9734C118.856 35.542 118.808 35.3024 118.76 35.2544C118.76 35.0627 118.856 34.9429 119.047 34.8949C119.143 34.8949 120.246 34.7511 122.355 34.4635C122.93 34.3677 123.805 34.2359 124.979 34.0681C126.154 33.9003 126.932 33.7925 127.316 33.7445C128.227 33.6487 128.898 33.5528 129.329 33.4569H129.473V30.4371V27.4892H129.329C129.089 27.4892 127.747 27.657 125.303 27.9925C122.762 28.328 121.468 28.4718 121.42 28.4239C121.42 28.4239 121.384 28.2082 121.312 27.7768C121.24 27.3454 121.228 27.1057 121.276 27.0578C121.324 27.0099 122.594 26.8181 125.087 26.4826C127.532 26.1471 128.898 25.9793 129.185 25.9793L129.473 25.9074V23.1033V20.2992L129.185 20.3711C128.946 20.419 128.227 20.443 127.028 20.443C125.782 20.443 124.919 20.395 124.44 20.2992C124.008 20.2512 123.601 20.2033 123.218 20.1554C122.834 20.0595 122.523 19.9636 122.283 19.8678C122.043 19.7719 121.804 19.6281 121.564 19.4364C121.468 19.3884 121.384 19.3405 121.312 19.2926C121.24 19.2446 121.216 19.2207 121.24 19.2207C121.264 19.2207 121.396 19.1967 121.636 19.1488C122.211 19.1008 122.834 19.0289 123.505 18.9331C124.656 18.7893 125.854 18.6455 127.1 18.5017C128.586 18.3099 129.365 18.1901 129.437 18.1422C129.509 18.0942 129.665 18.0703 129.904 18.0703C130.144 18.0703 130.839 17.9744 131.989 17.7827C133.475 17.4951 134.554 17.2794 135.225 17.1356C136.471 16.8959 137.502 16.6802 138.317 16.4885C139.227 16.2967 139.875 16.1529 140.258 16.057C140.546 15.9612 140.713 15.9372 140.761 15.9851Z" fill="#4ECBD3"/>
<path d="M274.553 15.7776V16.4966C274.553 16.9759 274.601 17.3834 274.697 17.7189C274.793 18.1024 274.937 18.4858 275.129 18.8693C275.32 19.2528 275.56 19.5883 275.848 19.8759C276.183 20.2114 276.543 20.4751 276.926 20.6668C277.358 20.8585 277.621 20.9664 277.717 20.9904C277.813 21.0143 277.861 21.0982 277.861 21.242V21.5296L277.358 21.4577C277.118 21.4098 276.71 21.2899 276.135 21.0982C275.656 20.9544 275.225 20.7627 274.841 20.523C274.458 20.2833 274.122 20.0197 273.834 19.7321C273.595 19.4445 273.379 19.1329 273.187 18.7974C272.996 18.4619 272.876 18.1024 272.828 17.7189L272.684 17.1437H271.102L269.449 17.0718L269.305 17.647C269.257 18.0305 269.149 18.4019 268.981 18.7615C268.813 19.121 268.538 19.4685 268.154 19.804C267.819 20.1875 267.387 20.499 266.86 20.7387C266.333 20.9784 265.853 21.1701 265.422 21.3139C264.991 21.4098 264.691 21.4577 264.523 21.4577C264.356 21.4577 264.272 21.3858 264.272 21.242C264.272 21.0982 264.415 20.9784 264.703 20.8825C264.991 20.7866 265.278 20.6428 265.566 20.4511C265.806 20.3073 266.069 20.0916 266.357 19.804C266.644 19.4685 266.836 19.2048 266.932 19.0131C267.124 18.7255 267.28 18.378 267.399 17.9705C267.519 17.5631 267.579 17.0958 267.579 16.5685V15.7776H271.03H274.553ZM264.344 15.8495L264.415 16.4966V17.0718H259.023H253.702L253.63 22.4643C253.63 26.0114 253.606 27.8568 253.559 28.0006C253.511 28.1444 253.499 28.2163 253.523 28.2163C253.547 28.2163 253.654 28.2163 253.846 28.2163C254.038 28.2163 254.397 27.9767 254.925 27.4973C255.404 27.018 255.811 26.5626 256.147 26.1312C256.482 25.6998 256.77 25.2684 257.01 24.837L257.369 24.1899L255.644 24.118H253.846V23.4709V22.8238L255.859 22.7519H257.944L258.016 22.3205C258.112 22.0329 258.184 21.7453 258.232 21.4577C258.28 21.1222 258.304 20.9065 258.304 20.8106V20.5949H256.938H255.572L255.428 21.0263C255.332 21.266 255.2 21.4817 255.032 21.6734C254.865 21.8652 254.709 22.009 254.565 22.1048C254.373 22.1528 254.23 22.1767 254.134 22.1767C254.038 22.1767 253.99 21.5536 253.99 20.3073L254.062 18.366H254.853L255.716 18.2941V18.7974V19.3007H259.742H263.84V19.9478V20.5949L262.043 20.6668H260.173L259.958 21.6015C259.814 22.1767 259.718 22.5123 259.67 22.6081L260.03 22.7519C260.221 22.7519 260.868 22.7519 261.971 22.7519L264.344 22.8238V23.4709V24.118H261.683C259.91 24.118 258.999 24.166 258.951 24.2618C258.903 24.3577 258.903 24.4296 258.951 24.4775C258.951 24.4775 259.167 24.5255 259.598 24.6213C260.03 24.7172 260.485 24.837 260.964 24.9808C261.539 25.1726 261.971 25.3643 262.258 25.556C262.546 25.7478 262.81 25.9395 263.049 26.1312L263.409 26.4188L262.69 27.1378L261.971 27.8568L261.755 27.5692C261.659 27.3296 261.444 27.042 261.108 26.7064C260.773 26.3709 260.413 26.0593 260.03 25.7717C259.646 25.4841 259.335 25.2684 259.095 25.1246L258.592 24.9089L258.232 25.4841C257.944 25.9155 257.585 26.323 257.154 26.7064C256.674 27.1858 256.243 27.5453 255.859 27.7849L255.284 28.2163H259.814H264.415V28.9354V29.5825H258.592H252.768L252.264 29.8701C251.881 30.0618 251.473 30.1577 251.042 30.1577H250.467V22.9676V15.7776H257.441L264.344 15.8495ZM275.848 22.3205V22.9676C275.848 23.3511 275.848 23.5668 275.848 23.6147C275.752 23.6627 275.62 23.8544 275.452 24.1899C275.284 24.5255 275.057 24.9089 274.769 25.3403C274.434 25.7717 274.146 26.0833 273.906 26.275C273.715 26.4668 273.475 26.7064 273.187 26.994L272.684 27.3535L273.187 27.4973C273.379 27.5932 273.763 27.713 274.338 27.8568C274.769 28.0006 275.248 28.1205 275.776 28.2163C276.255 28.3122 276.591 28.3602 276.782 28.3602C276.926 28.3602 277.01 28.3721 277.034 28.3961C277.058 28.4201 277.046 28.504 276.998 28.6478C276.998 28.7436 276.974 29.0312 276.926 29.5106L276.854 30.0858L276.279 30.0139C275.896 30.0139 275.44 29.942 274.913 29.7982C274.529 29.7023 274.122 29.5825 273.691 29.4387C273.259 29.3428 272.732 29.1271 272.109 28.7916L271.03 28.2882L270.383 28.5759C270 28.7676 269.52 28.9593 268.945 29.1511C268.37 29.3428 267.867 29.5106 267.435 29.6544C266.956 29.7502 266.525 29.8461 266.141 29.942C265.71 30.0378 265.446 30.0858 265.35 30.0858C265.206 30.0858 265.134 30.0139 265.134 29.8701C265.134 29.7263 265.17 29.6304 265.242 29.5825C265.314 29.5345 265.614 29.4147 266.141 29.223C266.716 29.0312 267.387 28.7197 268.154 28.2882C269.017 27.8568 269.496 27.6172 269.592 27.5692C269.688 27.4734 269.736 27.4254 269.736 27.4254C269.736 27.3775 269.52 27.1858 269.089 26.8502C268.658 26.5626 268.226 26.1792 267.795 25.6998C267.363 25.2205 266.98 24.7651 266.644 24.3337C266.261 23.9023 265.973 23.6866 265.782 23.6866H265.494V23.0395V22.3205H270.671H275.848ZM270.168 23.6866C268.058 23.6866 267.004 23.6986 267.004 23.7226C267.004 23.7465 267.244 23.9503 267.723 24.3337C268.154 24.6693 268.682 25.0527 269.305 25.4841C269.928 25.9155 270.359 26.2031 270.599 26.3469L270.958 26.5626L271.246 26.275C271.486 26.0833 271.701 25.8916 271.893 25.6998C272.037 25.556 272.253 25.2924 272.54 24.9089C272.78 24.5734 272.972 24.2858 273.115 24.0461L273.331 23.6866H270.168Z" fill="#4ECBD3"/>
<path d="M276.431 31.7555V32.1215V32.7541H271.864H267.363V33.4756V34.4638H269.581H271.799V34.2808V34.1344H273.234H274.604V39.1484C274.648 42.4911 274.626 44.2478 274.539 44.4186C274.496 44.5894 274.43 44.748 274.343 44.8944C274.256 45.0407 274.082 45.1749 273.821 45.2969C273.604 45.4433 273.386 45.5531 273.169 45.6263C272.908 45.6995 272.625 45.7361 272.321 45.7361H271.799V45.2603V44.8212H263.384H254.903L254.707 45.0041C254.62 45.1261 254.49 45.242 254.316 45.3518C254.142 45.4616 253.924 45.5531 253.663 45.6263C253.402 45.6995 253.098 45.7361 252.75 45.7361H252.228L252.293 39.9536V34.1344H253.663H255.099V34.2808V34.4638H257.512H259.926V33.4756V32.7541H255.164H250.467V32.1215C250.467 31.9019 250.478 31.786 250.499 31.7738C250.521 31.7616 254.859 31.7555 263.514 31.7555H276.431ZM255.099 35.1592V39.6242V44.0892H263.449H271.799V39.6242V35.1592H269.581H267.363V36.8793V37.7472H268.994H270.625V38.9288V39.2582H268.863H267.102L266.906 39.4412C266.776 39.5632 266.624 39.673 266.45 39.7706C266.232 39.8438 266.037 39.9048 265.863 39.9536C265.645 40.0268 265.384 40.0634 265.08 40.0634H264.558V37.6113V35.1592H263.645H262.796L262.731 35.7081C262.688 36.0985 262.622 36.4157 262.536 36.6597C262.449 36.9037 262.34 37.1355 262.209 37.3551C262.035 37.5747 261.818 37.8308 261.557 38.1236C261.296 38.4164 261.013 38.6848 260.709 38.9288C260.404 39.1484 260.057 39.368 259.665 39.5876C259.23 39.8072 258.839 39.9902 258.491 40.1365C258.143 40.2829 257.752 40.4171 257.317 40.5391C256.969 40.6611 256.708 40.7343 256.534 40.7587L256.338 40.7953V40.5025V40.2097L256.729 40.0268C256.947 39.9536 257.23 39.8316 257.578 39.6608C257.882 39.5144 258.165 39.3436 258.426 39.1484C258.687 38.9532 258.882 38.7702 259.013 38.5994C259.23 38.4042 259.393 38.209 259.502 38.0138C259.611 37.8186 259.709 37.5869 259.796 37.3185C259.883 37.0745 259.926 36.6597 259.926 36.0741V35.1592H257.512H255.099ZM262.731 34.4638H264.558V32.7541H262.731V34.4638ZM270.56 42.7403L256.338 42.7769V41.4907H270.56V42.7403Z" fill="#4ECBD3"/>
<path d="M198.597 16.6081C198.326 16.0544 198.168 15.7776 198.123 15.7776L197.446 16.0544C196.995 16.1929 196.43 16.3774 195.753 16.6081C195.121 16.7927 194.399 16.9772 193.587 17.1618C192.774 17.3925 192.03 17.5771 191.353 17.7155C190.631 17.8539 189.796 18.0154 188.848 18.2C187.855 18.3384 187.087 18.4307 186.546 18.4768C185.914 18.5691 185.553 18.6614 185.463 18.7537L185.327 18.9613H186.41C187.133 19.0074 188.08 19.0305 189.254 19.0305H190.946L193.248 18.9613L193.587 18.8921C193.632 18.8921 193.779 18.8805 194.027 18.8575C194.275 18.8344 194.467 18.8229 194.602 18.8229C194.964 18.7767 195.392 18.6845 195.889 18.546C196.34 18.4537 196.972 18.2461 197.784 17.9231C198.597 17.6001 199.026 17.4387 199.071 17.4387C199.071 17.3925 198.913 17.1157 198.597 16.6081Z" fill="#4ECBD3"/>
<path d="M193.643 18.7734V19.6362L193.715 26.0594H195.225H196.735V25.7718V25.4123L198.317 25.3404H199.826V27.7131C199.826 29.2469 199.791 33.0616 199.719 33.4211C199.647 33.7806 199.539 34.1042 199.395 34.3918C199.251 34.6315 199.095 34.8472 198.928 35.0389C198.76 35.2306 198.508 35.4224 198.173 35.6141C197.837 35.7579 197.526 35.8298 197.238 35.8298C196.95 35.8298 196.783 35.7819 196.735 35.686C196.735 35.5901 196.735 35.4224 196.735 35.1827V34.7513H195.225H193.715V35.1028V35.7499V36.397V37.0442V37.1161V37.3317V37.6353H196.088H198.532V38.2824V38.9295H196.088H193.715L193.643 39.5766C193.643 40.008 193.571 40.4155 193.427 40.7989C193.331 41.1345 193.284 41.3022 193.284 41.3022C193.284 41.3022 194.194 41.1584 196.016 40.8708C197.885 40.5832 198.844 40.4394 198.892 40.4394C199.036 40.4394 199.107 40.6551 199.107 41.0865L199.036 41.8055L198.173 41.9493C197.358 42.0931 195.441 42.4047 192.421 42.884C191.654 42.9799 189.449 43.3154 185.806 43.8906C185.518 43.9386 185.219 43.9985 184.907 44.0704C184.596 44.1423 184.344 44.1902 184.152 44.2142C183.96 44.2382 183.865 44.2501 183.865 44.2501C183.769 44.2501 183.709 44.2262 183.685 44.1782C183.661 44.1303 183.673 43.9146 183.721 43.5311V42.884L184.08 42.8121C185.087 42.6204 186.165 42.4526 187.316 42.3088C189.281 41.9733 190.288 41.8055 190.336 41.8055L190.551 41.7336V40.3675V38.9295H187.675H184.799V38.2824V37.6353H187.675H190.551V37.3317V37.1161V37.0442V36.397V35.7499V35.1028V34.7513H188.826H187.1L186.884 35.0389C186.693 35.2306 186.429 35.4104 186.093 35.5782C185.758 35.7459 185.446 35.8298 185.159 35.8298H184.727V29.1511V25.4123L186.237 25.3404H187.747V25.6999V26.0594H189.185H190.551V19.6362C190.551 19.109 190.575 18.8334 190.623 18.8094C190.671 18.7854 191.174 18.7734 192.133 18.7734H193.643ZM187.747 27.4974V28.7197C187.747 29.5825 187.747 32.9538 187.747 33.0976L187.675 33.3852H189.113H190.551V29.0073V27.4974H189.185H187.747ZM193.715 33.3852H196.735V27.4974H193.715V33.3852Z" fill="#4ECBD3"/>
<path d="M205.65 18.7974V15.7776H204.14C203.133 15.7776 202.63 15.8016 202.63 15.8495C202.582 15.8495 202.558 16.8561 202.558 18.8693V21.8172H200.976H199.394V22.5362V23.2552H200.976H202.558V30.0858C202.558 34.6874 202.51 37.156 202.414 37.4915C202.318 37.827 202.175 38.2105 201.983 38.6419C201.791 39.0254 201.491 39.4807 201.084 40.008C200.677 40.5353 200.281 40.9907 199.898 41.3741C199.466 41.8055 199.011 42.213 198.532 42.5964C198.052 42.9799 197.549 43.3394 197.022 43.6749C196.446 44.0584 195.871 44.4179 195.296 44.7534C194.673 45.089 194.361 45.3286 194.361 45.4724C194.361 45.6162 194.385 45.6881 194.433 45.6881C194.529 45.6881 194.865 45.5923 195.44 45.4005C196.063 45.1609 196.59 44.9452 197.022 44.7534C197.597 44.5138 198.124 44.2741 198.603 44.0344C199.083 43.7948 199.562 43.5072 200.041 43.1716C200.473 42.884 200.904 42.5725 201.336 42.2369C201.815 41.8535 202.222 41.47 202.558 41.0865C202.941 40.6551 203.277 40.2716 203.565 39.9361C203.9 39.4568 204.116 39.1212 204.212 38.9295C204.403 38.6419 204.619 38.2345 204.859 37.7072C205.051 37.1799 205.218 36.6527 205.362 36.1254L205.578 35.3345L205.65 29.2949V23.2552H207.16H208.598V33.6089V43.9625H209.173H209.748L210.179 43.5311C210.467 43.2435 210.707 42.932 210.898 42.5964C211.09 42.213 211.258 41.8535 211.402 41.5179C211.498 41.1345 211.57 40.7989 211.617 40.5113C211.665 40.3196 211.689 39.3969 211.689 37.7432V30.661V21.3139H210.179H208.598V21.6015V21.8172H207.16H205.65V18.7974Z" fill="#4ECBD3"/>
<path d="M185.327 23.1354H198.828V21.7693H185.327V23.1354Z" fill="#4ECBD3"/>
<path d="M187.324 31.1244H198.828V29.7583H187.324V31.1244Z" fill="#4ECBD3"/>
<path d="M303.946 15.9132V16.2008C303.946 16.3925 303.898 16.6801 303.803 17.0636C303.707 17.4471 303.563 17.8066 303.371 18.1421C303.227 18.5256 303.012 18.8372 302.724 19.0768L302.365 19.4363L305.888 19.3644C308.284 19.3644 309.65 19.3405 309.986 19.2925H310.561L310.705 20.0834C310.801 20.7066 310.921 21.2338 311.064 21.6652C311.208 22.1446 311.376 22.576 311.568 22.9594C311.76 23.3429 311.843 23.5466 311.819 23.5706C311.795 23.5946 311.544 23.5107 311.064 23.3189C310.585 23.1751 310.178 23.0074 309.842 22.8156C309.507 22.576 309.195 22.3363 308.907 22.0966C308.62 21.809 308.38 21.5214 308.188 21.2338L307.973 20.8024H302.796H297.691L297.403 21.3776C297.212 21.7132 296.924 22.0727 296.541 22.4561C296.157 22.8396 295.702 23.1512 295.174 23.3908C294.647 23.6305 294.264 23.7983 294.024 23.8941C293.832 23.9421 293.725 23.9541 293.701 23.9301C293.677 23.9061 293.76 23.6545 293.952 23.1751C294.192 22.6958 294.384 22.1446 294.527 21.5214C294.719 20.8983 294.815 20.395 294.815 20.0115V19.4363H297.835H300.855V17.6388V15.9132H302.436H303.946ZM286.475 17.2074V17.5669V17.9264H287.769H289.063V17.6388V17.2793H290.573H292.155V20.4429C292.155 22.5041 292.107 23.7264 292.011 24.1098C291.963 24.4933 291.867 24.8289 291.723 25.1165C291.579 25.4041 291.388 25.6677 291.148 25.9074C290.86 26.195 290.621 26.3627 290.429 26.4107C290.285 26.5065 290.213 26.5664 290.213 26.5904C290.213 26.6144 290.273 26.6383 290.393 26.6623C290.513 26.6863 290.741 26.8421 291.076 27.1297C291.364 27.4173 291.579 27.7049 291.723 27.9925C291.867 28.2801 291.963 28.6156 292.011 28.9991C292.107 29.3825 292.155 30.6048 292.155 32.666V35.8296H289.782L287.409 35.7577V35.1106V34.4635H288.2H289.063V26.914V19.3644H287.769H286.475V30.7966C286.475 38.3701 286.439 42.3366 286.367 42.6961C286.295 43.0556 286.187 43.3552 286.043 43.5948C285.899 43.8824 285.744 44.1221 285.576 44.3139C285.408 44.5056 285.156 44.6734 284.821 44.8172C284.485 45.0089 284.174 45.1048 283.886 45.1048H283.383V31.0842V17.1355H284.893L286.475 17.2074ZM311.999 30.7966V31.5156V32.1627H308.836H305.672L305.6 37.0519C305.6 39.3527 305.588 40.7548 305.564 41.2581C305.54 41.7614 305.48 42.1329 305.384 42.3725C305.288 42.7081 305.145 43.0196 304.953 43.3072L304.665 43.6667H307.182H309.626V43.0915C309.674 42.6601 309.746 42.3006 309.842 42.013C309.938 41.7734 310.118 41.5217 310.381 41.2581C310.645 40.9944 310.921 40.7907 311.208 40.6469C311.496 40.5031 311.676 40.4312 311.748 40.4312C311.819 40.4312 311.855 41.1982 311.855 42.732V45.1048H307.11H302.436L302.365 38.6337V32.1627H301.646H300.855L300.783 32.4503C300.783 32.69 300.783 32.9296 300.783 33.1693C300.783 33.5048 300.711 34.0321 300.567 34.7511C300.471 35.566 300.351 36.261 300.208 36.8362C300.016 37.5073 299.824 38.1304 299.632 38.7056C299.441 39.2329 299.201 39.7602 298.913 40.2874C298.674 40.8147 298.41 41.294 298.122 41.7254C297.835 42.1089 297.451 42.5643 296.972 43.0915C296.541 43.5709 296.085 43.9544 295.606 44.242C295.222 44.5296 294.839 44.7692 294.455 44.961C294.024 45.1048 293.617 45.2486 293.233 45.3924C292.802 45.4882 292.346 45.5841 291.867 45.68C291.436 45.7279 291.172 45.7159 291.076 45.644C290.98 45.5721 291.052 45.4882 291.292 45.3924C291.34 45.3444 291.412 45.2965 291.508 45.2486C291.987 45.0089 292.346 44.8172 292.586 44.6734C292.922 44.4337 293.293 44.1101 293.701 43.7027C294.108 43.2953 294.503 42.8039 294.887 42.2287C295.27 41.6535 295.582 41.1263 295.822 40.6469C296.061 40.1197 296.301 39.4965 296.541 38.7775C296.78 38.0106 296.972 37.3155 297.116 36.6924C297.26 36.1172 297.379 35.518 297.475 34.8949C297.523 34.4635 297.571 33.9123 297.619 33.2412C297.667 32.666 297.691 32.3305 297.691 32.2346C297.643 32.1867 296.876 32.1627 295.39 32.1627H293.161V31.5156V30.7966H302.58H311.999ZM308.117 26.9859H295.678V25.5479H308.117V26.9859Z" fill="#4ECBD3"/>
</svg>
