<svg width="249" height="266" viewBox="0 0 249 266" fill="none" xmlns="http://www.w3.org/2000/svg">
<path d="M-12.25 9.5C-9.62665 9.5 -7.5 7.37335 -7.5 4.75C-7.5 2.12665 -9.62665 0 -12.25 0C-14.8734 0 -17 2.12665 -17 4.75C-17 7.37335 -14.8734 9.5 -12.25 9.5Z" fill="white"/>
<path d="M16.25 9.5C18.8734 9.5 21 7.37335 21 4.75C21 2.12665 18.8734 0 16.25 0C13.6266 0 11.5 2.12665 11.5 4.75C11.5 7.37335 13.6266 9.5 16.25 9.5Z" fill="white"/>
<path d="M49.5 4.75C49.5 7.37335 47.3734 9.5 44.75 9.5C42.1266 9.5 40 7.37335 40 4.75C40 2.12665 42.1266 0 44.75 0C47.3734 0 49.5 2.12665 49.5 4.75Z" fill="white"/>
<path d="M73.25 9.5C75.8734 9.5 78 7.37335 78 4.75C78 2.12665 75.8734 0 73.25 0C70.6266 0 68.5 2.12665 68.5 4.75C68.5 7.37335 70.6266 9.5 73.25 9.5Z" fill="white"/>
<path d="M106.5 4.75C106.5 7.37335 104.373 9.5 101.75 9.5C99.1266 9.5 97 7.37335 97 4.75C97 2.12665 99.1266 0 101.75 0C104.373 0 106.5 2.12665 106.5 4.75Z" fill="white"/>
<path d="M130.25 9.5C132.873 9.5 135 7.37335 135 4.75C135 2.12665 132.873 0 130.25 0C127.627 0 125.5 2.12665 125.5 4.75C125.5 7.37335 127.627 9.5 130.25 9.5Z" fill="white"/>
<path d="M163.5 4.75C163.5 7.37335 161.373 9.5 158.75 9.5C156.127 9.5 154 7.37335 154 4.75C154 2.12665 156.127 0 158.75 0C161.373 0 163.5 2.12665 163.5 4.75Z" fill="white"/>
<path d="M187.25 9.5C189.873 9.5 192 7.37335 192 4.75C192 2.12665 189.873 0 187.25 0C184.627 0 182.5 2.12665 182.5 4.75C182.5 7.37335 184.627 9.5 187.25 9.5Z" fill="white"/>
<path d="M220.5 4.75C220.5 7.37335 218.373 9.5 215.75 9.5C213.127 9.5 211 7.37335 211 4.75C211 2.12665 213.127 0 215.75 0C218.373 0 220.5 2.12665 220.5 4.75Z" fill="white"/>
<path d="M244.25 9.5C246.873 9.5 249 7.37335 249 4.75C249 2.12665 246.873 0 244.25 0C241.627 0 239.5 2.12665 239.5 4.75C239.5 7.37335 241.627 9.5 244.25 9.5Z" fill="white"/>
<path d="M-7.5 33.25C-7.5 35.8734 -9.62665 38 -12.25 38C-14.8734 38 -17 35.8734 -17 33.25C-17 30.6266 -14.8734 28.5 -12.25 28.5C-9.62665 28.5 -7.5 30.6266 -7.5 33.25Z" fill="white"/>
<path d="M16.25 38C18.8734 38 21 35.8734 21 33.25C21 30.6266 18.8734 28.5 16.25 28.5C13.6266 28.5 11.5 30.6266 11.5 33.25C11.5 35.8734 13.6266 38 16.25 38Z" fill="white"/>
<path d="M49.5 33.25C49.5 35.8734 47.3734 38 44.75 38C42.1266 38 40 35.8734 40 33.25C40 30.6266 42.1266 28.5 44.75 28.5C47.3734 28.5 49.5 30.6266 49.5 33.25Z" fill="white"/>
<path d="M73.25 38C75.8734 38 78 35.8734 78 33.25C78 30.6266 75.8734 28.5 73.25 28.5C70.6266 28.5 68.5 30.6266 68.5 33.25C68.5 35.8734 70.6266 38 73.25 38Z" fill="white"/>
<path d="M106.5 33.25C106.5 35.8734 104.373 38 101.75 38C99.1266 38 97 35.8734 97 33.25C97 30.6266 99.1266 28.5 101.75 28.5C104.373 28.5 106.5 30.6266 106.5 33.25Z" fill="white"/>
<path d="M130.25 38C132.873 38 135 35.8734 135 33.25C135 30.6266 132.873 28.5 130.25 28.5C127.627 28.5 125.5 30.6266 125.5 33.25C125.5 35.8734 127.627 38 130.25 38Z" fill="white"/>
<path d="M163.5 33.25C163.5 35.8734 161.373 38 158.75 38C156.127 38 154 35.8734 154 33.25C154 30.6266 156.127 28.5 158.75 28.5C161.373 28.5 163.5 30.6266 163.5 33.25Z" fill="white"/>
<path d="M187.25 38C189.873 38 192 35.8734 192 33.25C192 30.6266 189.873 28.5 187.25 28.5C184.627 28.5 182.5 30.6266 182.5 33.25C182.5 35.8734 184.627 38 187.25 38Z" fill="white"/>
<path d="M220.5 33.25C220.5 35.8734 218.373 38 215.75 38C213.127 38 211 35.8734 211 33.25C211 30.6266 213.127 28.5 215.75 28.5C218.373 28.5 220.5 30.6266 220.5 33.25Z" fill="white"/>
<path d="M244.25 38C246.873 38 249 35.8734 249 33.25C249 30.6266 246.873 28.5 244.25 28.5C241.627 28.5 239.5 30.6266 239.5 33.25C239.5 35.8734 241.627 38 244.25 38Z" fill="white"/>
<path d="M-7.5 61.75C-7.5 64.3734 -9.62665 66.5 -12.25 66.5C-14.8734 66.5 -17 64.3734 -17 61.75C-17 59.1266 -14.8734 57 -12.25 57C-9.62665 57 -7.5 59.1266 -7.5 61.75Z" fill="white"/>
<path d="M16.25 66.5C18.8734 66.5 21 64.3734 21 61.75C21 59.1266 18.8734 57 16.25 57C13.6266 57 11.5 59.1266 11.5 61.75C11.5 64.3734 13.6266 66.5 16.25 66.5Z" fill="white"/>
<path d="M49.5 61.75C49.5 64.3734 47.3734 66.5 44.75 66.5C42.1266 66.5 40 64.3734 40 61.75C40 59.1266 42.1266 57 44.75 57C47.3734 57 49.5 59.1266 49.5 61.75Z" fill="white"/>
<path d="M73.25 66.5C75.8734 66.5 78 64.3734 78 61.75C78 59.1266 75.8734 57 73.25 57C70.6266 57 68.5 59.1266 68.5 61.75C68.5 64.3734 70.6266 66.5 73.25 66.5Z" fill="white"/>
<path d="M106.5 61.75C106.5 64.3734 104.373 66.5 101.75 66.5C99.1266 66.5 97 64.3734 97 61.75C97 59.1266 99.1266 57 101.75 57C104.373 57 106.5 59.1266 106.5 61.75Z" fill="white"/>
<path d="M130.25 66.5C132.873 66.5 135 64.3734 135 61.75C135 59.1266 132.873 57 130.25 57C127.627 57 125.5 59.1266 125.5 61.75C125.5 64.3734 127.627 66.5 130.25 66.5Z" fill="white"/>
<path d="M163.5 61.75C163.5 64.3734 161.373 66.5 158.75 66.5C156.127 66.5 154 64.3734 154 61.75C154 59.1266 156.127 57 158.75 57C161.373 57 163.5 59.1266 163.5 61.75Z" fill="white"/>
<path d="M187.25 66.5C189.873 66.5 192 64.3734 192 61.75C192 59.1266 189.873 57 187.25 57C184.627 57 182.5 59.1266 182.5 61.75C182.5 64.3734 184.627 66.5 187.25 66.5Z" fill="white"/>
<path d="M220.5 61.75C220.5 64.3734 218.373 66.5 215.75 66.5C213.127 66.5 211 64.3734 211 61.75C211 59.1266 213.127 57 215.75 57C218.373 57 220.5 59.1266 220.5 61.75Z" fill="white"/>
<path d="M244.25 66.5C246.873 66.5 249 64.3734 249 61.75C249 59.1266 246.873 57 244.25 57C241.627 57 239.5 59.1266 239.5 61.75C239.5 64.3734 241.627 66.5 244.25 66.5Z" fill="white"/>
<path d="M-7.5 90.25C-7.5 92.8734 -9.62665 95 -12.25 95C-14.8734 95 -17 92.8734 -17 90.25C-17 87.6266 -14.8734 85.5 -12.25 85.5C-9.62665 85.5 -7.5 87.6266 -7.5 90.25Z" fill="white"/>
<path d="M16.25 95C18.8734 95 21 92.8734 21 90.25C21 87.6266 18.8734 85.5 16.25 85.5C13.6266 85.5 11.5 87.6266 11.5 90.25C11.5 92.8734 13.6266 95 16.25 95Z" fill="white"/>
<path d="M49.5 90.25C49.5 92.8734 47.3734 95 44.75 95C42.1266 95 40 92.8734 40 90.25C40 87.6266 42.1266 85.5 44.75 85.5C47.3734 85.5 49.5 87.6266 49.5 90.25Z" fill="white"/>
<path d="M73.25 95C75.8734 95 78 92.8734 78 90.25C78 87.6266 75.8734 85.5 73.25 85.5C70.6266 85.5 68.5 87.6266 68.5 90.25C68.5 92.8734 70.6266 95 73.25 95Z" fill="white"/>
<path d="M106.5 90.25C106.5 92.8734 104.373 95 101.75 95C99.1266 95 97 92.8734 97 90.25C97 87.6266 99.1266 85.5 101.75 85.5C104.373 85.5 106.5 87.6266 106.5 90.25Z" fill="white"/>
<path d="M130.25 95C132.873 95 135 92.8734 135 90.25C135 87.6266 132.873 85.5 130.25 85.5C127.627 85.5 125.5 87.6266 125.5 90.25C125.5 92.8734 127.627 95 130.25 95Z" fill="white"/>
<path d="M163.5 90.25C163.5 92.8734 161.373 95 158.75 95C156.127 95 154 92.8734 154 90.25C154 87.6266 156.127 85.5 158.75 85.5C161.373 85.5 163.5 87.6266 163.5 90.25Z" fill="white"/>
<path d="M187.25 95C189.873 95 192 92.8734 192 90.25C192 87.6266 189.873 85.5 187.25 85.5C184.627 85.5 182.5 87.6266 182.5 90.25C182.5 92.8734 184.627 95 187.25 95Z" fill="white"/>
<path d="M220.5 90.25C220.5 92.8734 218.373 95 215.75 95C213.127 95 211 92.8734 211 90.25C211 87.6266 213.127 85.5 215.75 85.5C218.373 85.5 220.5 87.6266 220.5 90.25Z" fill="white"/>
<path d="M244.25 95C246.873 95 249 92.8734 249 90.25C249 87.6266 246.873 85.5 244.25 85.5C241.627 85.5 239.5 87.6266 239.5 90.25C239.5 92.8734 241.627 95 244.25 95Z" fill="white"/>
<path d="M-7.5 118.75C-7.5 121.373 -9.62665 123.5 -12.25 123.5C-14.8734 123.5 -17 121.373 -17 118.75C-17 116.127 -14.8734 114 -12.25 114C-9.62665 114 -7.5 116.127 -7.5 118.75Z" fill="white"/>
<path d="M16.25 123.5C18.8734 123.5 21 121.373 21 118.75C21 116.127 18.8734 114 16.25 114C13.6266 114 11.5 116.127 11.5 118.75C11.5 121.373 13.6266 123.5 16.25 123.5Z" fill="white"/>
<path d="M49.5 118.75C49.5 121.373 47.3734 123.5 44.75 123.5C42.1266 123.5 40 121.373 40 118.75C40 116.127 42.1266 114 44.75 114C47.3734 114 49.5 116.127 49.5 118.75Z" fill="white"/>
<path d="M73.25 123.5C75.8734 123.5 78 121.373 78 118.75C78 116.127 75.8734 114 73.25 114C70.6266 114 68.5 116.127 68.5 118.75C68.5 121.373 70.6266 123.5 73.25 123.5Z" fill="white"/>
<path d="M106.5 118.75C106.5 121.373 104.373 123.5 101.75 123.5C99.1266 123.5 97 121.373 97 118.75C97 116.127 99.1266 114 101.75 114C104.373 114 106.5 116.127 106.5 118.75Z" fill="white"/>
<path d="M130.25 123.5C132.873 123.5 135 121.373 135 118.75C135 116.127 132.873 114 130.25 114C127.627 114 125.5 116.127 125.5 118.75C125.5 121.373 127.627 123.5 130.25 123.5Z" fill="white"/>
<path d="M163.5 118.75C163.5 121.373 161.373 123.5 158.75 123.5C156.127 123.5 154 121.373 154 118.75C154 116.127 156.127 114 158.75 114C161.373 114 163.5 116.127 163.5 118.75Z" fill="white"/>
<path d="M187.25 123.5C189.873 123.5 192 121.373 192 118.75C192 116.127 189.873 114 187.25 114C184.627 114 182.5 116.127 182.5 118.75C182.5 121.373 184.627 123.5 187.25 123.5Z" fill="white"/>
<path d="M220.5 118.75C220.5 121.373 218.373 123.5 215.75 123.5C213.127 123.5 211 121.373 211 118.75C211 116.127 213.127 114 215.75 114C218.373 114 220.5 116.127 220.5 118.75Z" fill="white"/>
<path d="M244.25 123.5C246.873 123.5 249 121.373 249 118.75C249 116.127 246.873 114 244.25 114C241.627 114 239.5 116.127 239.5 118.75C239.5 121.373 241.627 123.5 244.25 123.5Z" fill="white"/>
<path d="M-7.5 147.25C-7.5 149.873 -9.62665 152 -12.25 152C-14.8734 152 -17 149.873 -17 147.25C-17 144.627 -14.8734 142.5 -12.25 142.5C-9.62665 142.5 -7.5 144.627 -7.5 147.25Z" fill="white"/>
<path d="M16.25 152C18.8734 152 21 149.873 21 147.25C21 144.627 18.8734 142.5 16.25 142.5C13.6266 142.5 11.5 144.627 11.5 147.25C11.5 149.873 13.6266 152 16.25 152Z" fill="white"/>
<path d="M49.5 147.25C49.5 149.873 47.3734 152 44.75 152C42.1266 152 40 149.873 40 147.25C40 144.627 42.1266 142.5 44.75 142.5C47.3734 142.5 49.5 144.627 49.5 147.25Z" fill="white"/>
<path d="M73.25 152C75.8734 152 78 149.873 78 147.25C78 144.627 75.8734 142.5 73.25 142.5C70.6266 142.5 68.5 144.627 68.5 147.25C68.5 149.873 70.6266 152 73.25 152Z" fill="white"/>
<path d="M106.5 147.25C106.5 149.873 104.373 152 101.75 152C99.1266 152 97 149.873 97 147.25C97 144.627 99.1266 142.5 101.75 142.5C104.373 142.5 106.5 144.627 106.5 147.25Z" fill="white"/>
<path d="M130.25 152C132.873 152 135 149.873 135 147.25C135 144.627 132.873 142.5 130.25 142.5C127.627 142.5 125.5 144.627 125.5 147.25C125.5 149.873 127.627 152 130.25 152Z" fill="white"/>
<path d="M163.5 147.25C163.5 149.873 161.373 152 158.75 152C156.127 152 154 149.873 154 147.25C154 144.627 156.127 142.5 158.75 142.5C161.373 142.5 163.5 144.627 163.5 147.25Z" fill="white"/>
<path d="M187.25 152C189.873 152 192 149.873 192 147.25C192 144.627 189.873 142.5 187.25 142.5C184.627 142.5 182.5 144.627 182.5 147.25C182.5 149.873 184.627 152 187.25 152Z" fill="white"/>
<path d="M220.5 147.25C220.5 149.873 218.373 152 215.75 152C213.127 152 211 149.873 211 147.25C211 144.627 213.127 142.5 215.75 142.5C218.373 142.5 220.5 144.627 220.5 147.25Z" fill="white"/>
<path d="M244.25 152C246.873 152 249 149.873 249 147.25C249 144.627 246.873 142.5 244.25 142.5C241.627 142.5 239.5 144.627 239.5 147.25C239.5 149.873 241.627 152 244.25 152Z" fill="white"/>
<path d="M-7.5 175.75C-7.5 178.373 -9.62665 180.5 -12.25 180.5C-14.8734 180.5 -17 178.373 -17 175.75C-17 173.127 -14.8734 171 -12.25 171C-9.62665 171 -7.5 173.127 -7.5 175.75Z" fill="white"/>
<path d="M16.25 180.5C18.8734 180.5 21 178.373 21 175.75C21 173.127 18.8734 171 16.25 171C13.6266 171 11.5 173.127 11.5 175.75C11.5 178.373 13.6266 180.5 16.25 180.5Z" fill="white"/>
<path d="M49.5 175.75C49.5 178.373 47.3734 180.5 44.75 180.5C42.1266 180.5 40 178.373 40 175.75C40 173.127 42.1266 171 44.75 171C47.3734 171 49.5 173.127 49.5 175.75Z" fill="white"/>
<path d="M73.25 180.5C75.8734 180.5 78 178.373 78 175.75C78 173.127 75.8734 171 73.25 171C70.6266 171 68.5 173.127 68.5 175.75C68.5 178.373 70.6266 180.5 73.25 180.5Z" fill="white"/>
<path d="M106.5 175.75C106.5 178.373 104.373 180.5 101.75 180.5C99.1266 180.5 97 178.373 97 175.75C97 173.127 99.1266 171 101.75 171C104.373 171 106.5 173.127 106.5 175.75Z" fill="white"/>
<path d="M130.25 180.5C132.873 180.5 135 178.373 135 175.75C135 173.127 132.873 171 130.25 171C127.627 171 125.5 173.127 125.5 175.75C125.5 178.373 127.627 180.5 130.25 180.5Z" fill="white"/>
<path d="M163.5 175.75C163.5 178.373 161.373 180.5 158.75 180.5C156.127 180.5 154 178.373 154 175.75C154 173.127 156.127 171 158.75 171C161.373 171 163.5 173.127 163.5 175.75Z" fill="white"/>
<path d="M187.25 180.5C189.873 180.5 192 178.373 192 175.75C192 173.127 189.873 171 187.25 171C184.627 171 182.5 173.127 182.5 175.75C182.5 178.373 184.627 180.5 187.25 180.5Z" fill="white"/>
<path d="M220.5 175.75C220.5 178.373 218.373 180.5 215.75 180.5C213.127 180.5 211 178.373 211 175.75C211 173.127 213.127 171 215.75 171C218.373 171 220.5 173.127 220.5 175.75Z" fill="white"/>
<path d="M244.25 180.5C246.873 180.5 249 178.373 249 175.75C249 173.127 246.873 171 244.25 171C241.627 171 239.5 173.127 239.5 175.75C239.5 178.373 241.627 180.5 244.25 180.5Z" fill="white"/>
<path d="M-7.5 204.25C-7.5 206.873 -9.62665 209 -12.25 209C-14.8734 209 -17 206.873 -17 204.25C-17 201.627 -14.8734 199.5 -12.25 199.5C-9.62665 199.5 -7.5 201.627 -7.5 204.25Z" fill="white"/>
<path d="M16.25 209C18.8734 209 21 206.873 21 204.25C21 201.627 18.8734 199.5 16.25 199.5C13.6266 199.5 11.5 201.627 11.5 204.25C11.5 206.873 13.6266 209 16.25 209Z" fill="white"/>
<path d="M49.5 204.25C49.5 206.873 47.3734 209 44.75 209C42.1266 209 40 206.873 40 204.25C40 201.627 42.1266 199.5 44.75 199.5C47.3734 199.5 49.5 201.627 49.5 204.25Z" fill="white"/>
<path d="M73.25 209C75.8734 209 78 206.873 78 204.25C78 201.627 75.8734 199.5 73.25 199.5C70.6266 199.5 68.5 201.627 68.5 204.25C68.5 206.873 70.6266 209 73.25 209Z" fill="white"/>
<path d="M106.5 204.25C106.5 206.873 104.373 209 101.75 209C99.1266 209 97 206.873 97 204.25C97 201.627 99.1266 199.5 101.75 199.5C104.373 199.5 106.5 201.627 106.5 204.25Z" fill="white"/>
<path d="M130.25 209C132.873 209 135 206.873 135 204.25C135 201.627 132.873 199.5 130.25 199.5C127.627 199.5 125.5 201.627 125.5 204.25C125.5 206.873 127.627 209 130.25 209Z" fill="white"/>
<path d="M163.5 204.25C163.5 206.873 161.373 209 158.75 209C156.127 209 154 206.873 154 204.25C154 201.627 156.127 199.5 158.75 199.5C161.373 199.5 163.5 201.627 163.5 204.25Z" fill="white"/>
<path d="M187.25 209C189.873 209 192 206.873 192 204.25C192 201.627 189.873 199.5 187.25 199.5C184.627 199.5 182.5 201.627 182.5 204.25C182.5 206.873 184.627 209 187.25 209Z" fill="white"/>
<path d="M220.5 204.25C220.5 206.873 218.373 209 215.75 209C213.127 209 211 206.873 211 204.25C211 201.627 213.127 199.5 215.75 199.5C218.373 199.5 220.5 201.627 220.5 204.25Z" fill="white"/>
<path d="M244.25 209C246.873 209 249 206.873 249 204.25C249 201.627 246.873 199.5 244.25 199.5C241.627 199.5 239.5 201.627 239.5 204.25C239.5 206.873 241.627 209 244.25 209Z" fill="white"/>
<path d="M-7.5 232.75C-7.5 235.373 -9.62665 237.5 -12.25 237.5C-14.8734 237.5 -17 235.373 -17 232.75C-17 230.127 -14.8734 228 -12.25 228C-9.62665 228 -7.5 230.127 -7.5 232.75Z" fill="white"/>
<path d="M16.25 237.5C18.8734 237.5 21 235.373 21 232.75C21 230.127 18.8734 228 16.25 228C13.6266 228 11.5 230.127 11.5 232.75C11.5 235.373 13.6266 237.5 16.25 237.5Z" fill="white"/>
<path d="M49.5 232.75C49.5 235.373 47.3734 237.5 44.75 237.5C42.1266 237.5 40 235.373 40 232.75C40 230.127 42.1266 228 44.75 228C47.3734 228 49.5 230.127 49.5 232.75Z" fill="white"/>
<path d="M73.25 237.5C75.8734 237.5 78 235.373 78 232.75C78 230.127 75.8734 228 73.25 228C70.6266 228 68.5 230.127 68.5 232.75C68.5 235.373 70.6266 237.5 73.25 237.5Z" fill="white"/>
<path d="M106.5 232.75C106.5 235.373 104.373 237.5 101.75 237.5C99.1266 237.5 97 235.373 97 232.75C97 230.127 99.1266 228 101.75 228C104.373 228 106.5 230.127 106.5 232.75Z" fill="white"/>
<path d="M130.25 237.5C132.873 237.5 135 235.373 135 232.75C135 230.127 132.873 228 130.25 228C127.627 228 125.5 230.127 125.5 232.75C125.5 235.373 127.627 237.5 130.25 237.5Z" fill="white"/>
<path d="M163.5 232.75C163.5 235.373 161.373 237.5 158.75 237.5C156.127 237.5 154 235.373 154 232.75C154 230.127 156.127 228 158.75 228C161.373 228 163.5 230.127 163.5 232.75Z" fill="white"/>
<path d="M187.25 237.5C189.873 237.5 192 235.373 192 232.75C192 230.127 189.873 228 187.25 228C184.627 228 182.5 230.127 182.5 232.75C182.5 235.373 184.627 237.5 187.25 237.5Z" fill="white"/>
<path d="M220.5 232.75C220.5 235.373 218.373 237.5 215.75 237.5C213.127 237.5 211 235.373 211 232.75C211 230.127 213.127 228 215.75 228C218.373 228 220.5 230.127 220.5 232.75Z" fill="white"/>
<path d="M244.25 237.5C246.873 237.5 249 235.373 249 232.75C249 230.127 246.873 228 244.25 228C241.627 228 239.5 230.127 239.5 232.75C239.5 235.373 241.627 237.5 244.25 237.5Z" fill="white"/>
<path d="M-7.5 261.25C-7.5 263.873 -9.62665 266 -12.25 266C-14.8734 266 -17 263.873 -17 261.25C-17 258.627 -14.8734 256.5 -12.25 256.5C-9.62665 256.5 -7.5 258.627 -7.5 261.25Z" fill="white"/>
<path d="M16.25 266C18.8734 266 21 263.873 21 261.25C21 258.627 18.8734 256.5 16.25 256.5C13.6266 256.5 11.5 258.627 11.5 261.25C11.5 263.873 13.6266 266 16.25 266Z" fill="white"/>
<path d="M49.5 261.25C49.5 263.873 47.3734 266 44.75 266C42.1266 266 40 263.873 40 261.25C40 258.627 42.1266 256.5 44.75 256.5C47.3734 256.5 49.5 258.627 49.5 261.25Z" fill="white"/>
<path d="M73.25 266C75.8734 266 78 263.873 78 261.25C78 258.627 75.8734 256.5 73.25 256.5C70.6266 256.5 68.5 258.627 68.5 261.25C68.5 263.873 70.6266 266 73.25 266Z" fill="white"/>
<path d="M106.5 261.25C106.5 263.873 104.373 266 101.75 266C99.1266 266 97 263.873 97 261.25C97 258.627 99.1266 256.5 101.75 256.5C104.373 256.5 106.5 258.627 106.5 261.25Z" fill="white"/>
<path d="M130.25 266C132.873 266 135 263.873 135 261.25C135 258.627 132.873 256.5 130.25 256.5C127.627 256.5 125.5 258.627 125.5 261.25C125.5 263.873 127.627 266 130.25 266Z" fill="white"/>
<path d="M163.5 261.25C163.5 263.873 161.373 266 158.75 266C156.127 266 154 263.873 154 261.25C154 258.627 156.127 256.5 158.75 256.5C161.373 256.5 163.5 258.627 163.5 261.25Z" fill="white"/>
<path d="M187.25 266C189.873 266 192 263.873 192 261.25C192 258.627 189.873 256.5 187.25 256.5C184.627 256.5 182.5 258.627 182.5 261.25C182.5 263.873 184.627 266 187.25 266Z" fill="white"/>
<path d="M220.5 261.25C220.5 263.873 218.373 266 215.75 266C213.127 266 211 263.873 211 261.25C211 258.627 213.127 256.5 215.75 256.5C218.373 256.5 220.5 258.627 220.5 261.25Z" fill="white"/>
<path d="M244.25 266C246.873 266 249 263.873 249 261.25C249 258.627 246.873 256.5 244.25 256.5C241.627 256.5 239.5 258.627 239.5 261.25C239.5 263.873 241.627 266 244.25 266Z" fill="white"/>
</svg>
