<svg width="40" height="41" viewBox="0 0 40 41" fill="none" xmlns="http://www.w3.org/2000/svg">
<path d="M38.8593 28.7654L30.1091 25.0154C29.7353 24.856 29.3199 24.8225 28.9254 24.9197C28.5308 25.0169 28.1786 25.2397 27.9216 25.5544L24.0465 30.2889C17.965 27.4215 13.0707 22.5272 10.2033 16.4457L14.9378 12.5706C15.2531 12.3141 15.4764 11.9618 15.5736 11.5671C15.6709 11.1724 15.6369 10.7567 15.4768 10.3831L11.7268 1.63291C11.5511 1.23009 11.2403 0.901209 10.8481 0.702966C10.4559 0.504723 10.0068 0.449546 9.57829 0.546949L1.45315 2.42198C1.03999 2.51739 0.671375 2.75002 0.407456 3.0819C0.143538 3.41379 -9.51743e-05 3.82533 4.73149e-08 4.24936C4.73149e-08 24.2888 16.2425 40.5 36.2506 40.5C36.6748 40.5003 37.0865 40.3567 37.4186 40.0928C37.7506 39.8289 37.9833 39.4601 38.0788 39.0469L39.9538 30.9217C40.0506 30.4911 39.9942 30.0402 39.7945 29.6466C39.5947 29.2531 39.264 28.9415 38.8593 28.7654Z" fill="#333333"/>
</svg>
