<svg width="578" height="156" viewBox="0 0 578 156" fill="none" xmlns="http://www.w3.org/2000/svg">
<path d="M13.2527 124.612C16.8766 130.884 21.5459 135.553 27.2606 138.619C33.1146 141.686 39.7353 143.219 47.1226 143.219C51.7222 143.219 56.043 142.522 60.0851 141.128C64.1272 139.735 67.6117 137.783 70.5388 135.274C73.6052 132.765 75.9747 129.769 77.6473 126.284C79.4592 122.66 80.3652 118.618 80.3652 114.158C80.3652 109.001 79.2502 104.75 77.0201 101.404C74.9293 98.0592 72.072 95.3413 68.448 93.2505C64.8241 91.0204 60.7123 89.1387 56.1127 87.6055C51.6525 86.0723 46.9832 84.5391 42.1048 83.0059C37.3658 81.4727 32.6965 79.7304 28.0969 77.7791C23.6367 75.8277 19.5946 73.3189 15.9706 70.2524C12.3467 67.0467 9.41966 63.0743 7.18955 58.3353C5.09881 53.5963 4.05345 47.7422 4.05345 40.7731C4.05345 34.2221 5.30789 28.4378 7.81677 23.42C10.465 18.2629 13.9496 14.0117 18.2704 10.6665C22.7307 7.18199 27.8181 4.60342 33.5328 2.93083C39.2475 1.11887 45.2409 0.212891 51.5131 0.212891C59.5973 0.212891 67.0542 1.6764 73.8839 4.60342C80.8531 7.39107 86.8465 12.1301 91.8643 18.8204L79.9471 27.3924C76.4625 22.514 72.3507 18.8901 67.6117 16.5206C63.0121 14.0117 57.5065 12.7573 51.095 12.7573C46.6347 12.7573 42.3836 13.3845 38.3415 14.6389C34.2994 15.754 30.7451 17.4963 27.6787 19.8658C24.7517 22.0959 22.3822 24.9532 20.5702 28.4378C18.7583 31.9223 17.8523 36.0341 17.8523 40.7731C17.8523 48.1604 19.7339 53.875 23.4973 57.9171C27.2606 61.8198 31.9299 64.9559 37.5052 67.3254C43.2199 69.5555 49.3527 71.5766 55.9036 73.3886C62.594 75.0611 68.7268 77.3609 74.3021 80.288C80.0168 83.215 84.7558 87.3268 88.5191 92.6233C92.2824 97.7804 94.1641 104.959 94.1641 114.158C94.1641 120.848 92.9096 126.772 90.4007 131.929C87.8919 137.086 84.477 141.477 80.1561 145.101C75.9747 148.585 71.0963 151.234 65.521 153.046C59.9457 154.857 54.1614 155.763 48.1679 155.763C38.4112 155.763 29.421 154.091 21.1975 150.746C12.9739 147.261 5.93511 141.477 0.0810547 133.393L13.2527 124.612Z" fill="white"/>
<path d="M202.202 133.811C197.324 141.198 191.261 146.495 184.013 149.7C176.905 152.906 169.03 154.509 160.388 154.509C153.001 154.509 146.31 153.255 140.317 150.746C134.323 148.237 129.166 144.752 124.845 140.292C120.525 135.692 117.179 130.326 114.81 124.193C112.58 117.921 111.465 111.022 111.465 103.495C111.465 96.2472 112.649 89.5569 115.019 83.4241C117.388 77.2913 120.734 71.9947 125.054 67.5345C129.375 62.9349 134.463 59.3806 140.317 56.8718C146.171 54.2235 152.652 52.8994 159.761 52.8994C167.148 52.8994 173.629 54.2235 179.204 56.8718C184.919 59.3806 189.658 62.7955 193.421 67.1164C197.324 71.2978 200.251 76.1065 202.202 81.5424C204.154 86.9783 205.13 92.4839 205.13 98.0592V106.84H124.009C124.009 109.489 124.497 112.903 125.473 117.085C126.588 121.127 128.539 125.099 131.327 129.002C134.114 132.905 137.808 136.25 142.408 139.038C147.147 141.825 153.21 143.219 160.597 143.219C167.008 143.219 173.211 141.686 179.204 138.619C185.198 135.553 189.797 131.372 193.003 126.075L202.202 133.811ZM192.585 95.5503C192.585 91.2295 191.679 87.1874 189.867 83.4241C188.195 79.6608 185.825 76.3853 182.759 73.5976C179.832 70.6706 176.277 68.3708 172.096 66.6982C168.054 65.0256 163.733 64.1893 159.133 64.1893C152.304 64.1893 146.589 65.5832 141.989 68.3708C137.529 71.1584 133.975 74.3642 131.327 77.9882C128.678 81.6121 126.797 85.1663 125.682 88.6509C124.567 91.9961 124.009 94.2959 124.009 95.5503H192.585Z" fill="white"/>
<path d="M228.075 82.5878C228.075 80.7758 228.005 78.6154 227.866 76.1065C227.727 73.4582 227.587 70.81 227.448 68.1617C227.448 65.5135 227.378 63.0743 227.239 60.8442C227.099 58.4747 227.03 56.6627 227.03 55.4082H239.574C239.714 59.0322 239.783 62.5167 239.783 65.8619C239.923 69.2071 240.132 71.3675 240.41 72.3432C243.616 66.6285 247.728 61.9592 252.746 58.3353C257.764 54.7113 263.896 52.8994 271.144 52.8994C272.399 52.8994 273.583 53.0387 274.698 53.3175C275.953 53.4569 277.207 53.666 278.462 53.9447L276.998 66.2801C275.326 65.7225 273.723 65.4438 272.19 65.4438C266.754 65.4438 262.015 66.3497 257.973 68.1617C254.07 69.8343 250.794 72.2038 248.146 75.2702C245.637 78.3366 243.756 81.9606 242.501 86.142C241.247 90.1841 240.62 94.5747 240.62 99.3137V152H228.075V82.5878Z" fill="white"/>
<path d="M284.108 55.4082H298.325L330.523 138.41L361.884 55.4082H374.637L336.586 152H323.623L284.108 55.4082Z" fill="white"/>
<path d="M391.567 55.4082H404.111V152H391.567V55.4082ZM388.431 17.1478C388.431 14.4996 389.337 12.2694 391.149 10.4575C392.961 8.6455 395.191 7.73952 397.839 7.73952C400.487 7.73952 402.718 8.6455 404.53 10.4575C406.341 12.2694 407.247 14.4996 407.247 17.1478C407.247 19.7961 406.341 22.0262 404.53 23.8382C402.718 25.6501 400.487 26.5561 397.839 26.5561C395.191 26.5561 392.961 25.6501 391.149 23.8382C389.337 22.0262 388.431 19.7961 388.431 17.1478Z" fill="white"/>
<path d="M515.614 137.783C510.875 143.498 505.509 147.749 499.516 150.537C493.522 153.185 487.041 154.509 480.072 154.509C472.684 154.509 465.855 153.255 459.583 150.746C453.31 148.237 447.944 144.752 443.484 140.292C439.024 135.692 435.539 130.326 433.03 124.193C430.521 117.921 429.267 111.091 429.267 103.704C429.267 96.3169 430.521 89.5569 433.03 83.4241C435.539 77.1519 439.024 71.7856 443.484 67.3254C447.944 62.7258 453.31 59.1716 459.583 56.6627C465.855 54.1538 472.684 52.8994 480.072 52.8994C487.18 52.8994 493.731 54.3629 499.725 57.2899C505.857 60.2169 511.293 64.3287 516.032 69.6252L505.997 77.1519C502.373 73.1098 498.4 69.9737 494.08 67.7436C489.759 65.3741 485.09 64.1893 480.072 64.1893C474.218 64.1893 468.921 65.2347 464.182 67.3254C459.443 69.4162 455.401 72.2735 452.056 75.8974C448.711 79.382 446.132 83.5634 444.32 88.4418C442.648 93.1808 441.811 98.2683 441.811 103.704C441.811 109.14 442.648 114.297 444.32 119.176C446.132 123.915 448.711 128.096 452.056 131.72C455.401 135.205 459.443 137.992 464.182 140.083C468.921 142.174 474.218 143.219 480.072 143.219C485.368 143.219 490.177 142.034 494.498 139.665C498.958 137.156 502.791 133.88 505.997 129.838L515.614 137.783Z" fill="white"/>
<path d="M615.662 133.811C610.784 141.198 604.721 146.495 597.473 149.7C590.364 152.906 582.489 154.509 573.848 154.509C566.46 154.509 559.77 153.255 553.776 150.746C547.783 148.237 542.626 144.752 538.305 140.292C533.984 135.692 530.639 130.326 528.27 124.193C526.039 117.921 524.924 111.022 524.924 103.495C524.924 96.2472 526.109 89.5569 528.479 83.4241C530.848 77.2913 534.193 71.9947 538.514 67.5345C542.835 62.9349 547.922 59.3806 553.776 56.8718C559.631 54.2235 566.112 52.8994 573.22 52.8994C580.608 52.8994 587.089 54.2235 592.664 56.8718C598.379 59.3806 603.118 62.7955 606.881 67.1164C610.784 71.2978 613.711 76.1065 615.662 81.5424C617.614 86.9783 618.589 92.4839 618.589 98.0592V106.84H537.469C537.469 109.489 537.957 112.903 538.932 117.085C540.047 121.127 541.999 125.099 544.786 129.002C547.574 132.905 551.268 136.25 555.867 139.038C560.606 141.825 566.669 143.219 574.057 143.219C580.468 143.219 586.671 141.686 592.664 138.619C598.658 135.553 603.257 131.372 606.463 126.075L615.662 133.811ZM606.045 95.5503C606.045 91.2295 605.139 87.1874 603.327 83.4241C601.654 79.6608 599.285 76.3853 596.218 73.5976C593.291 70.6706 589.737 68.3708 585.556 66.6982C581.514 65.0256 577.193 64.1893 572.593 64.1893C565.763 64.1893 560.049 65.5832 555.449 68.3708C550.989 71.1584 547.435 74.3642 544.786 77.9882C542.138 81.6121 540.256 85.1663 539.141 88.6509C538.026 91.9961 537.469 94.2959 537.469 95.5503H606.045Z" fill="white"/>
</svg>
