<svg width="580" height="162" viewBox="0 0 580 162" fill="none" xmlns="http://www.w3.org/2000/svg">
<path d="M83.2524 30.1298C76.4731 20.1771 66.5925 15.2008 53.6108 15.2008C49.572 15.2008 45.6054 15.7778 41.7109 16.9317C37.8163 17.9414 34.2824 19.6002 31.1091 21.9081C28.08 24.0717 25.6279 26.9565 23.7528 30.5625C21.8776 34.0244 20.9401 38.1352 20.9401 42.8952C20.9401 49.8188 22.8873 55.2279 26.7818 59.1224C30.6764 62.8727 35.5085 65.9739 41.2781 68.426C47.0478 70.8781 53.3223 73.1138 60.1017 75.1332C67.0253 77.0084 73.3719 79.6047 79.1416 82.9223C84.9112 86.0956 89.7433 90.3507 93.6378 95.6876C97.5324 101.025 99.4796 108.309 99.4796 117.54C99.4796 124.464 97.9651 130.738 94.936 136.364C92.0512 141.845 88.1567 146.461 83.2524 150.211C78.4925 153.961 73.0834 156.846 67.0253 158.865C61.1114 160.885 55.1253 161.895 49.0672 161.895C39.6915 161.895 30.7485 160.164 22.2382 156.702C13.8722 153.096 6.73227 147.254 0.818359 139.176L14.8819 129.007C18.1995 134.633 22.8152 139.176 28.7291 142.638C34.643 145.956 41.6387 147.615 49.7163 147.615C53.6108 147.615 57.5053 147.038 61.3998 145.884C65.2944 144.586 68.7562 142.783 71.7852 140.475C74.9586 138.023 77.5549 135.066 79.5743 131.604C81.5937 128.142 82.6034 124.175 82.6034 119.704C82.6034 114.367 81.4494 109.968 79.1416 106.506C76.9779 102.9 74.021 99.9428 70.2707 97.6349C66.6647 95.1828 62.4817 93.1634 57.7217 91.5768C53.1059 89.9901 48.2739 88.4034 43.2254 86.8168C38.3212 85.2301 33.4891 83.4271 28.7291 81.4077C24.1134 79.3883 19.9304 76.8641 16.1801 73.835C12.5741 70.6617 9.6171 66.7672 7.30923 62.1515C5.14561 57.3915 4.0638 51.4776 4.0638 44.4097C4.0638 37.0534 5.43409 30.6347 8.17468 25.1535C11.0595 19.6723 14.8098 15.1287 19.4255 11.5227C24.1855 7.91661 29.5224 5.24815 35.4363 3.51724C41.3503 1.78635 47.4084 0.920898 53.6108 0.920898C62.2653 0.920898 70.1265 2.29119 77.1943 5.03178C84.2621 7.77237 90.8251 12.6045 96.8833 19.5281L83.2524 30.1298Z" fill="white"/>
<path d="M195.09 99.5822C195.09 89.918 192.205 82.1289 186.436 76.215C180.666 70.1569 172.588 67.1278 162.203 67.1278C157.587 67.1278 153.116 68.0654 148.789 69.9405C144.461 71.6714 140.639 74.0514 137.321 77.0805C134.148 80.1095 131.552 83.5713 129.532 87.4659C127.657 91.3604 126.72 95.3992 126.72 99.5822H195.09ZM126.287 111.266C126.72 116.314 127.946 121.074 129.965 125.546C131.984 130.017 134.653 133.912 137.97 137.229C141.288 140.403 145.11 142.927 149.438 144.802C153.765 146.677 158.453 147.615 163.501 147.615C171.146 147.615 177.709 145.884 183.19 142.422C188.816 138.816 193.071 134.705 195.956 130.089L206.99 139.176C200.932 146.821 194.225 152.302 186.868 155.62C179.656 158.938 171.867 160.596 163.501 160.596C156.001 160.596 149.005 159.298 142.514 156.702C136.167 153.961 130.686 150.211 126.07 145.451C121.455 140.691 117.777 135.066 115.036 128.575C112.44 122.084 111.141 115.016 111.141 107.371C111.141 99.7264 112.44 92.6586 115.036 86.1677C117.632 79.6768 121.238 74.0514 125.854 69.2914C130.47 64.5314 135.879 60.8533 142.081 58.2569C148.284 55.5163 154.991 54.146 162.203 54.146C169.848 54.146 176.699 55.5163 182.757 58.2569C188.816 60.9975 193.864 64.6757 197.903 69.2914C202.086 73.7629 205.259 79.0999 207.423 85.3022C209.586 91.3604 210.668 97.8513 210.668 104.775V111.266H126.287Z" fill="white"/>
<path d="M228.605 88.3313C228.605 83.8598 228.46 79.3162 228.172 74.7005C228.028 70.0847 227.883 64.0987 227.739 56.7424H241.803V75.5659H242.235C243.245 72.8254 244.687 70.229 246.563 67.7769C248.438 65.1805 250.673 62.8727 253.27 60.8533C256.01 58.8339 259.112 57.2472 262.573 56.0933C266.179 54.7951 270.218 54.146 274.69 54.146C278.728 54.146 282.262 54.5788 285.291 55.4442L282.479 69.5078C280.604 68.7866 277.863 68.426 274.257 68.426C268.776 68.426 264.088 69.5078 260.193 71.6714C256.299 73.6908 253.053 76.3593 250.457 79.6768C247.861 82.8501 245.914 86.3119 244.615 90.0622C243.461 93.8125 242.884 97.4185 242.884 100.88V158H228.605V88.3313Z" fill="white"/>
<path d="M343.5 158H327.489L286.38 56.7424H303.473L335.711 141.989H336.143L368.381 56.7424H384.609L343.5 158Z" fill="white"/>
<path d="M414.609 17.7972C414.609 20.8262 413.527 23.3505 411.363 25.3699C409.2 27.245 406.82 28.1826 404.223 28.1826C401.627 28.1826 399.247 27.245 397.083 25.3699C394.92 23.3505 393.838 20.8262 393.838 17.7972C393.838 14.7681 394.92 12.316 397.083 10.4408C399.247 8.42146 401.627 7.41177 404.223 7.41177C406.82 7.41177 409.2 8.42146 411.363 10.4408C413.527 12.316 414.609 14.7681 414.609 17.7972ZM411.363 158H397.083V56.7424H411.363V158Z" fill="white"/>
<path d="M510.126 80.5423C507.674 76.792 504.212 73.6187 499.741 71.0223C495.414 68.426 490.437 67.1278 484.812 67.1278C478.898 66.9836 473.561 67.9211 468.801 69.9405C464.185 71.9599 460.219 74.7726 456.901 78.3786C453.584 81.9847 451.059 86.3119 449.328 91.3604C447.598 96.2646 446.732 101.602 446.732 107.371C446.732 113.141 447.598 118.55 449.328 123.598C451.059 128.503 453.584 132.758 456.901 136.364C460.219 139.97 464.185 142.783 468.801 144.802C473.561 146.821 478.898 147.759 484.812 147.615C490.437 147.615 495.414 146.316 499.741 143.72C504.212 141.124 507.674 137.95 510.126 134.2L521.81 143.071C516.761 148.985 511.064 153.384 504.717 156.269C498.371 159.01 491.735 160.452 484.812 160.596C476.59 160.741 469.162 159.515 462.527 156.918C455.891 154.178 450.194 150.427 445.434 145.667C440.818 140.907 437.284 135.282 434.832 128.791C432.38 122.156 431.154 115.016 431.154 107.371C431.154 99.7264 432.38 92.6586 434.832 86.1677C437.284 79.5326 440.818 73.835 445.434 69.0751C450.194 64.3151 455.891 60.6369 462.527 58.0406C469.162 55.3 476.59 54.0018 484.812 54.146C491.735 54.2903 498.371 55.8048 504.717 58.6897C511.064 61.4302 516.761 65.7575 521.81 71.6714L510.126 80.5423Z" fill="white"/>
<path d="M610.012 99.5822C610.012 89.918 607.127 82.1289 601.357 76.215C595.587 70.1569 587.51 67.1278 577.125 67.1278C572.509 67.1278 568.037 68.0654 563.71 69.9405C559.383 71.6714 555.56 74.0514 552.243 77.0805C549.07 80.1095 546.473 83.5713 544.454 87.4659C542.579 91.3604 541.641 95.3992 541.641 99.5822H610.012ZM541.208 111.266C541.641 116.314 542.867 121.074 544.887 125.546C546.906 130.017 549.574 133.912 552.892 137.229C556.21 140.403 560.032 142.927 564.359 144.802C568.686 146.677 573.374 147.615 578.423 147.615C586.068 147.615 592.631 145.884 598.112 142.422C603.737 138.816 607.992 134.705 610.877 130.089L621.912 139.176C615.853 146.821 609.146 152.302 601.79 155.62C594.578 158.938 586.789 160.596 578.423 160.596C570.922 160.596 563.926 159.298 557.436 156.702C551.089 153.961 545.608 150.211 540.992 145.451C536.376 140.691 532.698 135.066 529.958 128.575C527.361 122.084 526.063 115.016 526.063 107.371C526.063 99.7264 527.361 92.6586 529.958 86.1677C532.554 79.6768 536.16 74.0514 540.776 69.2914C545.391 64.5314 550.8 60.8533 557.003 58.2569C563.205 55.5163 569.912 54.146 577.125 54.146C584.769 54.146 591.621 55.5163 597.679 58.2569C603.737 60.9975 608.786 64.6757 612.824 69.2914C617.007 73.7629 620.181 79.0999 622.344 85.3022C624.508 91.3604 625.59 97.8513 625.59 104.775V111.266H541.208Z" fill="white"/>
</svg>
