<svg width="476" height="537" viewBox="0 0 476 537" fill="none" xmlns="http://www.w3.org/2000/svg">
<path d="M163.329 333.933L55.1958 349.78C21.7431 354.682 -2.26013 384.566 0.16913 418.29C2.71678 453.69 33.3632 480.39 68.7804 478.066L231.681 467.384L412.674 473.699C445.237 474.834 472.932 450.152 475.532 417.672C478.163 384.803 454.169 355.801 421.387 352.236L295.526 338.546L163.333 333.933H163.329Z" fill="#668266"/>
<path d="M174.905 362.049H55.9106V363.803H174.905V362.049Z" fill="black"/>
<path d="M414.521 362.049H320.503V363.803H414.521V362.049Z" fill="black"/>
<path d="M50.2328 309.956C67.4437 322.922 89.5263 313.446 97.7612 297.301L131.74 224.761L91.3109 199.473L42.7521 267.83C33.0438 281.497 36.4115 300.467 50.2284 309.956H50.2328Z" fill="#C16D55"/>
<path d="M200.917 103.429L149.499 116.325C147.39 116.856 145.307 117.492 143.281 118.281C126.631 124.775 112.087 138.36 102.843 153.554C83.4309 185.454 52.7275 236.534 52.7275 240.533C52.7275 246.383 88.8639 246.821 124.869 278.073L129.052 359.041H321.476L322.253 285.352C347.773 276.42 400.353 268.005 404.602 264.028C406.053 262.669 378.327 199.346 360.108 158.245C350.435 136.417 331.43 120.118 308.387 113.874L263.613 101.745L200.917 103.429Z" fill="#668266"/>
<path d="M245.073 320.032L322.253 285.343C342.011 279.094 365.804 273.008 392.443 268.04L398.98 305.286C402.01 322.663 389.294 338.826 371.697 339.971L268.002 346.732L245.073 320.032Z" fill="#C16D55"/>
<path d="M309.988 528.633C249.849 541.502 186.565 539.007 126.917 524.704C83.4662 514.285 48.1191 482.393 48.1191 435.496C48.1191 404.131 64.4135 373.721 91.0345 356.374C118.747 338.317 153.187 339.444 184.912 340.019C218.992 340.019 253.12 341.255 287.195 341.865C315.618 342.373 346.778 343.518 369.851 362.347C391.684 380.163 404.598 407.314 404.598 435.501C404.598 492.851 359.06 518.131 309.984 528.637L309.988 528.633Z" fill="#F28B29"/>
<path d="M97.8275 391.16C97.6697 391.16 97.5119 391.151 97.3496 391.134C95.5255 390.919 94.0478 389.437 93.8373 387.613C93.7014 386.464 94.0434 385.354 94.7976 384.486C95.543 383.631 96.6173 383.127 97.7442 383.1L97.7837 384.854C97.1435 384.868 96.5384 385.153 96.1174 385.635C95.6921 386.126 95.4992 386.753 95.5737 387.406C95.6921 388.433 96.5253 389.266 97.5513 389.388C98.6388 389.52 99.6649 388.862 99.9982 387.832L101.664 388.376C101.121 390.046 99.5509 391.16 97.8189 391.16H97.8275Z" fill="black"/>
<path d="M126.04 397.632C125.883 397.632 125.725 397.624 125.562 397.606C123.738 397.391 122.261 395.909 122.05 394.085C121.914 392.936 122.256 391.827 123.01 390.959C123.756 390.104 124.83 389.599 125.957 389.573L125.997 391.327C125.356 391.34 124.751 391.625 124.33 392.107C123.905 392.599 123.712 393.226 123.787 393.879C123.905 394.905 124.738 395.738 125.764 395.861C126.847 395.992 127.878 395.335 128.211 394.304L129.877 394.848C129.334 396.519 127.764 397.632 126.032 397.632H126.04Z" fill="black"/>
<path d="M154.392 403.447C154.235 403.447 154.077 403.438 153.915 403.42C152.09 403.206 150.613 401.723 150.402 399.899C150.266 398.75 150.608 397.641 151.363 396.773C152.108 395.918 153.182 395.413 154.309 395.387L154.349 397.141C153.708 397.154 153.103 397.439 152.682 397.922C152.257 398.413 152.064 399.04 152.139 399.693C152.257 400.719 153.09 401.552 154.116 401.675C155.199 401.807 156.23 401.149 156.563 400.118L158.229 400.662C157.686 402.333 156.116 403.447 154.384 403.447H154.392Z" fill="black"/>
<path d="M183.071 407.314C182.913 407.314 182.755 407.305 182.593 407.288C180.769 407.073 179.291 405.591 179.08 403.767C178.945 402.618 179.287 401.508 180.041 400.64C180.786 399.785 181.861 399.281 182.988 399.255L183.027 401.009C182.387 401.022 181.782 401.307 181.361 401.789C180.935 402.28 180.742 402.907 180.817 403.561C180.935 404.587 181.768 405.42 182.794 405.543C183.878 405.674 184.908 405.016 185.241 403.986L186.908 404.53C186.364 406.2 184.794 407.314 183.062 407.314H183.071Z" fill="black"/>
<path d="M211.954 409.191C211.796 409.191 211.638 409.182 211.476 409.165C209.652 408.95 208.174 407.468 207.964 405.644C207.828 404.495 208.17 403.385 208.924 402.517C209.669 401.662 210.744 401.158 211.871 401.132L211.91 402.886C211.27 402.899 210.665 403.184 210.244 403.666C209.819 404.157 209.626 404.784 209.7 405.438C209.819 406.464 210.652 407.297 211.678 407.42C212.765 407.547 213.791 406.893 214.125 405.863L215.791 406.407C215.247 408.077 213.677 409.191 211.945 409.191H211.954Z" fill="black"/>
<path d="M240.886 409.068C240.728 409.068 240.57 409.059 240.408 409.042C238.584 408.827 237.106 407.345 236.896 405.521C236.76 404.372 237.102 403.262 237.856 402.394C238.602 401.539 239.676 401.035 240.803 401.009L240.842 402.763C240.202 402.776 239.597 403.061 239.176 403.543C238.751 404.034 238.558 404.661 238.632 405.315C238.751 406.341 239.584 407.174 240.61 407.297C241.693 407.428 242.724 406.77 243.057 405.74L244.723 406.284C244.179 407.954 242.61 409.068 240.877 409.068H240.886Z" fill="black"/>
<path d="M269.753 406.942C269.595 406.942 269.437 406.933 269.275 406.915C267.451 406.7 265.973 405.218 265.763 403.394C265.627 402.245 265.969 401.136 266.723 400.268C267.468 399.413 268.543 398.908 269.67 398.882L269.709 400.636C269.069 400.649 268.464 400.934 268.043 401.417C267.617 401.908 267.424 402.535 267.499 403.188C267.617 404.214 268.451 405.047 269.477 405.17C270.56 405.302 271.59 404.644 271.923 403.613L273.59 404.157C273.046 405.828 271.476 406.942 269.744 406.942H269.753Z" fill="black"/>
<path d="M298.483 403.442C298.325 403.442 298.167 403.434 298.005 403.416C296.181 403.201 294.703 401.719 294.493 399.895C294.357 398.746 294.699 397.637 295.453 396.769C296.198 395.914 297.273 395.409 298.4 395.383L298.439 397.137C297.799 397.15 297.194 397.435 296.773 397.917C296.347 398.409 296.155 399.036 296.229 399.689C296.347 400.715 297.181 401.548 298.207 401.671C299.294 401.803 300.32 401.145 300.653 400.114L302.32 400.658C301.776 402.329 300.206 403.442 298.474 403.442H298.483Z" fill="black"/>
<path d="M326.915 398.057C326.757 398.057 326.599 398.049 326.437 398.031C324.612 397.816 323.135 396.334 322.924 394.51C322.788 393.361 323.13 392.252 323.884 391.383C324.63 390.528 325.704 390.024 326.831 389.998L326.871 391.752C326.23 391.765 325.625 392.05 325.204 392.532C324.779 393.023 324.586 393.65 324.661 394.304C324.779 395.33 325.612 396.163 326.638 396.286C327.721 396.417 328.752 395.76 329.085 394.729L330.751 395.273C330.208 396.943 328.638 398.057 326.906 398.057H326.915Z" fill="black"/>
<path d="M355.027 391.16C354.869 391.16 354.711 391.151 354.549 391.134C352.725 390.919 351.247 389.437 351.037 387.613C350.901 386.464 351.243 385.354 351.997 384.486C352.742 383.631 353.817 383.127 354.943 383.1L354.983 384.854C354.343 384.868 353.738 385.153 353.317 385.635C352.891 386.126 352.698 386.753 352.773 387.406C352.891 388.433 353.724 389.266 354.751 389.388C355.834 389.52 356.864 388.862 357.197 387.832L358.864 388.376C358.32 390.046 356.75 391.16 355.018 391.16H355.027Z" fill="black"/>
<path d="M97.8275 424.591C97.6697 424.591 97.5119 424.582 97.3496 424.565C95.5255 424.35 94.0478 422.868 93.8373 421.044C93.7014 419.895 94.0434 418.785 94.7976 417.917C95.543 417.062 96.6173 416.558 97.7486 416.531L97.7881 418.285C97.1479 418.299 96.5428 418.584 96.1218 419.07C95.6965 419.561 95.5036 420.188 95.5781 420.842C95.6965 421.868 96.5296 422.701 97.5557 422.824C98.6432 422.955 99.6693 422.298 100.003 421.267L101.669 421.811C101.125 423.482 99.5553 424.595 97.8232 424.595L97.8275 424.591Z" fill="black"/>
<path d="M126.04 431.063C125.883 431.063 125.725 431.054 125.562 431.037C123.738 430.822 122.261 429.34 122.05 427.516C121.914 426.367 122.256 425.257 123.01 424.389C123.752 423.534 124.83 423.03 125.957 423.003L125.997 424.757C125.356 424.771 124.751 425.056 124.33 425.538C123.905 426.029 123.712 426.656 123.787 427.309C123.905 428.336 124.738 429.169 125.764 429.292C126.847 429.419 127.878 428.765 128.211 427.735L129.877 428.279C129.334 429.949 127.764 431.063 126.032 431.063H126.04Z" fill="black"/>
<path d="M154.392 436.873C154.235 436.873 154.077 436.864 153.915 436.847C152.09 436.632 150.613 435.15 150.402 433.326C150.266 432.177 150.608 431.067 151.363 430.199C152.108 429.344 153.182 428.84 154.314 428.813L154.353 430.567C153.713 430.581 153.108 430.866 152.687 431.352C152.261 431.844 152.069 432.471 152.143 433.124C152.261 434.15 153.095 434.983 154.121 435.106C155.208 435.237 156.234 434.58 156.567 433.549L158.234 434.093C157.69 435.764 156.12 436.877 154.388 436.877L154.392 436.873Z" fill="black"/>
<path d="M183.071 440.741C182.913 440.741 182.755 440.732 182.593 440.714C180.769 440.5 179.291 439.017 179.08 437.193C178.945 436.044 179.287 434.935 180.041 434.067C180.782 433.212 181.861 432.707 182.988 432.681L183.027 434.435C182.387 434.448 181.782 434.733 181.361 435.216C180.935 435.707 180.742 436.334 180.817 436.987C180.935 438.013 181.768 438.846 182.794 438.969C183.878 439.101 184.908 438.443 185.241 437.413L186.908 437.956C186.364 439.627 184.794 440.741 183.062 440.741H183.071Z" fill="black"/>
<path d="M211.954 442.617C211.796 442.617 211.638 442.609 211.476 442.591C209.652 442.376 208.174 440.894 207.964 439.07C207.828 437.921 208.17 436.812 208.924 435.944C209.669 435.088 210.744 434.584 211.871 434.558L211.91 436.312C211.27 436.325 210.665 436.61 210.244 437.097C209.819 437.588 209.626 438.215 209.7 438.868C209.819 439.894 210.652 440.728 211.678 440.85C212.765 440.977 213.791 440.324 214.125 439.294L215.791 439.837C215.247 441.508 213.677 442.622 211.945 442.622L211.954 442.617Z" fill="black"/>
<path d="M240.886 442.495C240.728 442.495 240.57 442.486 240.408 442.468C238.584 442.253 237.106 440.771 236.896 438.947C236.76 437.798 237.102 436.689 237.856 435.821C238.602 434.966 239.676 434.461 240.803 434.435L240.842 436.189C240.202 436.202 239.597 436.487 239.176 436.97C238.751 437.461 238.558 438.088 238.632 438.741C238.751 439.767 239.584 440.6 240.61 440.723C241.693 440.855 242.724 440.197 243.057 439.167L244.723 439.71C244.179 441.381 242.61 442.495 240.877 442.495H240.886Z" fill="black"/>
<path d="M269.753 440.372C269.595 440.372 269.437 440.363 269.275 440.346C267.451 440.131 265.973 438.649 265.763 436.825C265.627 435.676 265.969 434.566 266.723 433.698C267.468 432.843 268.543 432.339 269.67 432.313L269.709 434.067C269.069 434.08 268.464 434.365 268.043 434.851C267.617 435.343 267.424 435.97 267.499 436.623C267.617 437.649 268.451 438.482 269.477 438.605C270.56 438.737 271.59 438.079 271.923 437.048L273.59 437.592C273.046 439.263 271.476 440.376 269.744 440.376L269.753 440.372Z" fill="black"/>
<path d="M298.483 436.869C298.325 436.869 298.167 436.86 298.005 436.842C296.181 436.627 294.703 435.145 294.493 433.321C294.357 432.172 294.699 431.063 295.453 430.195C296.198 429.34 297.273 428.835 298.4 428.809L298.439 430.563C297.799 430.576 297.194 430.861 296.773 431.344C296.347 431.835 296.155 432.462 296.229 433.115C296.347 434.141 297.181 434.974 298.207 435.097C299.294 435.229 300.32 434.571 300.653 433.54L302.32 434.084C301.776 435.755 300.206 436.869 298.474 436.869H298.483Z" fill="black"/>
<path d="M326.915 431.484C326.757 431.484 326.599 431.475 326.437 431.458C324.612 431.243 323.135 429.761 322.924 427.937C322.788 426.788 323.13 425.678 323.884 424.81C324.63 423.955 325.704 423.451 326.831 423.425L326.871 425.179C326.23 425.192 325.625 425.477 325.204 425.959C324.779 426.45 324.586 427.077 324.661 427.731C324.779 428.757 325.612 429.59 326.638 429.713C327.726 429.844 328.752 429.186 329.085 428.156L330.751 428.7C330.208 430.37 328.638 431.484 326.906 431.484H326.915Z" fill="black"/>
<path d="M355.027 424.591C354.869 424.591 354.711 424.582 354.549 424.564C352.725 424.35 351.247 422.867 351.037 421.043C350.901 419.894 351.243 418.785 351.997 417.917C352.742 417.062 353.817 416.558 354.948 416.531L354.987 418.285C354.347 418.298 353.742 418.583 353.321 419.07C352.896 419.561 352.703 420.188 352.777 420.842C352.896 421.868 353.729 422.701 354.755 422.824C355.842 422.955 356.868 422.297 357.202 421.267L358.868 421.811C358.324 423.481 356.754 424.595 355.022 424.595L355.027 424.591Z" fill="black"/>
<path d="M264.042 322.734C243.893 317.511 216.904 315.643 198.706 344.312C198.062 345.329 197.799 346.561 198.057 347.737C198.522 349.828 200.601 352.222 208.384 350.104L214.422 347.395C214.422 347.395 211.16 354.375 216.088 359.365C221.021 364.355 226.722 359.208 226.722 359.208C226.722 359.208 230.55 363.68 236.22 360.808C238.877 359.462 240.798 357.006 241.604 354.139C242.986 349.223 245.928 342.768 249.734 340.672C249.734 340.672 241.539 358.173 246.796 361.681C250.646 364.25 255.224 361.611 257.947 357.046C257.947 357.046 274.228 349.591 281.635 344.457C281.635 344.457 284.191 327.952 264.042 322.729V322.734Z" fill="#C16D55"/>
<path d="M215.277 347.596L213.571 347.193C213.659 346.824 215.79 338.09 224.77 327.684L226.099 328.829C217.399 338.914 215.299 347.508 215.281 347.592L215.277 347.596Z" fill="black"/>
<path d="M227.595 359.321L225.854 359.102C225.947 358.374 228.214 341.133 239.61 329.109L240.882 330.315C229.889 341.913 227.613 359.146 227.591 359.321H227.595Z" fill="black"/>
<path d="M258.781 357.326L257.114 356.774C257.272 356.305 260.969 345.255 263.683 341.602L265.091 342.646C262.543 346.079 258.816 357.217 258.776 357.331L258.781 357.326Z" fill="black"/>
<path d="M246.358 362.443C245.867 362.158 241.684 359.277 246.442 346.548C251.12 334.029 255.098 331.24 255.264 331.126L256.246 332.582C256.216 332.604 252.515 335.314 248.086 347.162C243.85 358.488 247.231 360.917 247.266 360.939L246.363 362.443H246.358Z" fill="black"/>
<path d="M120.462 178.703L118.711 178.796L123.988 278.155L125.739 278.062L120.462 178.703Z" fill="black"/>
<path d="M322.353 181.437H320.599V264.023H322.353V181.437Z" fill="black"/>
<path d="M200.916 84.188V103.429L183.609 107.766L217.939 154.746L263.612 101.741L250.896 98.9828L245.529 61.8073L200.916 84.188Z" fill="#C16D55"/>
<path d="M245.528 61.8073L200.916 84.188V99.5967C217.881 96.023 233.137 87.8275 247.914 78.321L245.528 61.8073Z" fill="#B75539"/>
<path d="M160.083 286.632L153.264 347.609L149.463 348.28C143.289 349.368 138.829 354.292 138.829 360.019V360.391H164.091C164.091 360.391 177.724 340.672 177.724 339.58C177.724 338.489 192.098 285.54 192.098 285.54C192.098 285.54 176.119 271.666 160.079 286.637L160.083 286.632Z" fill="#FFF0DF"/>
<path d="M179.364 181.525C174.554 174.886 158.022 164.051 137.062 175.005C116.102 185.958 117.747 208.26 117.747 208.26C117.747 208.26 109.569 209.957 110.626 217.727C111.358 223.081 114.033 228.843 119.632 233.71C124.048 237.551 130.178 239.148 135.944 240.152L137.334 240.393L139.119 262.809C140.886 278.138 147.7 292.447 158.492 303.479L166.49 311.657C208.348 319.396 258.477 307.689 311.127 288.504C316.087 287.711 320.213 284.247 321.831 279.493C323.173 275.551 324.58 270.513 325.207 265.352C326.483 254.872 318.669 245.475 308.15 244.611L197.11 235.526L190.317 223.748C190.317 223.748 190.318 196.635 179.364 181.521V181.525Z" fill="#FFF0DF"/>
<path d="M174.549 289.517L167.731 350.494L163.929 351.165C157.755 352.253 153.295 357.177 153.295 362.904V363.277H178.557C178.557 363.277 192.19 343.557 192.19 342.466C192.19 341.374 206.564 288.426 206.564 288.426C206.564 288.426 190.585 274.552 174.545 289.522L174.549 289.517Z" fill="#FFF0DF"/>
<path d="M242.077 293.31L266.541 329.635L268.001 346.732L264.774 347.846C259.766 349.573 256.056 353.835 255.039 359.032H272.381L286.624 329.631L291.373 278.699C291.373 278.699 249.746 278.699 242.077 293.306V293.31Z" fill="#FFF0DF"/>
<path d="M259.24 278.704L276.403 322.887L299.77 340.05L293.93 352.463L289.365 353.682C285.69 354.66 283.287 358.181 283.704 361.957H304.883L321.252 339.76C323.708 336.428 323.848 331.924 321.594 328.451C316.073 319.936 306.449 304.839 306.707 303.532C307.071 301.708 321.914 287.711 323.984 272.07C326.054 256.429 267.269 266.286 259.236 278.704H259.24Z" fill="#FFF0DF"/>
<path d="M319.602 249.764C319.602 249.764 341.759 248.4 342.123 271.039C342.487 293.679 334.09 312.99 334.09 312.99C334.09 312.99 327.881 302.44 328.613 291.486C328.613 291.486 323.636 287.031 323.983 272.074C324.333 257.117 319.598 249.764 319.598 249.764H319.602Z" fill="#FFF0DF"/>
<path d="M141.233 241.41C139.04 241.41 137.418 241.283 137.264 241.27L137.404 239.52C137.488 239.529 145.968 240.182 150.472 238.45L151.103 240.086C148.288 241.169 144.227 241.406 141.233 241.406V241.41Z" fill="black"/>
<path d="M181.771 184.437C179.276 181.332 175.694 179.254 171.738 178.802C167.788 178.35 163.091 179.42 159.684 185.23C152.62 197.28 165.402 230.509 175.623 230.141C185.849 229.777 199.982 221.375 197.114 210.058C194.97 201.591 186.108 189.826 181.771 184.437Z" fill="#FFF0DF"/>
<path d="M128.1 203.463C128.1 205.068 127.24 206.37 126.183 206.37C125.127 206.37 124.267 205.068 124.267 203.463C124.267 201.858 125.127 200.556 126.183 200.556C127.24 200.556 128.1 201.858 128.1 203.463Z" fill="black"/>
<path d="M143.719 205.743C143.719 207.348 142.859 208.65 141.802 208.65C140.746 208.65 139.886 207.348 139.886 205.743C139.886 204.138 140.746 202.836 141.802 202.836C142.859 202.836 143.719 204.138 143.719 205.743Z" fill="black"/>
<path d="M118.497 214.837C117.225 210.676 126.512 211.991 127.433 214.495C128.433 217.218 124.153 218.538 122.25 217.911C121.005 217.503 118.953 216.324 118.497 214.837Z" fill="black"/>
<path d="M154.388 360.755L152.796 360.019C156.589 351.801 164.477 350.052 166.937 349.701L171.248 311.157C168.88 310.627 161.952 308.737 157.834 304.062L159.15 302.905C163.666 308.026 172.269 309.579 172.357 309.596L173.168 309.736L168.52 351.323L167.788 351.372C167.696 351.376 158.369 352.121 154.388 360.755Z" fill="black"/>
<path d="M286.212 330.411C271.128 322.409 254.535 306.684 254.369 306.527L255.579 305.255C255.741 305.413 272.167 320.971 287.036 328.859L286.212 330.407V330.411Z" fill="black"/>
<path d="M245.529 61.8072C243.929 68.2531 240.771 74.2824 235.759 78.8559C227.669 86.2402 215.514 89.3579 204.911 85.8148C182.298 78.2552 172.042 48.2797 180.189 27.0259C181.829 22.7461 184.758 18.997 188.455 16.2696C196.497 10.328 207.805 10.0605 217.347 10.7445C236.904 12.1477 245.762 30.9065 246.739 48.4463C246.985 52.8795 246.612 57.4398 245.529 61.8072Z" fill="#C16D55"/>
<path d="M200.877 51.9279C201.144 53.6336 199.982 55.2341 198.277 55.5016C196.571 55.7691 194.97 54.6071 194.703 52.9013C194.435 51.1956 195.597 49.5951 197.303 49.3276C199.009 49.0601 200.609 50.2221 200.877 51.9279Z" fill="black"/>
<path d="M222.074 47.0606C222.342 48.7663 221.18 50.3668 219.474 50.6343C217.768 50.9018 216.168 49.7398 215.9 48.034C215.633 46.3283 216.795 44.7278 218.5 44.4603C220.206 44.1928 221.807 45.3548 222.074 47.0606Z" fill="black"/>
<path d="M225.463 38.4312C223.262 36.1642 218.864 35.4801 216.049 36.971L215.229 35.4187C218.724 33.5683 223.99 34.3839 226.726 37.2078L225.468 38.4312H225.463Z" fill="black"/>
<path d="M212.984 69.7704C210.441 69.7704 208.428 68.9416 208.389 68.9241L209.077 67.3104C209.393 67.442 216.803 70.4632 220.07 63.2499L221.666 63.9735C219.535 68.6741 215.913 69.7747 212.988 69.7747L212.984 69.7704Z" fill="black"/>
<path d="M177.926 37.5234C177.926 37.5234 188.59 34.9275 197.593 28.7974C197.593 28.7974 195.317 36.0895 195.655 37.2735C195.821 37.8655 215.255 25.8419 215.255 25.8419C215.255 25.8419 212.953 32.985 213.729 32.8359C216.812 32.2396 232.304 22.0796 232.576 22.5532C233.396 23.9783 236.364 35.9229 236.364 35.9229L243.257 31.7485L250.677 30.4198C250.677 30.4198 248.296 9.08706 228.695 1.65896C213.444 -4.11602 175.339 4.56618 177.931 37.519L177.926 37.5234Z" fill="#323232"/>
<path d="M191.112 61.851C189.486 61.851 187.902 61.3599 186.539 60.4127C184.767 59.1849 183.583 57.3433 183.198 55.2253L182.522 51.4981C182.312 50.3361 182.566 49.1609 183.241 48.1875C183.917 47.214 184.925 46.5651 186.087 46.3546L197.313 44.32C199.716 43.8859 202.022 45.482 202.456 47.8849L203.131 51.6121C203.925 55.9883 201.009 60.1891 196.637 60.9828L192.568 61.7194C192.081 61.8071 191.595 61.851 191.112 61.851ZM198.106 46.0038C197.944 46.0038 197.786 46.0169 197.624 46.0476L186.399 48.0823C185.697 48.2094 185.087 48.6041 184.68 49.1873C184.272 49.7748 184.118 50.4852 184.245 51.1868L184.921 54.914C185.223 56.5715 186.149 58.0142 187.534 58.9745C188.92 59.9348 190.595 60.2987 192.252 59.9961L196.322 59.2595C199.746 58.6412 202.022 55.3481 201.404 51.9279L200.729 48.2006C200.601 47.4991 200.207 46.8895 199.623 46.4817C199.172 46.1704 198.646 46.0038 198.106 46.0038Z" fill="white"/>
<path d="M218.439 55.8087C214.742 55.8087 211.405 53.2479 210.572 49.4944L209.752 45.7979C209.498 44.6446 209.704 43.4607 210.34 42.4609C210.975 41.4655 211.958 40.7727 213.115 40.5184L224.253 38.0453C225.406 37.791 226.59 37.9971 227.59 38.6329C228.585 39.2687 229.278 40.2509 229.533 41.4085L230.353 45.1051C231.317 49.4461 228.572 53.7609 224.231 54.7256L220.193 55.6245C219.605 55.7561 219.022 55.8175 218.443 55.8175L218.439 55.8087ZM225.213 39.6896C225.02 39.6896 224.823 39.7116 224.63 39.7554L213.492 42.2285C212.795 42.382 212.203 42.7986 211.817 43.4037C211.436 44.0044 211.309 44.7192 211.462 45.4164L212.282 49.1129C213.036 52.5068 216.413 54.6555 219.807 53.9013L223.845 53.0023C227.239 52.2481 229.388 48.8717 228.634 45.4778L227.814 41.7813C227.66 41.0841 227.244 40.4921 226.638 40.1062C226.204 39.83 225.713 39.6896 225.209 39.6896H225.213Z" fill="white"/>
<path d="M205.031 50.3802C205.031 50.3802 202.589 55.8307 201.436 58.6984C200.721 60.4656 207.938 62.3599 207.938 62.3599" fill="#C16D55"/>
<path d="M207.714 63.206C206.294 62.8333 201.589 61.4783 200.69 59.6936C200.47 59.2551 200.444 58.7991 200.62 58.3694C201.768 55.5236 204.206 50.0775 204.228 50.0204L205.829 50.7396C205.802 50.7922 203.426 56.1111 202.277 58.9482C202.632 59.5796 205.373 60.7767 208.157 61.509L207.714 63.206Z" fill="black"/>
<path d="M210.597 46.3243L201.934 48.0586L202.278 49.7785L210.942 48.0441L210.597 46.3243Z" fill="white"/>
<path d="M243.533 30.8678L227.525 39.2794L228.341 40.832L244.349 32.4205L243.533 30.8678Z" fill="white"/>
<path d="M241.232 45.7625C243.999 48.9898 248.349 50.0115 252.106 48.6565C253.233 48.2575 254.299 47.6524 255.246 46.8412C259.403 43.2806 259.885 37.0145 256.307 32.84C252.747 28.6831 246.481 28.2008 242.324 31.7657C241.999 32.0464 241.688 32.3402 241.416 32.6559C238.105 36.3129 237.947 41.9344 241.232 45.7669V45.7625Z" fill="#C16D55"/>
<path d="M247.476 42.7764L245.74 42.5352C245.766 42.3379 246.476 37.6504 251.655 35.1159L252.427 36.6901C248.077 38.8168 247.481 42.7369 247.476 42.7764Z" fill="black"/>
<path d="M252.519 42.3072C250.345 40.54 248.051 39.8165 248.025 39.8121L248.538 38.1371C248.643 38.1678 251.169 38.9571 253.62 40.9478L252.515 42.3072H252.519Z" fill="black"/>
<path d="M50.2323 309.956C65.1718 320.216 80.6331 313.446 88.8636 297.301L113.713 228.729L77.6908 207.58L42.756 267.834C33.0477 281.502 36.4154 300.471 50.2323 309.96V309.956Z" fill="#C16D55"/>
<path d="M76.927 209.632C76.927 209.632 72.0554 200.735 76.9929 195.89C81.9303 191.044 112.116 188.918 113.322 194.302C114.528 199.687 110.687 203.068 110.687 203.068C110.687 203.068 119.505 201.985 121.855 205.747C124.205 209.509 123.394 213.421 118.895 213.89C118.895 213.89 125.644 217.565 118.637 223.66L111.476 228.509C111.476 228.509 110.665 234.758 106.964 240.099C104.136 244.181 98.5448 249.119 94.3396 245.751C90.1345 242.383 88.5998 237.503 88.5998 237.503C88.5998 237.503 80.5008 235.718 80.0141 226.137C80.0141 226.137 72.6386 218.029 76.9226 209.637L76.927 209.632Z" fill="#C16D55"/>
<path d="M86.4907 209.58L86.0391 207.887C86.767 207.694 103.899 203.125 110.568 202.2L110.81 203.936C104.25 204.848 86.6705 209.536 86.4907 209.584V209.58Z" fill="black"/>
<path d="M92.7568 222.643L92.248 220.963C92.4059 220.915 108.148 216.14 118.65 213.044L119.145 214.728C108.652 217.824 92.9146 222.594 92.7568 222.643Z" fill="black"/>
<path d="M96.4002 234.267L95.874 232.592C95.9793 232.557 106.521 229.242 111.195 227.672L111.752 229.334C107.06 230.908 96.5055 234.232 96.3959 234.267H96.4002Z" fill="black"/>
<path d="M97.823 246.593C95.4068 246.593 93.0521 245.313 90.9167 242.818C89.3337 240.967 88.3208 238.972 87.948 238.187C80.4673 235.109 79.3316 228.22 79.165 226.536C76.6436 224.037 75.3106 220.319 75.2974 215.75C75.2887 212.255 76.0473 209.51 76.078 209.396L77.7661 209.869C77.7354 209.975 74.9598 220.235 80.6077 225.493L80.8707 225.738L80.8839 226.098C80.897 226.405 81.3092 233.745 88.9083 236.683L89.2548 236.815L89.3994 237.157C89.4345 237.24 92.7451 244.83 97.836 244.83C98.3403 244.83 98.8665 244.756 99.4059 244.589L99.9189 246.269C99.2129 246.484 98.5114 246.589 97.8142 246.589L97.823 246.593Z" fill="black"/>
<path d="M100.162 265.385L88.0498 296.987L89.6876 297.614L101.799 266.013L100.162 265.385Z" fill="black"/>
<path d="M177.5 48.3179L177.386 50.0682L182.926 50.4284L183.04 48.6781L177.5 48.3179Z" fill="white"/>
<path d="M175.629 231.018H175.625C172.147 231.018 169.24 229.707 166.991 227.124C163.575 223.204 161.702 216.46 161.435 207.08C161.238 200.174 162.027 194.303 162.036 194.246L163.772 194.482C163.741 194.71 160.755 217.306 168.311 225.971C170.24 228.185 172.634 229.259 175.625 229.259H175.629C183.158 229.259 189.652 223.173 189.713 223.112L190.924 224.383C190.639 224.655 183.868 231.013 175.629 231.013V231.018Z" fill="black"/>
</svg>
